<svg xmlns="http://www.w3.org/2000/svg" viewBox="0 0 230 310"><title>ThirdParties</title><path d="M181.8,229.4a1.7,1.7,0,0,0-1.7,1.6v6.6a1.8,1.8,0,0,0,1.7,1.7,1.7,1.7,0,0,0,1.6-1.7V231A1.6,1.6,0,0,0,181.8,229.4ZM158.5,239a1.8,1.8,0,0,0-1.2.5,1.7,1.7,0,0,0,0,2.3l4.7,4.7a1.5,1.5,0,0,0,2.3,0,1.7,1.7,0,0,0,0-2.3l-4.7-4.7A1.6,1.6,0,0,0,158.5,239Zm46.6,0a1.8,1.8,0,0,0-1.2.5l-4.6,4.7a1.6,1.6,0,1,0,2.3,2.3l4.6-4.7a1.5,1.5,0,0,0,0-2.3A1.6,1.6,0,0,0,205.1,239Zm-23.3,5.2c-10.1,0-19.8,7.8-19.8,18.8,0,13.5,9.5,17,10.6,25.7h18.3c1.1-8.7,10.7-12.2,10.7-25.7C201.6,252,191.8,244.2,181.8,244.2Zm-33,18.1a1.7,1.7,0,0,0-1.6,1.7,1.6,1.6,0,0,0,1.6,1.6h6.6a1.7,1.7,0,0,0,1.7-1.6,1.8,1.8,0,0,0-1.7-1.7Zm59.4,0a1.7,1.7,0,0,0-1.7,1.7,1.6,1.6,0,0,0,1.7,1.6h6.5a1.6,1.6,0,0,0,1.7-1.6,1.7,1.7,0,0,0-1.7-1.7ZM172.7,292v3.3h18.1V292Zm0,6.6v1.7a3.3,3.3,0,0,0,3.3,3.3h2.5v1.6a3.3,3.3,0,0,0,6.6,0v-1.6h2.4a3.3,3.3,0,0,0,3.3-3.3v-1.7Z" fill="#4c7fa1"/><path d="M68.5,270v8.9L48.1,270v8.9L27.7,270v8.9L7.1,270v37h82V278.9H89ZM33.1,297.1h-19v-7.3h19Zm24.5,0h-19v-7.3h19Zm24.4,0H63.1v-7.3h19v7.3Z" fill="#4c7fa1"/><polygon points="36.4 270.5 45.1 274.3 45.1 267.7 44.2 249.9 37.4 249.9 36.4 270.5" fill="#4c7fa1"/><polygon points="16.6 270.8 24.7 274.3 24.7 265.4 28.8 267.2 27.3 242.1 18.2 242.1 16.6 270.8" fill="#4c7fa1"/><path d="M60,240.9c1.8-.6,3.1-1.7,3.1-3.1s-2.5-3.4-5.6-3.4a7.2,7.2,0,0,0-3.7.9,13.8,13.8,0,0,0-5.7-1.1c-4.4,0-8.1,1.6-8.4,3.7-1.5.3-2.6,1.1-2.6,2.1s1.7,2.3,3.7,2.3h.6c1.4,1.7,4.9,2.9,9,2.9S59.7,243.3,60,240.9Z" fill="#4c7fa1"/><path d="M179.6,126.7l-31.7,7.9v.6l-4.5,18,4.5,1.1,3.3.8,24,5.9,3.6-14.7v-3.6l-24.9-6.2h.2l25.5-6.4,25.6,6.4h.2l-24.9,6.1v3.6l3.6,14.7,24-5.9,3.3-.8,4.5-1.1-4.5-18.1v-.5Zm-.8,24.3L176,162.4l-24.8-6.1-3.3-.9v26.5l30.9,7.7V151Zm1.7.2v38.4l30.9-7.7V155.5l-3.3.8-24.8,6.1Z" fill="#4c7fa1"/><path d="M18,173.1a2.5,2.5,0,0,1,2.5-2.5H69.6a2.5,2.5,0,0,1,2.5,2.5v15.5H83.6V125.4H6.6v63.2H18Zm50.4-39.9h6.8V140H68.4Zm0,21.3h6.8v6.8H68.4ZM50.6,133.2h6.8V140H50.6Zm0,21.3h6.8v6.8H50.6ZM32.8,133.2h6.8V140H32.8Zm0,21.3h6.8v6.8H32.8ZM15,133.2h6.8V140H15Zm0,21.3h6.8v6.8H15Z" fill="#4c7fa1"/><rect x="23" y="175.6" width="19.6" height="12.94" fill="#4c7fa1"/><rect x="47.6" y="175.6" width="19.6" height="12.94" fill="#4c7fa1"/><path d="M13.4,20.5V79H36V61.6H52.2V79H74.9V20.5L44.1-.1ZM41.2,54.6H24.9V40.8H41.2Zm0-18.8H24.9V21.9H41.2ZM47,21.9H63.3V35.8H47Zm0,18.9H63.3V54.6H47Z" fill="#4c7fa1"/><path d="M147.2,45.2h5V78.5h37.3V56.8a3,3,0,0,1-1.1-2.3V50.3h17.5v4.2a3.1,3.1,0,0,1-.9,2.2V78.5h4.3V45.2h5a1,1,0,0,0,.6-1.8L181.4,20.6a1.1,1.1,0,0,0-1.1,0L146.6,43.4A1,1,0,0,0,147.2,45.2Zm36.2,6.2v2.9a2.9,2.9,0,0,1-.9,2.1V66.7H158V56.4a2.9,2.9,0,0,1-1-2.2V50.3h26.2v1.1Zm-2.6-22.9a6,6,0,1,1-6,6A6,6,0,0,1,180.8,28.5Z" fill="#4c7fa1"/><path d="M191.5,56.5a2.1,2.1,0,0,0,2.1-2.1V51.3h-4.1v3A2.1,2.1,0,0,0,191.5,56.5Z" fill="#4c7fa1"/><path d="M195.1,54.4a2.1,2.1,0,0,0,4.2,0V51.3h-4.1v3.1Z" fill="#4c7fa1"/><path d="M200.7,54.4a2.1,2.1,0,0,0,2.1,2.1,2.1,2.1,0,0,0,2.1-2.1V51.3h-4.1v3.1Z" fill="#4c7fa1"/><path d="M159.9,56.1a1.9,1.9,0,0,0,1.9-1.9V51.3H158v2.9A1.8,1.8,0,0,0,159.9,56.1Z" fill="#4c7fa1"/><path d="M167.1,51.4h-3.8v2.9a1.9,1.9,0,0,0,1.9,1.9,2,2,0,0,0,1.9-1.9Z" fill="#4c7fa1"/><path d="M168.5,51.4v2.9a1.9,1.9,0,0,0,3.8,0h0V51.4Z" fill="#4c7fa1"/><path d="M175.3,56.1a1.9,1.9,0,0,0,1.9-1.9V51.3h-3.8v2.9A1.8,1.8,0,0,0,175.3,56.1Z" fill="#4c7fa1"/><path d="M178.6,54.2a1.9,1.9,0,0,0,1.9,1.9,2,2,0,0,0,1.9-1.9V51.3h-3.8Z" fill="#4c7fa1"/></svg>