<svg viewBox="0 0 1920 342" xmlns="http://www.w3.org/2000/svg"><path d="m1040.6 267.6h-3.5v73h10.3v-66.2a7.6 7.6 0 0 1 -6.8-6.8z" fill="none"/><path d="m1002.2 267.6v73h33.1v-73z" fill="none"/><path d="m979.8 267.6h-7.5v73h14.3v-66.2a7.5 7.5 0 0 1 -6.8-6.8z" fill="none"/><path d="m994.8 267.6a7.5 7.5 0 0 1 -6.8 6.8v66.2h12.9v-73z" fill="none"/><path d="m1037.1 123.6v142.6h3.5a7.6 7.6 0 1 1 8.2 8.2v66.2h8.8v-217z" fill="none"/><path d="m1098.3 267.6a7.6 7.6 0 0 1 -6.9 6.8v66.2h10.8v-73z" fill="none"/><path d="m1144.1 267.6h-6.1v73h12.9v-66.2a7.5 7.5 0 0 1 -6.8-6.8z" fill="none"/><path d="m1062.3 161.4v-37.8h-3.3v217h20.9v-179.2z" fill="none"/><path d="m1103.6 267.6v73h33.1v-73z" fill="none"/><path d="m1083.2 266.9a7.6 7.6 0 0 1 15.1-.7h3.9v-104.8h-21v179.2h8.9v-66.2a7.5 7.5 0 0 1 -6.9-7.5z" fill="none"/><path d="m931.9 267.6a7.5 7.5 0 0 1 -6.8 6.8v66.2h45.4v-73z" fill="none"/><path d="m916.9 267.6h-25.6v73h32.4v-66.2a7.5 7.5 0 0 1 -6.8-6.8z" fill="none"/><path d="m1492.9 121.6h-39.8v61.5h5.4v157.5h38.7v-212.9a7.3 7.3 0 0 1 -4.3-6.1z" fill="none"/><path d="m1499 128.3v212.3h.7v-212.2z" fill="none"/><path d="m1404.5 184.4a7.7 7.7 0 0 1 -6.8 6.9v149.3h23.9v-156.2z" fill="none"/><path d="m1423.4 184.4v156.2h27.9v-156.2z" fill="none"/><path d="m1453.1 184.4v156.2h4v-156.2z" fill="none"/><path d="m810.2 214.9v-107.5h-18.9v233.2h41.4v-125.7z" fill="none"/><path d="m852.8 267.6v-45.9a7.7 7.7 0 0 1 -6.9-6.8h-11.4v125.7h55v-73z" fill="none"/><path d="m155.7 233h-22.6v45.1h-31v62.5h58.3v-102.9a5.1 5.1 0 0 1 -4.7-4.7z" fill="none"/><path d="m166 233a5.1 5.1 0 0 1 -4.7 4.7v102.9h20.2v-107.6z" fill="none"/><path d="m1207 267.6h-47.9a7.5 7.5 0 0 1 -6.8 6.8v66.2h61.3v-66.2a7.6 7.6 0 0 1 -6.6-6.8z" fill="none"/><path d="m328.1 264v-20.8h-13.2v97.4h22.8v-76.6z" fill="none"/><path d="m285.8 243.2a4.8 4.8 0 0 1 -1.5 2.9v94.5h29.7v-97.4z" fill="none"/><path d="m357.7 300.6v-31.9a5.2 5.2 0 0 1 -4.8-4.7h-13.9v76.6h21v-40z" fill="none"/><path d="m281.1 247.6v93h1.8v-93.5z" fill="none"/><path d="m418.1 300.6v40h14.8v-40z" fill="none"/><path d="m402.3 300.6h-40.5v40h45.2v-35.2a5.3 5.3 0 0 1 -4.7-4.8z" fill="none"/><path d="m734.4 184.4h-45.7v4h-7v152.2h59.2v-149.4a7.5 7.5 0 0 1 -6.5-6.8z" fill="none"/><path d="m762.9 101.9v82.5h-13.5a7.4 7.4 0 0 1 -6.7 6.8v149.4h38.7v-238.7z" fill="none"/><path d="m275.4 242.9h-36.6v97.7h41.4v-93a5.3 5.3 0 0 1 -4.8-4.7z" fill="none"/><path d="m639.2 188.4v152.2h41.2v-152.2z" fill="none"/><path d="m629.2 188.4v152.2h8.6v-152.2z" fill="none"/><path d="m562 170.2h-21.9v29.4h10.1a5.3 5.3 0 0 1 5.2-4.7 5.2 5.2 0 0 1 5.2 5.2 5.2 5.2 0 0 1 -4.7 5.2v135.3h13v-163.5a7.7 7.7 0 0 1 -6.9-6.9z" fill="none"/><path d="m1288.2 231.6h-2.1v36h-64.1a7.7 7.7 0 0 1 -6.6 6.8v66.2h81.9v-99.9a10.1 10.1 0 0 1 -9.1-9.1z" fill="none"/><path d="m577 170.2a7.6 7.6 0 0 1 -6.8 6.9v163.5h29.1v-170.4z" fill="none"/><path d="m1369.3 231.6h-20.3v109h29.4v-99.9a10 10 0 0 1 -9.1-9.1z" fill="none"/><path d="m1308.2 231.6a10 10 0 0 1 -9.1 9.1v99.9h48.5v-109z" fill="none"/><path d="m445.9 300.6h-11.1v40h15.9v-35.2a5.4 5.4 0 0 1 -4.8-4.8z" fill="none"/><path d="m550.2 200.6h-10.1v140h14.8v-135.3a5.1 5.1 0 0 1 -4.7-4.7z" fill="none"/><path d="m531.9 200.6v140h6.4v-140z" fill="none"/><path d="m456.3 300.6a5.3 5.3 0 0 1 -4.7 4.8v35.2h32.1v-40z" fill="none"/><path d="m488.2 300.6h-3.2v40h7.9v-35.2a5.3 5.3 0 0 1 -4.7-4.8z" fill="none"/><path d="m529.7 200.6v34.5h-13.3v105.5h14.6v-140z" fill="none"/><path d="m485 235.1v64.6h3.2a5.2 5.2 0 1 1 5.7 5.7v35.2h21.6v-105.5z" fill="none"/><path d="m412.6 300.6a5.3 5.3 0 0 1 -4.7 4.8v35.2h8.9v-40z" fill="none"/><path d="m1692.9 300.6a5.3 5.3 0 0 1 -4.7 4.8v35.2h32.6v-40z" fill="none"/><path d="m1810.8 243.2v20.8h-9.6v76.6h22.8v-97.4z" fill="none"/><path d="m1640.3 300.2a5.2 5.2 0 0 1 10.4-.5h3.1v-64.6h-30.4v105.5h21.6v-35.2a5.3 5.3 0 0 1 -4.7-5.2z" fill="none"/><path d="m1650.7 300.6a5.4 5.4 0 0 1 -4.7 4.8v35.2h7.8v-40z" fill="none"/><path d="m1682.6 300.6h-27.4v40h32.1v-35.2a5.3 5.3 0 0 1 -4.7-4.8z" fill="none"/><path d="m1726.3 300.6h-4.2v40h8.9v-35.2a5.3 5.3 0 0 1 -4.7-4.8z" fill="none"/><path d="m1863.5 242.9a5.4 5.4 0 0 1 -4.8 4.7v93h41.4v-97.7z" fill="none"/><path d="m1856 247.1v93.5h1.8v-93z" fill="none"/><path d="m1853.1 243.2h-28.2v97.4h29.7v-94.5a4.8 4.8 0 0 1 -1.5-2.9z" fill="none"/><path d="m1786 264a5.3 5.3 0 0 1 -4.8 4.7v31.9h-44.6a5.3 5.3 0 0 1 -4.7 4.8v35.2h68v-76.6z" fill="none"/><path d="m1578.3 200.1a5.2 5.2 0 0 1 5.2-5.2 5.3 5.3 0 0 1 5.2 4.7h18.3v-29.4h-30.1a7.8 7.8 0 0 1 -6.9 6.9v163.5h13v-135.3a5.2 5.2 0 0 1 -4.7-5.2z" fill="none"/><path d="m1561.9 170.2h-22.3v170.4h29.1v-163.5a7.6 7.6 0 0 1 -6.8-6.9z" fill="none"/><path d="m1588.7 200.6a5.2 5.2 0 0 1 -4.7 4.7v135.3h23v-140z" fill="none"/><path d="m1609.2 235.1v-34.5h-1.3v140h14.6v-105.5z" fill="none"/><path d="m832.7 213.5v-100.2a7.1 7.1 0 0 1 -3.6.9 7.6 7.6 0 0 1 -7.5-6.8h-10.1v106.1z" fill="none"/><path d="m901.4 35.3v-35.3h-47.3v35.3z" fill="none"/><path d="m907.4 35.3a10 10 0 0 1 9.1-9.1v-26.2h-13.7v35.3z" fill="none"/><path d="m833.6 26.2a9.9 9.9 0 0 1 10 9.1h9.2v-35.3h-23v26.9a9.9 9.9 0 0 1 3.8-.7z" fill="none"/><path d="m821.6 106a7.5 7.5 0 0 1 6.8-6.8v-54.4a10.1 10.1 0 0 1 0-17.2v-27.6h-16.9v106z" fill="none"/><path d="m927.4 36.2a10 10 0 0 1 -20 .9h-4.6v82h58.6a10 10 0 0 1 9.1-9.1v-25h-14.2a7.6 7.6 0 0 1 -15.1-.6 7.4 7.4 0 0 1 6.9-7.5v-76.9h-29.8v26.2a10.1 10.1 0 0 1 9.1 10z" fill="none"/><path d="m1097.6 17.3a10.1 10.1 0 0 1 -10.1 10 9.9 9.9 0 0 1 -9.9-9.1h-13.5v14.8h31.3a7.4 7.4 0 0 1 7.5-6.9l1.4.2v-26.3h-15.9v7.3a10.1 10.1 0 0 1 9.2 10z" fill="none"/><path d="m1110.4 33h8.7v-33h-13.5v26.7a7.6 7.6 0 0 1 4.8 6.3z" fill="none"/><path d="m1064.1 123.6v36h15.8v-36z" fill="none"/><path d="m1077.6 16.4a9.9 9.9 0 0 1 9-9.1v-7.3h-22.5v16.4z" fill="none"/><path d="m1035.3 26.2v-9.8h27v-16.4h-27.7v26.3z" fill="none"/><path d="m1041.4 85a7.4 7.4 0 0 1 -4.3 6.2v31h20.5v-37.2z" fill="none"/><path d="m1033.3 123.6h-24.3a7.5 7.5 0 0 1 -6.8 6.8v135.8h33.1v-142.6z" fill="none"/><path d="m1144.6 33 1.6-2.7 3.2-5.7 1.3 2.1a5.6 5.6 0 0 1 2.3-.5v-3.2h-10.1l3.3-5.7 3.2-5.6 3.3 5.6.3.4v-7.7h-10.1l3.3-5.6 2.5-4.4h-27.8v33z" fill="none"/><path d="m852.8 206.7v-169.6h-9.2a10 10 0 0 1 -9.1 9.1v55.3a7.2 7.2 0 0 1 2.1 5.2 7.6 7.6 0 0 1 -2.1 5.2v101.6h11.4a7.6 7.6 0 0 1 6.9-6.8z" fill="none"/><path d="m1079.9 85h-15.8v37.2h15.8z" fill="none"/><path d="m1059 85v37.2h3.3v-37.2z" fill="none"/><path d="m994 122.9a6.4 6.4 0 0 1 .3-2h-12.9a10 10 0 0 1 -9.1 9v30.9h7.5a7.5 7.5 0 0 1 15 .6 7.4 7.4 0 0 1 -6.8 7.5v90.5a7.5 7.5 0 0 1 6.8 6.8h6.1v-135.8a7.5 7.5 0 0 1 -6.9-7.5z" fill="none"/><path d="m923.7 259.4v-44.5h-32.4v51.3h25.6a7.5 7.5 0 0 1 6.8-6.8z" fill="none"/><path d="m860.9 214.9a7.5 7.5 0 0 1 -6.8 6.8v44.5h35.4v-51.3z" fill="none"/><path d="m986.6 259.4v-90.5a7.5 7.5 0 0 1 -6.8-6.8h-7.5v104.1h7.5a7.5 7.5 0 0 1 6.8-6.8z" fill="none"/><path d="m909.6 162.1a7.5 7.5 0 1 1 -8.2-8.2v-33h-10.1v92.6h33.8v45.9a7.5 7.5 0 0 1 6.8 6.8h38.6v-104.1zm34.4 33.7 13.5-7.9v6.8l-13.5 8zm0 12.4 13.5-7.9v6.8l-13.5 7.9zm0 12.4 13.5-7.9v6.8l-13.5 7.9zm13.5 23.7-13.5 7.9v-6.9l13.5-7.9zm0-12.4-13.5 7.9v-6.9l13.5-7.9zm0-49.5-13.5 7.9v-6.9l13.5-7.9z" fill="none"/><path d="m956.3 83.7h14.2v-83.7h-21.1v76.9a7.6 7.6 0 0 1 6.9 6.8z" fill="none"/><path d="m1129.9 159.6h6.8v-29.2a7.5 7.5 0 0 1 -6.8-6.8h-9v26.9a9.9 9.9 0 0 1 9 9.1z" fill="none"/><path d="m1129.9 122.2a7.5 7.5 0 0 1 15 .7 7.5 7.5 0 0 1 -6.9 7.5v29.2h6.3a7.5 7.5 0 0 1 14.6 0h56.5v1.2h13.9a7.6 7.6 0 0 1 6.8-6.9v-62.8h-41.3a10.1 10.1 0 0 1 -20.1-.9 10.5 10.5 0 0 1 1.5-5.2h-55.3v37.2z" fill="none"/><path d="m1129.9 161.4a10 10 0 0 1 -9 9.1v59.3h15.8v-68.4z" fill="none"/><path d="m1105.6 91.9v30.3h13.5v-37.2h-6.6a7.7 7.7 0 0 1 -6.9 6.9z" fill="none"/><path d="m1144.1 161.4h-6.1v68.4h12.9v-60.9a7.4 7.4 0 0 1 -6.8-7.5z" fill="none"/><path d="m1103.6 91.8v30.4h.7v-30.3z" fill="none"/><path d="m1081.2 83.7h16.3a7.3 7.3 0 0 1 4.7-6.3v-36.2a7.6 7.6 0 0 1 -6.8-6.9h-31.3v49.4z" fill="none"/><path d="m1105.6 40.7v36.2a7.6 7.6 0 0 1 6.9 6.8h6.6v-49.4h-8.7a7.9 7.9 0 0 1 -4.8 6.4z" fill="none"/><path d="m1097.5 85h-16.3v37.2h21v-30.8a7.4 7.4 0 0 1 -4.7-6.4z" fill="none"/><path d="m1213.6 220.7v-58.6h-54.5a7.5 7.5 0 0 1 -6.8 6.8v60.9h52.2a10.1 10.1 0 0 1 9.1-9.1z" fill="none"/><path d="m1153 4.8v-4.8h-2.8l2.5 4.4z" fill="none"/><path d="m1436.9 38v-38h-13.5v38z" fill="none"/><path d="m1104.3 76.9v-35.8h-.7v35.9z" fill="none"/><path d="m1384.2 32.3a7.6 7.6 0 0 1 -3.5 5.7h15.6v-5.7z" fill="none"/><path d="m1156 10h-1.7v10.1l1.7 2.9h-1.7v3.2a7.5 7.5 0 0 1 -.7 15 7.6 7.6 0 0 1 -7.2-5.3h-3.5l.9-1.6h-22.9v49.4h56.3a9.7 9.7 0 0 1 6.6-3.4h.1v-80.3h-29.6v7.1z" fill="none"/><path d="m1197.7 84.4a7.6 7.6 0 0 1 -1.9 4.9h40.3v-89.3h-45.3v76.9a7.5 7.5 0 0 1 6.9 7.5z" fill="none"/><path d="m1292.9 213.5h4.4v-113.3a10 10 0 0 1 -9.1-9.1h-2.1v115.6a7.5 7.5 0 0 1 6.8 6.8z" fill="none"/><path d="m1244.3 161.4a7.6 7.6 0 0 1 -7.5 7.6 7.4 7.4 0 0 1 -7.5-6.9h-13.9v51.4h62.5a7.6 7.6 0 0 1 6.9-6.8v-115.6h-47.4v62.8a7.6 7.6 0 0 1 6.9 7.5zm16.6-64.4 2.4-4.3 2.4 4.3 2.5 4.2h-9.8zm0 9.7 2.4-4.2 2.4 4.2 2.5 4.2h-9.8zm0 9.7 2.4-4.2 2.4 4.2 2.5 4.3h-9.8z" fill="none"/><path d="m1028.5 33a7.6 7.6 0 0 1 4.8-6.3v-26.7h-34v33z" fill="none"/><path d="m860.9 213.5h28.6v-94.4h11.9v-82h-47.3v169.6a7.5 7.5 0 0 1 6.8 6.8zm12.2-116.5 2.5-4.3 2.4 4.3 2.5 4.2h-9.8zm0 9.7 2.5-4.2 2.4 4.2 2.5 4.2h-9.8zm0 9.7 2.5-4.2 2.4 4.2 2.5 4.3h-9.8z" fill="none"/><path d="m997.5 83.7v-49.4h-4.7a7.6 7.6 0 0 1 -15.1-.6 7.4 7.4 0 0 1 6.9-7.5v-26.2h-12.3v83.7z" fill="none"/><path d="m1384.2 31h13.5v7h23.9v-38h-44.2v24.1a7.6 7.6 0 0 1 6.8 6.9z" fill="none"/><path d="m1748.4 20.8a7.5 7.5 0 0 1 6.8-6.8v-14h-40.2v20.8z" fill="none"/><path d="m1763.4 20.8h16.9v-17a5.1 5.1 0 0 1 -4.5-3.8h-19.2v14a7.5 7.5 0 0 1 6.8 6.8z" fill="none"/><path d="m1081.2 123.6v36h21v-36z" fill="none"/><path d="m346.4 36.6a5.1 5.1 0 0 1 -4.7 5.2v141.8a5.3 5.3 0 0 1 -.5 10.5 5.4 5.4 0 0 1 -2.2-.5v41.5a7.5 7.5 0 0 1 6.8 6.8h11.9v-219.7h-11.9a7.5 7.5 0 0 1 -6.8 6.8v2.9a5.4 5.4 0 0 1 2.2-.5 5.2 5.2 0 0 1 5.2 5.2z" fill="none"/><path d="m358.6 268.7v31h1.4v-31.3a3.2 3.2 0 0 1 -1.4.3z" fill="none"/><path d="m432.9 188.3v-14.5h-3.4a5.1 5.1 0 0 1 -5.1 4.8 5.3 5.3 0 0 1 -.5-10.5v-46.5h-5.8v75.8h5.8a9.9 9.9 0 0 1 9-9.1z" fill="none"/><path d="m340.7 41.8a5.3 5.3 0 0 1 -1.7-.4v142.7a5.5 5.5 0 0 1 1.7-.5z" fill="none"/><path d="m495.9 137.6v-137.6h-1.7v137.6z" fill="none"/><path d="m492.4 137.6v-137.6h-8.4v137.6z" fill="none"/><path d="m488.7 172.9h3.7v-34.3h-8.4v29.5a5.2 5.2 0 0 1 4.7 4.8z" fill="none"/><path d="m1609.2 143-1.3.3v25.6h1.3z" fill="none"/><path d="m478.3 172.9a5.4 5.4 0 0 1 4.8-4.8v-29.5h-28.2a5.2 5.2 0 0 1 -5.2 4.7 5.2 5.2 0 0 1 -5.2-5.2 5.3 5.3 0 0 1 4.7-5.2v-11.3h-14.4v51.3z" fill="none"/><path d="m1781.2 3.8v17h11.8a7.6 7.6 0 1 1 8.2 8.2v3.8a5.2 5.2 0 0 1 1.7 3.8 5.6 5.6 0 0 1 -1.7 3.9v144.5a5.8 5.8 0 0 1 1.7 3.4h7v-101.5a5.2 5.2 0 0 1 -4.8-5.2 5.3 5.3 0 0 1 10.5 0 5.2 5.2 0 0 1 -4.8 5.2v101.5h14.1v53.5h18.8v-100a5.2 5.2 0 0 1 -4.7-4.7h-15v-137.2h-38.2a5.4 5.4 0 0 1 -4.6 3.8z" fill="none"/><path d="m1610.6 142.3v26.6h31.1v-30.3h-29.1a5.3 5.3 0 0 1 -2 3.7z" fill="none"/><path d="m392.4 199.2v22.5a5.1 5.1 0 0 1 4.7 4.7h19.7v-27.2z" fill="none"/><path d="m478.3 173.8h-43.5v14.5a9.9 9.9 0 0 1 9 9.1h39.3v-18.9a5.3 5.3 0 0 1 -4.8-4.7z" fill="none"/><path d="m424.8 168.1a5.2 5.2 0 0 1 4.7 4.8h3.4v-51.3h-8.1z" fill="none"/><path d="m1810.8 189.3v52.6h13.2v-52.6z" fill="none"/><path d="m484 199.2v.4h31.5v-25.8h-21.3v25.4z" fill="none"/><path d="m423.9 199.2h-5.8v27.2h14.8v-18.1a9.9 9.9 0 0 1 -9-9.1z" fill="none"/><path d="m484 178.5v18.9h8.4v-23.6h-3.7a5.1 5.1 0 0 1 -4.7 4.7z" fill="none"/><path d="m1215.4 240.7v18.7a7.7 7.7 0 0 1 6.6 6.8h62.8v-34.6h-60.3a10 10 0 0 1 -9.1 9.1z" fill="none"/><path d="m1277.9 214.9h-62.5v5.8a10.1 10.1 0 0 1 9.1 9.1h60.3v-8.1a7.6 7.6 0 0 1 -6.9-6.8z" fill="none"/><path d="m1692.9 227.4a5.2 5.2 0 0 1 -4.7 4.7v62.9a5.1 5.1 0 0 1 4.7 4.7h27.9v-72.3z" fill="none"/><path d="m1317.3 106h10.1v-106h-16.9v99.2a7.5 7.5 0 0 1 6.8 6.8z" fill="none"/><path d="m1288.2 89.3a10.1 10.1 0 0 1 20.1.9 10 10 0 0 1 -9.2 10v113.3h28.3v-106.1h-10.1a7.6 7.6 0 1 1 -8.2-8.2v-99.2h-23v89.3z" fill="none"/><path d="m1299.1 214.9v5.8a10 10 0 0 1 9.1 9.1h39.4v-122.4h-18.9v107.5z" fill="none"/><path d="m1119.1 150.5v-26.9h-15.5v36h6.4a10 10 0 0 1 9.1-9.1z" fill="none"/><path d="m1119.1 231.6v-61.1a10 10 0 0 1 -9.1-9.1h-6.4v104.8h33.1v-34.6z" fill="none"/><path d="m1213.6 259.4v-18.7a10 10 0 0 1 -9.1-9.1h-52.2v27.8a7.5 7.5 0 0 1 6.8 6.8h47.9a7.6 7.6 0 0 1 6.6-6.8z" fill="none"/><path d="m1150.9 259.4v-27.8h-12.9v34.6h6.1a7.5 7.5 0 0 1 6.8-6.8z" fill="none"/><path d="m1297.3 220.7v-5.8h-4.4a7.5 7.5 0 0 1 -6.8 6.8v8.1h2.1a10.2 10.2 0 0 1 9.1-9.1z" fill="none"/><path d="m1438.2 113.4a7.5 7.5 0 0 1 6.8 6.8h6.3v-80.4h-13.1z" fill="none"/><path d="m1437.5 128.4a7.6 7.6 0 0 1 -7.5-7.5 7.4 7.4 0 0 1 6.9-7.5v-73.6h-13.5v143.3h27.9v-61.5h-6.3a7.4 7.4 0 0 1 -7.5 6.8z" fill="none"/><path d="m1451.3 38v-38h-13.1v38z" fill="none"/><path d="m407 295v-31h-43.7a4.6 4.6 0 0 1 -1.5 3.2v32.5h40.5a5.1 5.1 0 0 1 4.7-4.7z" fill="none"/><path d="m1359.5 31v-31h-10.5v31z" fill="none"/><path d="m1802.9 189.3a6.1 6.1 0 0 1 -1.7 3.4v42.4a7.5 7.5 0 0 1 6.8 6.8h1.9v-52.6z" fill="none"/><path d="m1369.2 32.3h-7.9v5.7h11.4a7.6 7.6 0 0 1 -3.5-5.7z" fill="none"/><path d="m1397.7 39.8v136.5a7.5 7.5 0 0 1 6.8 6.8h17.1v-143.3z" fill="none"/><path d="m1369.2 31a7.6 7.6 0 0 1 6.8-6.9v-24.1h-14.7v31z" fill="none"/><path d="m1396.3 176.3v-136.5h-18.9v143.3h12.1a7.5 7.5 0 0 1 6.8-6.8z" fill="none"/><path d="m700.7 113.4v-11.5h-12v18.3h5.2a7.5 7.5 0 0 1 6.8-6.8z" fill="none"/><path d="m531.3 51.8 1.7 3 1.7 2.9h-5v3.6l1.6-2.7 1.7 2.9 1.7 3h-5v3.6l1.6-2.8 1.7 3 1.7 2.9h-5v62a4.7 4.7 0 0 1 1.7-.3 5.2 5.2 0 0 1 .5 10.4v25.6h6.4v-133.6h30.6v-28.6a7.6 7.6 0 0 1 -6.9-6.7h-32.3v54.6z" fill="none"/><path d="m570.2 6.7v28.6h23.8a10.1 10.1 0 0 1 9.1-9.1v-26.2h-26.1a7.5 7.5 0 0 1 -6.8 6.7z" fill="none"/><path d="m531.9 199.6h6.4v-29.4h-6.4z" fill="none"/><path d="m26 130.1h-20.6a5.1 5.1 0 0 1 -4.7 4.7v143.3a5.1 5.1 0 0 1 4.7 4.7h25.3v-148a5.1 5.1 0 0 1 -4.7-4.7z" fill="none"/><path d="m540.1 168.9h21.9a7.6 7.6 0 0 1 6.9-6.8v-125h-28.8zm28.1-33.4h-5.7v-2.3h5.7zm-5.7-20.4h5.7v2.4h-5.7zm5.7 4.5v2.4h-5.7v-2.4zm0 4.5v2.4h-5.7v-2.4zm-5.7 4.6h5.7v2.3h-5.7zm0 9h5.7v2.3h-5.7zm0 4.5h5.7v2.3h-5.7zm0 4.5h5.7v2.3h-5.7zm5.7 4.5v2.3h-5.7v-2.3z" fill="none"/><path d="m314.9 189.3v52.6h13.2v-52.6z" fill="none"/><path d="m132.2 232.1v-176.2a5.2 5.2 0 0 1 .5-10.4 5.2 5.2 0 0 1 5.2 5.2 5.2 5.2 0 0 1 -4.8 5.2v176.2h22.6a5.2 5.2 0 0 1 4.7-4.8v-108a5.2 5.2 0 0 1 -4.8-5.2 5.2 5.2 0 0 1 5.2-5.2 5.2 5.2 0 0 1 5.2 4.8h31.9a5.4 5.4 0 0 1 4.8-4.8v-108.9h-46.3v1.6l-2.6-1.6h-43.2v232.1zm40.5-175.5 1.7-3 1.7 3 1.7 2.9h-6.8zm0 6.7 1.7-2.9 1.7 2.9 1.7 3h-6.8zm0 6.8 1.7-3 1.7 3 1.7 2.9h-6.8zm-21.1-69.4 4.8 2.9v2.4l-4.8-2.8z" fill="none"/><path d="m1687.3 295v-62.9a5.2 5.2 0 0 1 .5-10.4 5 5 0 0 1 5.1 4.7h27.9v-104.8h-5.8v46.5a5.3 5.3 0 1 1 -5.7 5.7h-48.8a5.1 5.1 0 0 1 -4.7 4.7v22.1h-32.4v33.2h31.8v65.9h27.4a5.1 5.1 0 0 1 4.7-4.7z" fill="none"/><path d="m1612.6 137.6h29.1v-137.6h-31.1v133.9a5.3 5.3 0 0 1 2 3.7zm13.9-82.8 1.7-3 1.7 3 1.6 2.9h-6.8zm0 6.7 1.7-2.9 1.7 2.9 1.6 3h-6.8zm0 6.8 1.7-3 1.7 3 1.6 2.9h-6.8z" fill="none"/><path d="m360 243.2h-1.4v15.1l1.4.4z" fill="none"/><path d="m337.7 235.1v-42.4a5.1 5.1 0 0 1 -1.7-3.4h-7v52.6h1.9a7.5 7.5 0 0 1 6.8-6.8z" fill="none"/><path d="m361.8 241.9h20.5v-42.7h-20.5z" fill="none"/><path d="m1570 6.7v155.4a7.6 7.6 0 0 1 6.9 6.8h30.1v-25.6a5.3 5.3 0 0 1 -4.8-5.2 5.2 5.2 0 0 1 5.2-5.2 4.8 4.8 0 0 1 1.8.3v-133.2h-32.4a7.4 7.4 0 0 1 -6.8 6.7zm21.2 81.1h5.7v2.3h-5.7zm0 4.5h5.7v2.3h-5.7zm0 4.5h5.7v2.3h-5.7zm0 4.5h5.7v2.3h-5.7zm0 4.5h5.7v2.4h-5.7zm0 4.5h5.7v2.4h-5.7zm0 4.5h5.7v2.4h-5.7zm0 4.5h5.7v2.4h-5.7zm0 4.5h5.7v2.4h-5.7zm-9.3-46.2 2-3.6 2 3.6 2.1 3.5h-3.1v48.3h-2v-48.3h-3z" fill="none"/><path d="m1731 295v-31.9h44.6a5.2 5.2 0 0 1 4.7-4.8v-15.1h-25.1v-214.2a7.5 7.5 0 0 1 -6.8-6.8h-33.4v98h7.1v106.2h19.7a5.1 5.1 0 0 1 4.7-4.7v-185.5a5.3 5.3 0 0 1 -4.8-5.2 5.3 5.3 0 0 1 10.5 0 5.3 5.3 0 0 1 -4.8 5.2v185.5a5.2 5.2 0 0 1 -.5 10.4 5.1 5.1 0 0 1 -5.1-4.7h-19.7v72.3h4.2a5.1 5.1 0 0 1 4.7-4.7zm-1.2-207.5 4.8-2.9v2.5l-4.8 2.8zm0 4.4 4.8-2.8v2.4l-4.8 2.9zm0 4.5 4.8-2.9v2.5l-4.8 2.9zm4.8 8.6-4.8 2.8v-2.4l4.8-2.9zm0-4.5-4.8 2.9v-2.5l4.8-2.9zm0-17.9-4.8 2.9v-2.5l4.8-2.9z" fill="none"/><path d="m299.9 137.2a5.2 5.2 0 0 1 -4.7 4.7v100h18.8v-53.5h14.1v-101.5a5.2 5.2 0 0 1 .4-10.4 5.2 5.2 0 0 1 5.3 5.2 5.2 5.2 0 0 1 -4.8 5.2v101.5h7a4.9 4.9 0 0 1 1.7-3.4v-144.5a5.2 5.2 0 0 1 -1.7-3.9 4.9 4.9 0 0 1 1.7-3.8v-3.8a7.6 7.6 0 0 1 -6.9-7.5 7.5 7.5 0 0 1 7.6-7.5 7.4 7.4 0 0 1 7.4 6.8h11.9v-17a5.4 5.4 0 0 1 -4.6-3.8h-38.2v137.2z" fill="none"/><path d="m529.7 170.2v29.4h1.3v-29.4z" fill="none"/><path d="m1610.6 200.6v33.2h11.9v-33.2z" fill="none"/><path d="m383.6 29v168.4h7.9v-161.2a5.3 5.3 0 0 1 -4.8-5.2 5.3 5.3 0 0 1 10.5 0 5.3 5.3 0 0 1 -4.8 5.2v161.2h24.4v-77.2h7.1v-98h-33.4a7.6 7.6 0 0 1 -6.9 6.8zm25.5 78.8-4.8-2.8v-2.5l4.8 2.9zm0-8.9-4.8-2.9v-2.5l4.8 2.9zm0-4.5-4.8-2.9v-2.4l4.8 2.8zm-4.8-7.3v-2.5l4.8 2.9v2.4zm4.8-4.1v2.5l-4.8-2.9v-2.5zm-4.8 15 4.8 2.9v2.5l-4.8-2.9z" fill="none"/><path d="m495.9 170.2v-31.6h-1.7v34.3h22.2v26.7h11.9v-29.4z" fill="none"/><path d="m1756.6 29v212.9h23.7v-219.7h-16.9a7.5 7.5 0 0 1 -6.8 6.8zm7.1 153.1 1.7-3 1.7 3 1.7 2.9h-6.8zm0 6.7 1.7-2.9 1.7 2.9 1.7 3h-6.8zm0 6.8 1.7-2.9 1.7 2.9 1.7 2.9h-6.8z" fill="none"/><path d="m428.2 20.8a7.5 7.5 0 0 1 4.7-6.3v-14.5h-8.1v20.8z" fill="none"/><path d="m458.6 120.2a7.5 7.5 0 0 1 6.8-6.8v-113.4h-15.2v120.2z" fill="none"/><path d="m473.6 120.9a7.5 7.5 0 0 1 -7.5 7.5 7.6 7.6 0 0 1 -7.5-6.8h-8.4v11.3a5.1 5.1 0 0 1 4.7 4.7h28.2v-137.6h-16.3v113.4a7.4 7.4 0 0 1 6.8 7.5z" fill="none"/><path d="m516.4 233.8h11.9v-33.2h-11.9z" fill="none"/><path d="m360 241.9v-44.5h10.8l1-1.8 1.7-2.9 1.7 2.9 1.1 1.8h6v-168.4a7.5 7.5 0 0 1 -6.8-6.8h-16.9v219.7zm11.8-59.8 1.7-3 1.7 3 1.7 2.9h-6.8zm0 6.7 1.7-2.9 1.7 2.9 1.7 3h-6.8z" fill="none"/><path d="m1775.6 264h-43.7v31a5.1 5.1 0 0 1 4.7 4.7h43.7v-31a5.1 5.1 0 0 1 -4.7-4.7z" fill="none"/><path d="m1660.5 172.9h48.8a5.4 5.4 0 0 1 4.8-4.8v-46.5h-24.5v11.3a5.3 5.3 0 0 1 4.8 5.2 5.2 5.2 0 0 1 -10.4.5h-28.2v29.5a5.2 5.2 0 0 1 4.7 4.8z" fill="none"/><path d="m285.8 241.9h8.4v-100a5.3 5.3 0 0 1 -4.7-4.7h-8.4v100a5.1 5.1 0 0 1 4.7 4.7z" fill="none"/><path d="m1650.2 173.8h-26.8v25.8h31.5v-21.1a5.1 5.1 0 0 1 -4.7-4.7z" fill="none"/><path d="m1793 241.9a7.6 7.6 0 0 1 6.9-6.8v-41.5a5.4 5.4 0 0 1 -2.2.5 5.3 5.3 0 0 1 -.5-10.5v-141.8a5.2 5.2 0 0 1 -4.8-5.2 5.2 5.2 0 0 1 5.3-5.2 5.4 5.4 0 0 1 2.2.5v-2.9a7.6 7.6 0 0 1 -6.9-6.8h-11.8v219.7z" fill="none"/><path d="m358.6 3.8v17h16.9a7.5 7.5 0 0 1 6.8-6.8v-14h-19.2a5.1 5.1 0 0 1 -4.5 3.8z" fill="none"/><path d="m1798.1 183.6a5.3 5.3 0 0 1 1.8.5v-142.7a5.3 5.3 0 0 1 -1.8.4z" fill="none"/><path d="m1654.9 137.6v-137.6h-11.9v137.6z" fill="none"/><path d="m1680.3 120.2h8.4v-120.2h-15.2v113.4a7.5 7.5 0 0 1 6.8 6.8z" fill="none"/><path d="m1684 137.6a5.1 5.1 0 0 1 4.7-4.7v-11.3h-8.4a7.6 7.6 0 1 1 -8.2-8.2v-113.4h-16.3v137.6z" fill="none"/><path d="m390.5 20.8h33.4v-20.8h-40.3v14a7.6 7.6 0 0 1 6.9 6.8z" fill="none"/><path d="m1037.1 41.1v36.4a7.6 7.6 0 0 1 4.3 6.2h20.9v-49.4h-18.8a7.5 7.5 0 0 1 -6.4 6.8z" fill="none"/><path d="m1844.6 141.9v100h8.5a5.1 5.1 0 0 1 4.7-4.7v-100h-8.4a5.3 5.3 0 0 1 -4.8 4.7z" fill="none"/><path d="m1714.1 120.2v-98h-3.4a7.5 7.5 0 0 1 -7.5 6.8 7.4 7.4 0 0 1 -7.5-7.5 7.5 7.5 0 0 1 6.8-7.5v-14h-12.9v120.2zm-17.7-58 6.9-4.1v3.6l-6.9 4.1zm0 6.4 6.9-4.1v3.6l-6.9 4.1zm0 6.5 6.9-4.1v3.5l-6.9 4.1zm0 6.4 6.9-4.1v3.6l-6.9 4.1zm0 6.5 6.9-4.2v3.6l-6.9 4.1zm0 6.4 6.9-4.1v3.5l-6.9 4.2z" fill="none"/><path d="m680.4 183.1h6.5v-61.5h-40.9a7.5 7.5 0 0 1 -6.8 6.8v58.2h41.2z" fill="none"/><path d="m754.7 32.3h-12v58.8a10 10 0 0 1 9.1 9h9.7v-61a7.5 7.5 0 0 1 -6.8-6.8z" fill="none"/><path d="m1189.5 76.9v-76.9h-3.8v78.3a7 7 0 0 1 3.8-1.4z" fill="none"/><path d="m832.7 46.2a9.5 9.5 0 0 1 -2.9-.7v53.7a7.5 7.5 0 0 1 2.9.9z" fill="none"/><path d="m769.7 31h20.2v-31h-27v24.1a7.6 7.6 0 0 1 6.8 6.9z" fill="none"/><path d="m700.7 100.1v-100.1h-12v100.1z" fill="none"/><path d="m330.9 243.2h-1.9v19.9h8.7v-13a7.6 7.6 0 0 1 -6.8-6.9z" fill="none"/><path d="m742.7 111v65.3a7.4 7.4 0 0 1 6.7 6.8h12.1v-81.2h-9.7a10 10 0 0 1 -9.1 9.1z" fill="none"/><path d="m734.4 183.1a7.5 7.5 0 0 1 6.5-6.8v-65.3a10 10 0 0 1 -9.1-9.1h-29.8v11.5a7.4 7.4 0 0 1 6.9 7.5 7.6 7.6 0 0 1 -7.5 7.5 7.4 7.4 0 0 1 -7.5-6.8h-5.2v61.5z" fill="none"/><path d="m1043.5 33h18.8v-14.8h-25.2v8a7.5 7.5 0 0 1 6.4 6.8z" fill="none"/><path d="m992.8 33h4.7v-33h-11.6v26.2a7.6 7.6 0 0 1 6.9 6.8z" fill="none"/><path d="m1001.5 115.4a7.4 7.4 0 0 1 7.5 6.8h24.3v-30.3a7.7 7.7 0 0 1 -6.9-6.9h-27.1v30.7a8.3 8.3 0 0 1 2.2-.3z" fill="none"/><path d="m731.8 100.1a9.9 9.9 0 0 1 9.1-9v-91.1h-38.9v100.1z" fill="none"/><path d="m1284.8 89.3v-89.3h-47.4v89.3z" fill="none"/><path d="m1034.6 122.2h.7v-30.4h-.7z" fill="none"/><path d="m981.4 119.1h13.7a7.5 7.5 0 0 1 2.4-2.6v-31.5h-25.2v25a10 10 0 0 1 9.1 9.1z" fill="none"/><path d="m1033.3 76.9v-36.2a7.9 7.9 0 0 1 -4.8-6.4h-29.2v49.4h27.1a7.6 7.6 0 0 1 6.9-6.8z" fill="none"/><path d="m909.6 160.8h60.9v-30.9a9.9 9.9 0 0 1 -9.1-9h-58.6v33a7.6 7.6 0 0 1 6.8 6.9z" fill="none"/><path d="m1035.3 77v-35.8h-.7v35.7z" fill="none"/><path d="m432.9 120.2v-23.9l-4.2-2.5v-3.5l4.2 2.5v-2.9l-4.2-2.5v-3.6l4.2 2.5v-2.8l-4.2-2.5v-3.6l4.2 2.5v-2.9l-4.2-2.5v-3.5l4.2 2.5v-2.9l-4.2-2.5v-3.6l4.2 2.5v-2.8l-4.2-2.5v-3.6l4.2 2.5v-32.1a7.5 7.5 0 0 1 -4.7-6.3h-3.4v98z" fill="none"/><path d="m483.1 200.6v-1.4h-39.3a9.9 9.9 0 0 1 -9 9.1v18.1h11.1a5.3 5.3 0 0 1 10.5.5 5.3 5.3 0 0 1 -4.8 5.2v62.9a5.1 5.1 0 0 1 4.7 4.7h27.4v-65.9h31.8v-33.2z" fill="none"/><path d="m526.3 137.6a5.3 5.3 0 0 1 2-3.7v-62.7h-.4l.4-.7v-6h-.4l.4-.8v-6h-.4l.4-.8v-56.9h-31.1v137.6z" fill="none"/><path d="m1622.5 172.9h27.7a5.2 5.2 0 0 1 4.7-4.8v-29.5h-11.9v31.6h-32.4v29.4h11.9z" fill="none"/><path d="m1710.7 20.8h3.4v-20.8h-10.2v14a7.5 7.5 0 0 1 6.8 6.8z" fill="none"/><path d="m1793 243.2h-11.8v15.1a5.4 5.4 0 0 1 4.8 4.8h13.9v-13a7.7 7.7 0 0 1 -6.9-6.9z" fill="none"/><path d="m1801.2 250.1v13h8.7v-19.9h-1.9a7.6 7.6 0 0 1 -6.8 6.9z" fill="none"/><path d="m357.7 258.3v-15.1h-11.9a7.6 7.6 0 0 1 -6.8 6.9v13h13.9a5.3 5.3 0 0 1 4.8-4.8z" fill="none"/><path d="m1607.9 170.2v29.4h1.3v-29.4z" fill="none"/><path d="m435 14v-14h-.2v14z" fill="none"/><path d="m686.9 100.1v-100.1h-41.5v100.1zm-20.6-51.1 2.4-4.2 2.5 4.2 2.4 4.3h-9.8zm0 9.8 2.4-4.3 2.5 4.3 2.4 4.2h-9.8zm0 9.7 2.4-4.2 2.5 4.2 2.4 4.2h-9.8z" fill="none"/><path d="m681.7 186.6h5.2v-2.2h-5.2z" fill="none"/><path d="m1488.1 39.8h-35v80.4h39.8a7.3 7.3 0 0 1 4.3-6.1v-65.2a10.1 10.1 0 0 1 -9.1-9.1zm-18 32.9h-4.9l2.5-4.2 2.4-4.2 2.5 4.2 2.4 4.2zm0-9.7h-4.9l2.5-4.2 2.4-4.3 2.5 4.3 2.4 4.2zm0-9.7h-4.9l2.5-4.3 2.4-4.2 2.5 4.2 2.4 4.3z" fill="none"/><path d="m754.7 31a7.6 7.6 0 0 1 6.8-6.9v-24.1h-18.8v31z" fill="none"/><path d="m528.3 168.9v-26.6a5.3 5.3 0 0 1 -2-3.7h-29.1v30.3z" fill="none"/><path d="m443.2 21.5a7.4 7.4 0 0 1 -7.5 7.5h-.9v32.6l.9.6v3.6l-.9-.6v2.9l.9.5v3.6l-.9-.5v2.8l.9.6v3.5l-.9-.5v2.9l.9.5v3.6l-.9-.6v2.9l.9.6v3.5l-.9-.5v2.8l.9.6v3.6l-.9-.6v22.8h14.4v-120.2h-12.8v14a7.5 7.5 0 0 1 6.8 7.5z" fill="none"/><path d="m397.1 227.4a5.1 5.1 0 0 1 -5.2 4.7 5.2 5.2 0 0 1 -.4-10.4v-22.5h-7.9v44h-21.8v16.6a5.1 5.1 0 0 1 1.5 3.3h44.6v31.9a5.1 5.1 0 0 1 4.7 4.7h4.2v-72.3z" fill="none"/><path d="m418.1 227.4v72.3h14.8v-72.3z" fill="none"/><path d="m450.7 295v-62.9a5.3 5.3 0 0 1 -4.8-4.7h-11.1v72.3h11.1a5.2 5.2 0 0 1 4.8-4.7z" fill="none"/><path d="m529.7 168.9h1.3v-25.6l-1.3-.3z" fill="none"/><g fill="#fff"><path d="m529.7 199.6v1h1.3v-1z"/><path d="m484 199.6v-.4h-.9v1.4h32.4v-1z"/><path d="m531.9 199.6v1h6.4v-1z"/><path d="m484 137.6v-137.6h-.9v137.6z"/><path d="m483.5 168.1h.5v-29.5h-.9v29.5z"/><path d="m516.4 200.6h11.9v-1h-11.9z"/><path d="m483.5 178.6h-.4v18.9h.9v-19z"/><path d="m555.4 205.3h-.5v135.3h1v-135.3z"/><path d="m550.2 200.6v-1h-10.1v1z"/><path d="m449.2 132.9h1v-11.3h-1z"/><path d="m450.2 120.2v-120.2h-1v120.2z"/><path d="m492.4 138.6v-1h-8.4v1z"/><path d="m495.9 138.6v-1h-1.7v1z"/><path d="m531 170.2v29.4h.9v-29.4z"/><path d="m454.9 138.6h28.2v-1h-28.2z"/><path d="m531 143.3v25.6h.9v-25.6z"/><path d="m526.3 138.6a1.3 1.3 0 0 1 0-1h-29.1v1z"/><path d="m531 200.6v140h.9v-140z"/><path d="m484 138.6v-1h-.9v1z"/><path d="m531 199.6v1h.9v-1z"/><path d="m133.1 278.1v-45.1h-.9v44.1h-31v63.5h.9v-62.5z"/><path d="m132.7 56h-.5v176.1h.9v-176.2z"/><path d="m166 233h15.5v107.6h1v-108.5h-16.5v.4c.1.2 0 .3 0 .5z"/><path d="m155.7 232.1h-22.6v.9h22.6a.9.9 0 0 1 -.1-.5.6.6 0 0 1 .1-.4z"/><path d="m110.6 232.1v-232.1h-1v233h22.6v-.9z"/><path d="m133.1 232.1h-.9v.9h.9z"/><path d="m402.3 299.7h-40.5v.9h40.5a.6.6 0 0 1 -.1-.4.9.9 0 0 1 .1-.5z"/><path d="m357.7 243.2v15.1h.9v-15.1z"/><path d="m412.6 299.7c0 .2.1.3.1.5s-.1.3-.1.4h4.2v-.9z"/><path d="m418.1 299.7v.9h14.8v-.9z"/><path d="m358.6 299.7v-31h-.9v31.9h2.3v-.9z"/><path d="m488.2 300.6v-.9h-3.2v.9z"/><path d="m456.3 299.7c0 .2.1.3.1.5s-.1.3-.1.4h27.4v-.9z"/><path d="m358.6 241.9v-219.7h-.9v219.7z"/><path d="m493.4 305.4h-.5v35.2h1v-35.2z"/><path d="m445.9 299.7h-11.1v.9h11.1z"/><path d="m358.6 3.8h-.9v17h.9z"/><path d="m418.1 226.4v1h14.8v-1z"/><path d="m397.1 226.4c0 .2.1.3.1.5a4.3 4.3 0 0 0 -.1.5h19.7v-1z"/><path d="m392.4 221.7v-22.5h-.9v22.5z"/><path d="m445.9 227.4v-1h-11.1v1z"/><path d="m392.4 36.2h-.9v161.2h.9z"/><path d="m450.7 232.1v62.9h.9v-62.9z"/><path d="m451.1 305.4h-.4v35.2h.9v-35.2z"/><path d="m407.4 305.4h-.4v35.2h.9v-35.2z"/><path d="m363.3 264h43.7v31h.9v-31.9h-44.6c0 .1.1.3.1.4s-.1.3-.1.5z"/><path d="m328.1 189.3v52.6h.9v-52.6z"/><path d="m329 263.1v-19.9h-.9v20.8h9.6v-.9z"/><path d="m352.9 263.1h-13.9v.9h13.9z"/><path d="m329 86.9h-.9v101.5h.9z"/><path d="m299.9 137.2h15v-137.2h-.9v136.2h-14.1z"/><path d="m281.1 237.2v-100h8.4v-1h-9.3v101z"/><path d="m280.6 247.6h-.4v93h.9v-93z"/><path d="m5.4 130.1h20.6v-.9h-20.6z"/><path d="m-.3 288.4v52.2h1v-52.2z"/><path d="m.7 278.1v-143.3h-1v143.3z"/><path d="m68.3 124.5v-124.5h-.9v124.5z"/><path d="m62.6 129.6a.6.6 0 0 1 .1-.4h-26.3v.9h26.3a.7.7 0 0 1 -.1-.5z"/><path d="m31.7 124.5v-78.5h-1v78.5z"/><path d="m30.7 134.8v148h-25.3v.9h26.3v-148.9z"/><path d="m294.2 141.9v100h1v-100z"/><path d="m295.2 131.5v-116.5h-1v116.5z"/><path d="m275.4 242.9v-1h-37.5v98.7h.9v-97.7z"/><path d="m314 243.2v97.4h.9v-97.4z"/><path d="m314.9 189.3h13.2v-.9h-14.1v53.5h.9z"/><path d="m341.2 41.9h-.5v141.7h1v-141.8z"/><path d="m336 189.3v-.9h-7v.9z"/><path d="m329 189.3v-.9h-.9v.9z"/><path d="m208.3 203.9v136.7h.9v-136.7z"/><path d="m247.2 198.7a.9.9 0 0 1 .1-.5h-33.4a1.3 1.3 0 0 1 0 1h33.4a.9.9 0 0 1 -.1-.5z"/><path d="m252.9 193.5v-119.3h-.9v119.3z"/><path d="m160.8 237.8h-.4v102.8h.9v-102.9z"/><path d="m160.4 119.3v108h.9v-108z"/><path d="m203.1 108.9h.5v-108.9h-.9v108.9z"/><path d="m197.9 113.7h-31.9v.4c0 .2-.1.3-.1.5h31.9v-.9z"/><path d="m478.3 173.8v-.9h-43.5v.9z"/><path d="m424.8 120.2v-98h-.9v98z"/><path d="m429.5 173.8h3.4v-.9h-3.4a.6.6 0 0 1 .1.4.9.9 0 0 1 -.1.5z"/><path d="m424.8 20.8v-20.8h-.9v20.8z"/><path d="m515.5 200.6v33.2h.9v-33.2z"/><path d="m488.7 173.8h3.7v-.9h-3.7c0 .1.1.3.1.4s-.1.3-.1.5z"/><path d="m423.9 168.1h.9v-46.5h-.9z"/><path d="m515.5 173.8v25.8h.9v-26.7h-22.2v.9z"/><path d="m515.5 235.1v105.5h.9v-105.5z"/><path d="m515.5 200.6h.9v-1h-.9z"/><path d="m83.8 198.2h-29.1v142.4h.9v-141.4h28.2c0-.2-.1-.3-.1-.5s.1-.3.1-.5z"/><path d="m89.5 193.5v-193.5h-1v193.5z"/><path d="m133.1 50.7v5.2a5.2 5.2 0 0 0 4.8-5.2 5.2 5.2 0 0 0 -5.2-5.2 5.2 5.2 0 0 0 -.5 10.4v-5.2z"/><path d="m133.1 55.9v-5.2h-.9v5.2z"/><path d="m31.7 40.9v5.1a5.1 5.1 0 0 0 4.7-5.1 5.2 5.2 0 1 0 -10.4 0 5.1 5.1 0 0 0 4.7 5.1v-5.1z"/><path d="m31.7 46v-5.1h-1v5.1z"/><path d="m89.5 193.5v5.7h-5.7a5.2 5.2 0 0 0 5.2 4.7 5.2 5.2 0 0 0 5.2-5.2 5.3 5.3 0 0 0 -4.7-5.2z"/><path d="m88.5 193.5a5.1 5.1 0 0 0 -4.7 4.7h4.7z"/><path d="m89.5 193.5h-1v4.7h-4.7c0 .2-.1.3-.1.5s.1.3.1.5h5.7z"/><path d="m62.7 130.1a5.1 5.1 0 0 0 5.1 4.8 5.3 5.3 0 0 0 5.3-5.3 5.1 5.1 0 0 0 -4.8-5.1v5.6z"/><path d="m67.4 124.5a5.1 5.1 0 0 0 -4.7 4.7h4.7z"/><path d="m62.7 130.1h5.6v-5.6h-.9v4.7h-4.7a.6.6 0 0 0 -.1.4.7.7 0 0 0 .1.5z"/><path d="m155.7 232.1h4.7v-4.8a5.2 5.2 0 0 0 -4.7 4.8z"/><path d="m166 232.1a5.2 5.2 0 0 0 -4.7-4.8v4.8z"/><path d="m166 233h-4.7v4.7a5.1 5.1 0 0 0 4.7-4.7z"/><path d="m155.7 233a5.1 5.1 0 0 0 4.7 4.7v-4.7z"/><path d="m161.3 233h4.7c0-.2.1-.3.1-.5v-.4h-4.7z"/><path d="m155.6 232.5a.9.9 0 0 0 .1.5h4.7v-.9h-4.7a.6.6 0 0 0 -.1.4z"/><path d="m160.4 227.3v4.8h.9v-4.8z"/><path d="m160.4 237.7h.9v-4.7h-.9z"/><path d="m161.3 233v-.9h-.9v.9z"/><path d="m252 193.5a5.1 5.1 0 0 0 -4.7 4.7h4.7z"/><path d="m247.3 199.2a5.1 5.1 0 0 0 5.1 4.7 5.2 5.2 0 0 0 .5-10.4v5.7z"/><path d="m247.3 199.2h5.6v-5.7h-.9v4.7h-4.7a1.3 1.3 0 0 0 0 1z"/><path d="m337.7 189.3h-1.7a5.1 5.1 0 0 0 1.7 3.4z"/><path d="m337.7 185a4.9 4.9 0 0 0 -1.7 3.4h1.7z"/><path d="m346.4 188.8a5.2 5.2 0 0 0 -4.7-5.2v5.7h-2.7v4.3a5.4 5.4 0 0 0 2.2.5 5.2 5.2 0 0 0 5.2-5.3z"/><path d="m340.7 183.6a5.5 5.5 0 0 0 -1.7.5v4.3h1.7z"/><path d="m336 189.3h1.7v-.9h-1.7z"/><path d="m341.7 189.3v-5.7h-1v4.8h-1.7v.9z"/><path d="m294.2 141.9v-4.7h-4.7a5.3 5.3 0 0 0 4.7 4.7z"/><path d="m299.9 137.2h-4.7v4.7a5.2 5.2 0 0 0 4.7-4.7z"/><path d="m294.2 131.5a5.2 5.2 0 0 0 -4.7 4.7h4.7z"/><path d="m299.9 136.2a5.1 5.1 0 0 0 -4.7-4.7v4.7z"/><path d="m289.5 137.2h4.7v-1h-4.7z"/><path d="m295.2 137.2h4.7v-1h-4.7z"/><path d="m295.2 136.2v-4.7h-1v4.7z"/><path d="m294.7 141.9h.5v-4.7h-1v4.7z"/><path d="m295.2 136.2h-1v1h1z"/><path d="m197.9 113.7h4.8v-4.8a5.4 5.4 0 0 0 -4.8 4.8z"/><path d="m208.4 114.1a5.3 5.3 0 0 0 -4.8-5.2v5.7h-5.7a5.3 5.3 0 0 0 10.5-.5z"/><path d="m203.6 108.9h-.9v4.8h-4.8v.9h5.7z"/><path d="m30.7 134.8v-4.7h-4.7a5.1 5.1 0 0 0 4.7 4.7z"/><path d="m30.7 124.5a5.1 5.1 0 0 0 -4.7 4.7h4.7z"/><path d="m31.7 134.8a5.1 5.1 0 0 0 4.7-4.7h-4.7z"/><path d="m36.4 129.2a5.1 5.1 0 0 0 -4.7-4.7v4.7z"/><path d="m26 130.1h4.7v-.9h-4.7z"/><path d="m36.4 129.2h-4.7v.9h4.7z"/><path d="m31.7 129.2v-4.7h-1v4.7z"/><path d="m30.7 130.1v4.7h1v-4.7z"/><path d="m30.7 130.1h1v-.9h-1z"/><path d="m5.4 130.1h-4.7v4.7a5.1 5.1 0 0 0 4.7-4.7z"/><path d="m5.4 129.2a5.2 5.2 0 0 0 -5.2-4.8h-.5v4.7z"/><path d="m-.3 134.8h1v-4.7h4.7v-.9h-5.7z"/><path d="m.7 288.4a5.1 5.1 0 0 0 4.7-4.7h-4.7z"/><path d="m.7 278.1v4.7h4.7a5.1 5.1 0 0 0 -4.7-4.7z"/><path d="m.2 278h-.5v4.7h1v-4.7z"/><path d="m-.3 283.7v4.7h1v-4.7z"/><path d="m5.4 282.8h-4.7v.9h4.7z"/><path d="m-.3 283.7h1v-.9h-1z"/><path d="m213.9 198.2a5.1 5.1 0 0 0 -5.1-4.7 5.2 5.2 0 0 0 -.5 10.4v-5.7z"/><path d="m209.2 203.9a5.1 5.1 0 0 0 4.7-4.7h-4.7z"/><path d="m213.9 198.2h-5.6v5.7h.9v-4.7h4.7a1.3 1.3 0 0 0 0-1z"/><path d="m419.1 173.3a5.3 5.3 0 0 0 5.3 5.3 5.1 5.1 0 0 0 5.1-4.8h-5.6v-5.7a5.3 5.3 0 0 0 -4.8 5.2z"/><path d="m429.5 172.9a5.2 5.2 0 0 0 -4.7-4.8v4.8z"/><path d="m423.9 168.1v5.7h5.6a.9.9 0 0 0 .1-.5.6.6 0 0 0 -.1-.4h-4.7v-4.8z"/><path d="m161.3 119.3a5.1 5.1 0 0 0 4.7-4.7h-4.7z"/><path d="m160.8 108.9a5.2 5.2 0 0 0 -5.2 5.2 5.2 5.2 0 0 0 4.8 5.2v-5.6h5.6a5.2 5.2 0 0 0 -5.2-4.8z"/><path d="m166 113.7h-5.6v5.6h.9v-4.7h4.7c0-.2.1-.3.1-.5z"/><path d="m284.3 246.1a4.8 4.8 0 0 0 1.5-2.9h-1.5z"/><path d="m282.9 241.9h2.9a5.1 5.1 0 0 0 -4.7-4.7v4.7z"/><path d="m275.4 242.9a5.3 5.3 0 0 0 4.8 4.7v-4.7z"/><path d="m280.2 237.2a5.2 5.2 0 0 0 -4.8 4.7h4.8z"/><path d="m281.1 242.9v4.7l1.8-.5v-4.2z"/><path d="m281.1 241.9v-4.7h-.9v4.7z"/><path d="m280.2 242.9v4.7h.9v-4.7z"/><path d="m282.9 242.9v-1h-1.8v1z"/><path d="m275.4 242.9h4.8v-1h-4.8z"/><path d="m281.1 241.9h-.9v1h.9z"/><path d="m391.5 221.7a5.2 5.2 0 0 0 .4 10.4 5.1 5.1 0 0 0 5.2-4.7h-5.6z"/><path d="m392.4 221.7v4.7h4.7a5.1 5.1 0 0 0 -4.7-4.7z"/><path d="m397.1 226.4h-4.7v-4.7h-.9v5.7h5.6a4.3 4.3 0 0 1 .1-.5c0-.2-.1-.3-.1-.5z"/><path d="m361.8 267.2a4.6 4.6 0 0 0 1.5-3.2h-1.5z"/><path d="m352.9 263.1h4.8v-4.8a5.3 5.3 0 0 0 -4.8 4.8z"/><path d="m352.9 264a5.2 5.2 0 0 0 4.8 4.7v-4.7z"/><path d="m360 264h-1.4v4.7a3.2 3.2 0 0 0 1.4-.3z"/><path d="m358.6 258.3v4.8h1.4v-4.4z"/><path d="m363.3 263.1a5.1 5.1 0 0 0 -1.5-3.3v3.3z"/><path d="m358.6 268.7v-4.7h-.9v4.7z"/><path d="m358.6 258.3h-.9v4.8h.9z"/><path d="m357.7 263.1h-4.8v.9h4.8z"/><path d="m361.8 264h1.5c0-.2.1-.3.1-.5s-.1-.3-.1-.4h-1.5z"/><path d="m360 263.1h-1.4v.9h1.4z"/><path d="m357.7 263.1v.9h.9v-.9z"/><path d="m483.1 168.1a5.4 5.4 0 0 0 -4.8 4.8h4.8z"/><path d="m483.1 178.5v-4.7h-4.8a5.3 5.3 0 0 0 4.8 4.7z"/><path d="m488.7 173.8h-4.7v4.7a5.1 5.1 0 0 0 4.7-4.7z"/><path d="m488.7 172.9a5.2 5.2 0 0 0 -4.7-4.8v4.8z"/><path d="m483.5 178.6h.5v-4.7h-.9v4.7z"/><path d="m484 172.9v-4.8h-.9v4.8z"/><path d="m484 173.8h4.7c0-.2.1-.3.1-.5s-.1-.3-.1-.4h-4.7z"/><path d="m478.3 173.8h4.8v-.9h-4.8z"/><path d="m484 172.9h-.9v.9h.9z"/><path d="m528.3 133.9a5.3 5.3 0 0 0 -2 3.7h2z"/><path d="m528.3 142.3v-3.7h-2a5.3 5.3 0 0 0 2 3.7z"/><path d="m531 143.3v-4.7h-1.3v4.4z"/><path d="m531.9 137.6v5.7a5.2 5.2 0 0 0 -.5-10.4 4.7 4.7 0 0 0 -1.7.3v4.4z"/><path d="m529.7 137.6v1h1.3v4.7h.9v-5.7z"/><path d="m526.3 138.6h2v-1h-2a1.3 1.3 0 0 0 0 1z"/><path d="m555.9 205.3a5.2 5.2 0 0 0 4.7-5.2 5.2 5.2 0 0 0 -5.2-5.2 5.3 5.3 0 0 0 -5.2 4.7h5.7z"/><path d="m550.2 200.6a5.1 5.1 0 0 0 4.7 4.7v-4.7z"/><path d="m550.2 200.6h4.7v4.7h1v-5.7h-5.7z"/><path d="m444.5 138.1a5.2 5.2 0 0 0 5.2 5.2 5.2 5.2 0 0 0 5.2-4.7h-5.7v-5.7a5.3 5.3 0 0 0 -4.7 5.2z"/><path d="m454.9 137.6a5.1 5.1 0 0 0 -4.7-4.7v4.7z"/><path d="m449.2 132.9v5.7h5.7v-1h-4.7v-4.7z"/><path d="m488.2 300.6a5.3 5.3 0 0 0 4.7 4.8v-4.8z"/><path d="m493.9 305.4a5.3 5.3 0 1 0 -5.7-5.7h5.7z"/><path d="m488.2 300.6h4.7v4.8h1v-5.7h-5.7z"/><path d="m451.6 305.4a5.3 5.3 0 0 0 4.7-4.8h-4.7z"/><path d="m445.9 300.6a5.4 5.4 0 0 0 4.8 4.8v-4.8z"/><path d="m445.9 299.7h4.8v-4.7a5.2 5.2 0 0 0 -4.8 4.7z"/><path d="m451.6 295v4.7h4.7a5.1 5.1 0 0 0 -4.7-4.7z"/><path d="m456.3 299.7h-4.7v.9h4.7c0-.1.1-.3.1-.4s-.1-.3-.1-.5z"/><path d="m450.7 299.7h-4.8v.9h4.8z"/><path d="m450.7 300.6v4.8h.9v-4.8z"/><path d="m451.1 294.9h-.4v4.7h.9v-4.6z"/><path d="m450.7 300.6h.9v-.9h-.9z"/><path d="m407.9 305.4a5.3 5.3 0 0 0 4.7-4.8h-4.7z"/><path d="m402.3 299.7h4.7v-4.7a5.1 5.1 0 0 0 -4.7 4.7z"/><path d="m407.9 295v4.7h4.7a5.1 5.1 0 0 0 -4.7-4.7z"/><path d="m402.3 300.6a5.3 5.3 0 0 0 4.7 4.8v-4.8z"/><path d="m407 299.7h-4.7a.9.9 0 0 0 -.1.5.6.6 0 0 0 .1.4h4.7z"/><path d="m412.6 299.7h-4.7v.9h4.7c0-.1.1-.3.1-.4s-.1-.3-.1-.5z"/><path d="m407 300.6v4.8h.9v-4.8z"/><path d="m407.4 294.9h-.4v4.7h.9v-4.6z"/><path d="m407 300.6h.9v-.9h-.9z"/><path d="m445.9 227.4a5.3 5.3 0 0 0 4.8 4.7v-4.7z"/><path d="m451.6 232.1a5.2 5.2 0 0 0 -.5-10.4 5.2 5.2 0 0 0 -5.2 4.7h5.7z"/><path d="m445.9 227.4h4.8v4.7h.9v-5.7h-5.7z"/><path d="m252.9 69v5.2a5.2 5.2 0 0 0 4.8-5.2 5.2 5.2 0 0 0 -5.3-5.2 5.2 5.2 0 0 0 -.4 10.4v-5.2z"/><path d="m252.9 74.2v-5.2h-.9v5.2z"/><path d="m295.2 9.8v5.2a5.1 5.1 0 0 0 4.7-5.2 5.2 5.2 0 1 0 -10.4 0 5.1 5.1 0 0 0 4.7 5.2v-5.2z"/><path d="m295.2 15v-5.2h-1v5.2z"/><path d="m329 81.7v5.2a5.2 5.2 0 0 0 4.8-5.2 5.2 5.2 0 0 0 -5.3-5.2 5.2 5.2 0 0 0 -.4 10.4v-5.2z"/><path d="m329 86.9v-5.2h-.9v5.2z"/><path d="m336 36.6a5.2 5.2 0 0 0 1.7 3.9v-7.7a4.9 4.9 0 0 0 -1.7 3.8z"/><path d="m340.7 36.6h1v5.2a5.1 5.1 0 0 0 4.7-5.2 5.2 5.2 0 0 0 -5.2-5.2 5.4 5.4 0 0 0 -2.2.5v9.5a5.3 5.3 0 0 0 1.7.4z"/><path d="m341.7 41.8v-5.2h-1v5.2z"/><path d="m357.7 3.8v-3.8h-4.6a5.4 5.4 0 0 0 4.6 3.8z"/><path d="m358.6 3.8a5.1 5.1 0 0 0 4.5-3.8h-4.5z"/><path d="m358.6 3.8v-3.8h-.9v3.8z"/><path d="m392.4 31v5.2a5.2 5.2 0 0 0 -.5-10.4 5.2 5.2 0 0 0 -5.2 5.2 5.3 5.3 0 0 0 4.8 5.2v-5.2z"/><path d="m392.4 36.2v-5.2h-.9v5.2z"/><path d="m610.8 261.9 9.3 5.5v-4.8l-9.3-5.5z"/><path d="m610.8 270.5 9.3 5.5v-4.8l-9.3-5.5z"/><path d="m610.8 279.1 9.3 5.5v-4.8l-9.3-5.5z"/><path d="m610.8 287.7 9.3 5.5v-4.8l-9.3-5.5z"/><path d="m610.8 296.3 9.3 5.5v-4.8l-9.3-5.5z"/><path d="m610.8 304.9 9.3 5.5v-4.8l-9.3-5.5z"/><path d="m188.1 181.1-4.9-2.8v2.4l4.9 2.9z"/><path d="m183.2 185.2 4.9 2.9v-2.5l-4.9-2.9z"/><path d="m183.2 189.7 4.9 2.8v-2.4l-4.9-2.9z"/><path d="m183.2 194.2 4.9 2.8v-2.5l-4.9-2.8z"/><path d="m183.2 198.6 4.9 2.9v-2.5l-4.9-2.8z"/><path d="m183.2 203.1 4.9 2.9v-2.5l-4.9-2.9z"/><path d="m409.1 85.5v-2.5l-4.8-2.9v2.5z"/><path d="m404.3 84.6v2.5l4.8 2.8v-2.4z"/><path d="m404.3 91.5 4.8 2.9v-2.5l-4.8-2.8z"/><path d="m404.3 96 4.8 2.9v-2.5l-4.8-2.9z"/><path d="m409.1 100.9-4.8-2.9v2.5l4.8 2.9z"/><path d="m404.3 105 4.8 2.8v-2.4l-4.8-2.9z"/><path d="m67.8 157.9-4.8-2.8v2.4l4.8 2.9z"/><path d="m67.8 162.4-4.8-2.9v2.5l4.8 2.9z"/><path d="m67.8 166.9-4.8-2.9v2.5l4.8 2.8z"/><path d="m67.8 171.3-4.8-2.8v2.5l4.8 2.8z"/><path d="m67.8 175.8-4.8-2.8v2.4l4.8 2.9z"/><path d="m67.8 182.8v-2.5l-4.8-2.9v2.5z"/><path d="m156.4 0h-2.6l2.6 1.6z"/><path d="m156.4 3.6-4.8-2.9v2.5l4.8 2.8z"/><path d="m527.9 71.2h.4v-.7z"/><path d="m531.3 71.2h3.4l-1.7-2.9-1.7-3-1.6 2.8v3.1z"/><path d="m527.9 64.5h.4v-.8z"/><path d="m531.3 64.5h3.4l-1.7-3-1.7-2.9-1.6 2.7v3.2z"/><path d="m531.3 57.7h3.4l-1.7-2.9-1.7-3-1.6 2.8v3.1z"/><path d="m527.9 57.7h.4v-.8z"/><path d="m177.8 73-1.7-2.9-1.7-3-1.7 3-1.7 2.9h3.4z"/><path d="m177.8 66.3-1.7-3-1.7-2.9-1.7 2.9-1.7 3h3.4z"/><path d="m177.8 59.5-1.7-2.9-1.7-3-1.7 3-1.7 2.9h3.4z"/><path d="m233.2 165.3-1.7-3-1.7-2.9-1.7 2.9-1.7 3h3.4z"/><path d="m233.2 158.5-1.7-3-1.7-2.9-1.7 2.9-1.7 3h3.4z"/><path d="m233.2 151.7-1.7-2.9-1.7-3-1.7 3-1.7 2.9h3.4z"/><path d="m375.2 195.6-1.7-2.9-1.7 2.9-1 1.8h5.5z"/><path d="m376.9 191.8-1.7-3-1.7-2.9-1.7 2.9-1.7 3h3.4z"/><path d="m376.9 185-1.7-2.9-1.7-3-1.7 3-1.7 2.9h3.4z"/><path d="m28.1 0h2v21.53h-2z"/><path d="m16.1 0h5.7v.32h-5.7z"/><path d="m16.1 2.5h5.7v2.37h-5.7z"/><path d="m16.1 7h5.7v2.37h-5.7z"/><path d="m16.1 11.5h5.7v2.36h-5.7z"/><path d="m16.1 16h5.7v2.37h-5.7z"/><path d="m576.5 106.8v1.6h3l-2-3.5-2-3.5-2 3.5-2.1 3.5h3.1v-1.6z"/><path d="m576.5 156.7v-48.3h-1-1v48.3z"/><path d="m576.5 108.4v-1.6h-2v1.6h1z"/><path d="m562.5 115.1h5.7v2.37h-5.7z"/><path d="m562.5 119.6h5.7v2.37h-5.7z"/><path d="m562.5 124.1h5.7v2.36h-5.7z"/><path d="m562.5 128.7h5.7v2.37h-5.7z"/><path d="m562.5 133.2h5.7v2.37h-5.7z"/><path d="m562.5 137.7h5.7v2.37h-5.7z"/><path d="m562.5 142.2h5.7v2.37h-5.7z"/><path d="m562.5 146.7h5.7v2.36h-5.7z"/><path d="m562.5 151.2h5.7v2.37h-5.7z"/><path d="m1034.6 76.9v-35.8l-1.3-.4v36.2z"/><path d="m1034.6 91.9h-1.3v30.3h1.3z"/><path d="m1034.6 26.3v-26.3h-1.3v26.7z"/><path d="m1136.7 267.6v73h1.3v-73z"/><path d="m1105.6 122.2v1.4h13.5v-1.4z"/><path d="m1136.7 231.6v34.6h1.3v-34.6z"/><path d="m1129.9 123.6a1.7 1.7 0 0 1 -.1-.7 2 2 0 0 1 .1-.7h-9v1.4z"/><path d="m1136.7 161.4v68.4h1.3v-68.4z"/><path d="m1136.7 130.4v29.2h1.3v-29.2z"/><path d="m1102.2 123.6v36h1.4v-36z"/><path d="m1102.2 267.6v73h1.4v-73z"/><path d="m992.8 33v1.3h4.7v-1.3z"/><path d="m1102.2 91.4v30.8h1.4v-30.4z"/><path d="m1103.6 161.4h-1.4v104.8h1.4z"/><path d="m1103.6 41.2h-1.4v36.2l1.4-.4z"/><path d="m985.3 26.1h.6v-26.1h-1.3v26.2z"/><path d="m1028.5 34.3v-1.3h-29.2v1.3z"/><path d="m529.7 71.2h-1.4v62.7l1.4-.7z"/><path d="m529.7 143-1.4-.7v26.6h1.4z"/><path d="m529.7 68.1v-3.6h-1.4v6l1.3-2.2z"/><path d="m528.3 233.8h-11.9v1.3h13.3v-34.5h-1.4z"/><path d="m529.7 61.3v-3.6h-1.4v6l1.3-2.2z"/><path d="m483.7 233.8v65.9h1.3v-64.6h30.5v-1.3z"/><path d="m528.3 170.2v29.4h1.4v-29.4z"/><path d="m483.7 300.6v40h1.3v-40z"/><path d="m529.6 54.8v-54.8h-1.4v56.9z"/><path d="m528.3 199.6v1h1.4v-1z"/><path d="m483.7 300.6h1.3v-.9h-1.3z"/><path d="m515.5 233.8v1.3h.9v-1.3z"/><path d="m529.7 143v-4.4h-1.4v3.7z"/><path d="m529.7 137.6v-4.4l-1.4.7v3.7z"/><path d="m529.7 137.6h-1.4v1h1.4z"/><path d="m529.7 68.1v.2l-1.3 2.2v.7h1.4z"/><path d="m529.7 61.3v.2l-1.3 2.2v.8h1.4z"/><path d="m529.7 54.6v.2l-1.3 2.1v.8h1.4z"/><path d="m497.2 137.6v-137.6h-1.3v137.6z"/><path d="m538.3 170.2v-1.3h-6.4v1.3z"/><path d="m577 170.2h22.3v170.4h1.3v-171.7h-23.6a1.5 1.5 0 0 1 .1.7 1.3 1.3 0 0 1 -.1.6z"/><path d="m562 168.9h-21.9v1.3h21.9z"/><path d="m529.7 170.2h1.3v-1.3h-1.3z"/><path d="m528.3 170.2v-1.3h-31.1v-30.3h-1.3v31.6z"/><path d="m531 170.2h.9v-1.3h-.9z"/><path d="m497.2 138.6v-1h-1.3v1z"/><path d="m528.3 168.9v1.3h1.4v-1.3z"/><path d="m1040.6 267.6v-1.4h-3.5v1.4z"/><path d="m1048.1 274.4h-.7v66.2h1.4v-66.2z"/><path d="m853.4 206.6h.7v-169.5h-1.3v169.6z"/><path d="m916.9 266.2h-25.6v1.4h25.6z"/><path d="m854.1 266.2v-44.5h-1.3v45.9h36.7v-1.4z"/><path d="m854.1 35.3v-35.3h-1.3v35.3z"/><path d="m931.9 266.2c0 .3.1.5.1.7s-.1.5-.1.7h38.6v-1.4z"/><path d="m994.8 266.2v1.4h6.1v-1.4z"/><path d="m979.8 266.2h-7.5v1.4h7.5z"/><path d="m1002.2 266.2v1.4h33.1v-1.4z"/><path d="m909.6 160.8v1.3h60.9v-1.3z"/><path d="m901.4 119.1h1.4v-82h-1.4z"/><path d="m979.8 162.1v-1.3h-7.5v1.3z"/><path d="m902.8 35.3v-35.3h-1.4v35.3z"/><path d="m902.1 153.9h.7v-33h-1.4v33z"/><path d="m987.3 274.4h-.7v66.2h1.4v-66.2z"/><path d="m986.6 168.9v90.5h1.4v-90.5z"/><path d="m845.9 213.5h-11.4v1.4h11.4z"/><path d="m923.7 214.9v44.5h1.4v-45.9h-33.8v1.4z"/><path d="m811.5 213.5v-106.1h-1.3v107.5h22.5v-1.4z"/><path d="m924.4 274.4h-.7v66.2h1.4v-66.2z"/><path d="m860.9 213.5a1.5 1.5 0 0 1 .1.7 2 2 0 0 1 -.1.7h28.6v-1.4z"/><path d="m811.5 0h-1.3v106h1.3z"/><path d="m754.7 32.3v-1.3h-12v1.3z"/><path d="m769.7 31v1.3h21.6v-32.3h-1.4v31z"/><path d="m339 41.4-1.3-.9v144.5a3.8 3.8 0 0 1 1.3-.9z"/><path d="m338.4 250.1h-.7v13h1.3v-13z"/><path d="m339 235.1v-41.5l-1.3-.9v42.4z"/><path d="m339 29h-1.3v3.8a3.8 3.8 0 0 1 1.3-.9z"/><path d="m345.8 22.2h11.9v-1.4h-11.9a1.7 1.7 0 0 1 .1.7 2 2 0 0 1 -.1.7z"/><path d="m337.7 264v76.6h1.3v-76.6z"/><path d="m435.7 14h.7v-14h-1.4v14z"/><path d="m428.2 22.2v-1.4h-3.4v1.4z"/><path d="m375.5 22.2a2 2 0 0 1 -.1-.7 1.7 1.7 0 0 1 .1-.7h-16.9v1.4z"/><path d="m390.5 22.2h33.4v-1.4h-33.4z"/><path d="m358.6 22.2v-1.4h-.9v1.4z"/><path d="m337.7 263.1v.9h1.3v-.9z"/><path d="m424.8 22.2v-1.4h-.9v1.4z"/><path d="m339 188.4v-4.3a3.8 3.8 0 0 0 -1.3.9v3.4z"/><path d="m339 193.6v-4.3h-1.3v3.4z"/><path d="m339 188.4h-1.3v.9h1.3z"/><path d="m339 31.9a3.8 3.8 0 0 0 -1.3.9v7.7l1.3.9z"/><path d="m382.3 241.9h-20.5v1.3h21.8v-44h-1.3z"/><path d="m383 14h.6v-14h-1.3v14z"/><path d="m282.9 247.1v93.5h1.4v-94.5a7.1 7.1 0 0 1 -1.4 1z"/><path d="m345.8 241.9a1.5 1.5 0 0 1 .1.7 1.3 1.3 0 0 1 -.1.6h11.9v-1.3z"/><path d="m330.8 242.6a1.5 1.5 0 0 1 .1-.7h-1.9v1.3h1.9a1.3 1.3 0 0 1 -.1-.6z"/><path d="m383.6 29h-1.3v168.4h1.3z"/><path d="m360 243.2v-1.3h-1.4v1.3z"/><path d="m314.9 241.9v1.3h13.2v-1.3z"/><path d="m295.2 241.9v1h-9.4v.3h28.2v-1.3z"/><path d="m358.6 241.9h-.9v1.3h.9z"/><path d="m329 241.9h-.9v1.3h.9z"/><path d="m294.2 241.9h-8.4c0 .2.1.3.1.5a4.3 4.3 0 0 0 -.1.5h9.4v-1z"/><path d="m314 241.9v1.3h.9v-1.3z"/><path d="m282.9 242.9v4.2a7.1 7.1 0 0 0 1.4-1v-2.9h1.5v-.3z"/><path d="m285.8 241.9h-2.9v1h2.9a4.3 4.3 0 0 1 .1-.5c0-.2-.1-.3-.1-.5z"/><path d="m762.2 24.1h.7v-24.1h-1.4v24.1z"/><path d="m680.4 188.4v152.2h1.3v-152.2z"/><path d="m734.4 183.1h-45.7v1.3h45.7z"/><path d="m761.5 39.1v61h1.4v-61z"/><path d="m761.5 183.1h-12.1v1.3h13.5v-82.5h-1.4z"/><path d="m680.4 186.6h1.3v-2.2h5.2v-1.3h-6.5z"/><path d="m829.8 99.2v-53.7l-1.4-.7v54.4z"/><path d="m829.8 26.9v-26.9h-1.4v27.6z"/><path d="m810.2 107.4v-1.4h-20.3v234.6h1.4v-233.2z"/><path d="m821.6 106.7v-.7h-10.1v1.4h10.1z"/><path d="m811.5 107.4v-1.4h-1.3v1.4z"/><path d="m693.8 120.9a1.5 1.5 0 0 1 .1-.7h-5.2v1.4h5.2a2 2 0 0 1 -.1-.7z"/><path d="m700.7 113.4h1.3v-11.5h-1.3z"/><path d="m646 121.6h40.9v-1.4h-40.9z"/><path d="m639.2 128.4h-1.4v58.2h1.4z"/><path d="m702 100.1v-100.1h-1.3v100.1z"/><path d="m637.8 188.4v152.2h1.4v-152.2z"/><path d="m569.5 6.7h-.6v28.6h1.3v-28.6z"/><path d="m568.9 162.1h1.3v-125h-1.3z"/><path d="m569.5 177.1h-.6v163.5h1.3v-163.5z"/><path d="m1079.9 123.6v36h1.3v-36z"/><path d="m1026.4 84.4v-.7h-27.1v1.3h27.1z"/><path d="m956.3 83.7v1.3h14.2v-1.3z"/><path d="m1079.9 161.4v179.2h1.3v-179.2z"/><path d="m997.5 85v-1.3h-25.2v1.3z"/><path d="m1081.2 85h-1.3v37.2h1.3z"/><path d="m1041.4 83.7c0 .2.1.4.1.7s-.1.4-.1.6h16.2v-1.3z"/><path d="m948.8 76.8h.6v-76.8h-1.3v76.9z"/><path d="m458.6 121.6v-1.4h-8.4v1.4z"/><path d="m466.1 113.3h.7v-113.3h-1.4v113.4z"/><path d="m424.8 121.6h8.1v-1.4h-8.1z"/><path d="m416.8 300.6v40h1.3v-40z"/><path d="m416.8 227.4v72.3h1.3v-72.3z"/><path d="m418.1 121.6h5.8v-1.4h-7.1v77.2h1.3z"/><path d="m416.8 199.2v27.2h1.3v-27.2z"/><path d="m449.2 121.6v-1.4h-14.4v1.4z"/><path d="m450.2 121.6v-1.4h-1v1.4z"/><path d="m416.8 299.7v.9h1.3v-.9z"/><path d="m416.8 226.4v1h1.3v-1z"/><path d="m424.8 121.6v-1.4h-.9v1.4z"/><path d="m465.4 113.4a7.5 7.5 0 0 0 -6.8 6.8h6.8z"/><path d="m458.6 121.6a7.6 7.6 0 0 0 7.5 6.8 7.5 7.5 0 0 0 .7-15v8.2z"/><path d="m458.6 121.6h8.2v-8.2h-1.4v6.8h-6.8z"/><path d="m435 20.8v-6.8h-.2v6.8z"/><path d="m432.9 28.5v-6.3h-4.7a7.5 7.5 0 0 0 4.7 6.3z"/><path d="m432.9 14.5a7.5 7.5 0 0 0 -4.7 6.3h4.7z"/><path d="m434.8 22.2v6.8h.9a7.4 7.4 0 0 0 7.5-7.5 7.5 7.5 0 0 0 -6.8-7.5v8.2z"/><path d="m434.8 20.8v1.4h1.6v-8.2h-1.4v6.8z"/><path d="m428.2 22.2h4.7v-1.4h-4.7z"/><path d="m577 168.9a7.5 7.5 0 0 0 -6.8-6.8v6.8z"/><path d="m562 168.9h6.9v-6.8a7.6 7.6 0 0 0 -6.9 6.8z"/><path d="m562 170.2a7.7 7.7 0 0 0 6.9 6.9v-6.9z"/><path d="m577 170.2h-6.8v6.9a7.6 7.6 0 0 0 6.8-6.9z"/><path d="m562 169.6v.6h6.9v-1.3h-6.9z"/><path d="m570.2 170.2h6.8a1.3 1.3 0 0 0 .1-.6 1.5 1.5 0 0 0 -.1-.7h-6.8z"/><path d="m568.9 162.1v6.8h1.3v-6.8z"/><path d="m568.9 177.1h1.3v-6.9h-1.3z"/><path d="m570.2 170.2v-1.3h-1.3v1.3z"/><path d="m700.7 113.4a7.5 7.5 0 0 0 -6.8 6.8h6.8z"/><path d="m693.9 121.6a7.4 7.4 0 0 0 7.5 6.8 7.6 7.6 0 0 0 7.5-7.5 7.4 7.4 0 0 0 -6.9-7.5v8.2z"/><path d="m700.7 113.4v6.8h-6.8a1.5 1.5 0 0 0 -.1.7 2 2 0 0 0 .1.7h8.1v-8.2z"/><path d="m828.4 99.2a7.5 7.5 0 0 0 -6.8 6.8h6.8z"/><path d="m829.8 99.2v8.2h-8.2a7.6 7.6 0 0 0 7.5 6.8 7.1 7.1 0 0 0 3.6-.9v-13.2a7.5 7.5 0 0 0 -2.9-.9z"/><path d="m836.6 106.7a7.2 7.2 0 0 0 -2.1-5.2v10.4a7.6 7.6 0 0 0 2.1-5.2z"/><path d="m821.6 107.4h8.2v-8.2h-1.4v6.8h-6.8z"/><path d="m761.5 24.1a7.6 7.6 0 0 0 -6.8 6.9h6.8z"/><path d="m769.7 31a7.6 7.6 0 0 0 -6.8-6.9v6.9z"/><path d="m762.9 39.1a7.5 7.5 0 0 0 6.8-6.8h-6.8z"/><path d="m761.5 39.1v-6.8h-6.8a7.5 7.5 0 0 0 6.8 6.8z"/><path d="m754.7 32.3h6.8v-1.3h-6.8z"/><path d="m769.7 31h-6.8v1.3h6.8z"/><path d="m762.9 31v-6.9h-1.4v6.9z"/><path d="m761.5 32.3v6.8h1.4v-6.8z"/><path d="m761.5 32.3h1.4v-1.3h-1.4z"/><path d="m637.9 0h-15a7.5 7.5 0 0 0 7.5 6.7 7.6 7.6 0 0 0 7.5-6.7z"/><path d="m382.3 14a7.5 7.5 0 0 0 -6.8 6.8h6.8z"/><path d="m382.3 29v-6.8h-6.8a7.5 7.5 0 0 0 6.8 6.8z"/><path d="m390.5 22.2h-6.9v6.8a7.6 7.6 0 0 0 6.9-6.8z"/><path d="m390.5 20.8a7.6 7.6 0 0 0 -6.9-6.8v6.8z"/><path d="m383.6 22.2h6.9v-1.4h-6.9z"/><path d="m375.5 22.2h6.8v-1.4h-6.8a1.7 1.7 0 0 0 -.1.7 2 2 0 0 0 .1.7z"/><path d="m383 29h.6v-6.8h-1.3v6.8z"/><path d="m383.6 20.8v-6.8h-1.3v6.8z"/><path d="m383.6 20.8h-1.3v1.4h1.3z"/><path d="m345.8 20.8a7.4 7.4 0 0 0 -7.4-6.8 7.5 7.5 0 0 0 -7.6 7.5 7.6 7.6 0 0 0 6.9 7.5v-8.2z"/><path d="m345.8 22.2h-6.8v6.8a7.5 7.5 0 0 0 6.8-6.8z"/><path d="m339 29v-6.8h6.8a2 2 0 0 0 .1-.7 1.7 1.7 0 0 0 -.1-.7h-8.1v8.2z"/><path d="m330.9 243.2a7.6 7.6 0 0 0 6.8 6.9v-6.9z"/><path d="m345.8 241.9a7.5 7.5 0 0 0 -6.8-6.8v6.8z"/><path d="m337.7 235.1a7.5 7.5 0 0 0 -6.8 6.8h6.8z"/><path d="m339 250.1a7.6 7.6 0 0 0 6.8-6.9h-6.8z"/><path d="m337.7 243.2v6.9h1.3v-6.9z"/><path d="m339 241.9v-6.8h-1.3v6.8z"/><path d="m337.7 241.9h-6.8a1.5 1.5 0 0 0 -.1.7 1.3 1.3 0 0 0 .1.6h6.8z"/><path d="m345.8 241.9h-6.8v1.3h6.8a1.3 1.3 0 0 0 .1-.6 1.5 1.5 0 0 0 -.1-.7z"/><path d="m337.7 243.2h1.3v-1.3h-1.3z"/><path d="m646 121.6h-6.8v6.8a7.5 7.5 0 0 0 6.8-6.8z"/><path d="m646 120.2a7.7 7.7 0 0 0 -7.5-6.9 7.6 7.6 0 0 0 -.7 15.1v-8.2z"/><path d="m639.2 128.4v-6.8h6.8v-1.4h-8.2v8.2z"/><path d="m948.1 76.9a7.4 7.4 0 0 0 -6.9 7.5 7.6 7.6 0 0 0 15.1.6h-8.2z"/><path d="m956.3 83.7a7.6 7.6 0 0 0 -6.9-6.8v6.8z"/><path d="m956.3 83.7h-6.9v-6.8h-1.3v8.1h8.2z"/><path d="m577 0h-6.8v6.7a7.5 7.5 0 0 0 6.8-6.7z"/><path d="m568.9 6.7v-6.7h-6.9a7.6 7.6 0 0 0 6.9 6.7z"/><path d="m569.5 6.7h.7v-6.7h-1.3v6.7z"/><path d="m742.7 191.2a7.4 7.4 0 0 0 6.7-6.8h-6.7z"/><path d="m742.7 176.3v6.8h6.7a7.4 7.4 0 0 0 -6.7-6.8z"/><path d="m734.4 184.4a7.5 7.5 0 0 0 6.5 6.8v-6.8z"/><path d="m734.4 183.1h6.5v-6.8a7.5 7.5 0 0 0 -6.5 6.8z"/><path d="m749.4 183.1h-6.7v1.3h6.7z"/><path d="m740.9 183.1h-6.5v1.3h6.5z"/><path d="m909.6 160.8a7.6 7.6 0 0 0 -6.8-6.9v6.9z"/><path d="m901.4 153.9a7.6 7.6 0 1 0 8.2 8.2h-8.2z"/><path d="m909.6 160.8h-6.8v-6.9h-1.4v8.2h8.2z"/><path d="m860.9 214.9h-6.8v6.8a7.5 7.5 0 0 0 6.8-6.8z"/><path d="m845.9 214.9a7.7 7.7 0 0 0 6.9 6.8v-6.8z"/><path d="m845.9 213.5h6.9v-6.8a7.6 7.6 0 0 0 -6.9 6.8z"/><path d="m854.1 206.7v6.8h6.8a7.5 7.5 0 0 0 -6.8-6.8z"/><path d="m854.1 221.7v-6.8h-1.3v6.8z"/><path d="m854.1 206.7h-1.3v6.8h1.3z"/><path d="m861 214.2a1.5 1.5 0 0 0 -.1-.7h-6.8v1.4h6.8a2 2 0 0 0 .1-.7z"/><path d="m852.8 213.5h-6.9v1.4h6.9z"/><path d="m852.8 213.5v1.4h1.3v-1.4z"/><path d="m1034.6 91.9h.7v-6.9h-.7z"/><path d="m1041.4 83.7a7.6 7.6 0 0 0 -4.3-6.2v6.2z"/><path d="m1033.3 76.9a7.6 7.6 0 0 0 -6.9 6.8h6.9z"/><path d="m1035.3 77h-.7v6.8h.7z"/><path d="m1037.1 91.2a7.4 7.4 0 0 0 4.3-6.2h-4.3z"/><path d="m1026.4 85a7.7 7.7 0 0 0 6.9 6.9v-6.9z"/><path d="m1034.6 91.9v-6.9h-1.3v6.9z"/><path d="m1034.6 83.7v-6.8h-1.3v6.8z"/><path d="m1041.4 83.7h-4.3v1.3h4.3c0-.2.1-.4.1-.6s-.1-.5-.1-.7z"/><path d="m1033.3 83.7h-6.9v1.3h6.9z"/><path d="m1034.6 83.7v1.3h.7v-1.3z"/><path d="m1033.3 83.7v1.3h1.3v-1.3z"/><path d="m1104.3 33v-6.7l-1.4-.2a7.4 7.4 0 0 0 -7.5 6.9z"/><path d="m1102.2 41.2v-6.9h-6.8a7.6 7.6 0 0 0 6.8 6.9z"/><path d="m1110.4 34.3h-4.8v6.4a7.9 7.9 0 0 0 4.8-6.4z"/><path d="m1104.3 41.1v-6.8h-.7v6.9z"/><path d="m1110.4 33a7.6 7.6 0 0 0 -4.8-6.3v6.3z"/><path d="m1102.9 41.2h.7v-6.9h-1.4v6.9z"/><path d="m1138 130.4a7.5 7.5 0 0 0 -.6-15 7.4 7.4 0 0 0 -7.5 6.8h8.1z"/><path d="m1136.7 130.4v-6.8h-6.8a7.5 7.5 0 0 0 6.8 6.8z"/><path d="m1129.9 123.6h6.8v6.8h1.3v-8.2h-8.1a2 2 0 0 0 -.1.7 1.7 1.7 0 0 0 .1.7z"/><path d="m992.8 33a7.6 7.6 0 0 0 -6.9-6.8v6.8z"/><path d="m984.6 26.2a7.4 7.4 0 0 0 -6.9 7.5 7.6 7.6 0 0 0 15.1.6h-8.2z"/><path d="m992.8 33h-6.9v-6.8h-1.3v8.1h8.2z"/><path d="m1040.6 267.6a7.6 7.6 0 0 0 6.8 6.8v-6.8z"/><path d="m1048.8 274.4a7.6 7.6 0 0 0 6.9-7.5 7.6 7.6 0 0 0 -15.1-.7h8.2z"/><path d="m1040.6 267.6h6.8v6.8h1.4v-8.2h-8.2z"/><path d="m988 274.4a7.5 7.5 0 0 0 6.8-6.8h-6.8z"/><path d="m979.8 267.6a7.5 7.5 0 0 0 6.8 6.8v-6.8z"/><path d="m988 259.4v6.8h6.8a7.5 7.5 0 0 0 -6.8-6.8z"/><path d="m979.8 266.2h6.8v-6.8a7.5 7.5 0 0 0 -6.8 6.8z"/><path d="m994.8 266.2h-6.8v1.4h6.8z"/><path d="m986.6 266.2h-6.8v1.4h6.8z"/><path d="m986.6 267.6v6.8h1.4v-6.8z"/><path d="m987.3 259.4h-.7v6.8h1.4v-6.8z"/><path d="m986.6 267.6h1.4v-1.4h-1.4z"/><path d="m916.9 267.6a7.5 7.5 0 0 0 6.8 6.8v-6.8z"/><path d="m925.1 274.4a7.5 7.5 0 0 0 6.8-6.8h-6.8z"/><path d="m916.9 266.2h6.8v-6.8a7.5 7.5 0 0 0 -6.8 6.8z"/><path d="m925.1 259.4v6.8h6.8a7.5 7.5 0 0 0 -6.8-6.8z"/><path d="m923.7 266.2h-6.8v1.4h6.8z"/><path d="m931.9 266.2h-6.8v1.4h6.8c0-.2.1-.5.1-.7s-.1-.4-.1-.7z"/><path d="m923.7 267.6v6.8h1.4v-6.8z"/><path d="m924.4 259.4h-.7v6.8h1.4v-6.8z"/><path d="m923.7 267.6h1.4v-1.4h-1.4z"/><path d="m988 168.9a7.4 7.4 0 0 0 6.8-7.5 7.5 7.5 0 0 0 -15-.6h8.2z"/><path d="m979.8 162.1a7.5 7.5 0 0 0 6.8 6.8v-6.8z"/><path d="m979.8 162.1h6.8v6.8h1.4v-8.1h-8.2z"/><path d="m608.7 95.6-7-4.1v3.5l7 4.1z"/><path d="m601.7 101.5 7 4.1v-3.6l-7-4.1z"/><path d="m601.7 107.9 7 4.1v-3.5l-7-4.2z"/><path d="m601.7 114.3 7 4.2v-3.6l-7-4.1z"/><path d="m601.7 120.8 7 4.1v-3.6l-7-4.1z"/><path d="m601.7 127.2 7 4.1v-3.5l-7-4.1z"/><path d="m428.7 61.7 4.2 2.5v-3.6l-4.2-2.5z"/><path d="m435.7 65.8v-3.6l-.9-.6v3.6z"/><path d="m435.7 72.2v-3.6l-.9-.5v3.6z"/><path d="m428.7 68.1 4.2 2.5v-3.6l-4.2-2.5z"/><path d="m428.7 74.5 4.2 2.5v-3.5l-4.2-2.5z"/><path d="m435.7 78.6v-3.5l-.9-.6v3.6z"/><path d="m428.7 81 4.2 2.5v-3.6l-4.2-2.5z"/><path d="m435.7 85.1v-3.6l-.9-.5v3.5z"/><path d="m428.7 87.4 4.2 2.5v-3.6l-4.2-2.5z"/><path d="m435.7 91.5v-3.5l-.9-.6v3.6z"/><path d="m428.7 93.8 4.2 2.5v-3.5l-4.2-2.5z"/><path d="m435.7 98v-3.6l-.9-.6v3.6z"/><path d="m283.1 45.8v-7.7l-15.1-8.9v7.7z"/><path d="m268 43.2v7.7l15.1 8.9v-7.7z"/><path d="m283.1 66.1-15.1-9v7.8l15.1 8.9z"/><path d="m268 78.8 15.1 9v-7.8l-15.1-8.9z"/><path d="m283.1 94-15.1-8.9v7.7l15.1 8.9z"/><path d="m283.1 115.7v-7.7l-15.1-8.9v7.7z"/><path d="m673.6 72.7-2.4-4.2-2.5-4.2-2.4 4.2-2.5 4.2h4.9z"/><path d="m673.6 63-2.4-4.2-2.5-4.3-2.4 4.3-2.5 4.2h4.9z"/><path d="m673.6 53.3-2.4-4.3-2.5-4.2-2.4 4.2-2.5 4.3h4.9z"/><path d="m880.5 120.7-2.5-4.3-2.4-4.2-2.5 4.2-2.4 4.3h4.9z"/><path d="m880.5 110.9-2.5-4.2-2.4-4.2-2.5 4.2-2.4 4.2h4.9z"/><path d="m880.5 101.2-2.5-4.2-2.4-4.3-2.5 4.3-2.4 4.2h4.9z"/><path d="m1655.8 137.6v-137.6h-.9v137.6z"/><path d="m1583.5 205.3h-.5v135.3h1v-135.3z"/><path d="m1607.9 199.6v1h1.3v-1z"/><path d="m1622.5 199.6h-11.9v1h11.9z"/><path d="m1588.7 199.6v1h18.3v-1z"/><path d="m1655.4 168.1h.4v-29.5h-.9v29.5z"/><path d="m1654.9 178.5v21.1h-31.5v1h32.4v-22.1z"/><path d="m1689.6 132.9v-11.3h-.9v11.3z"/><path d="m1612.6 138.6h29.1v-1h-29.1c0 .2.1.3.1.5s-.1.3-.1.5z"/><path d="m1689.6 120.2v-120.2h-.9v120.2z"/><path d="m1654.9 138.6v-1h-11.9v1z"/><path d="m1607.9 143.3h-.9v25.6h.9z"/><path d="m1684 138.6c0-.2-.1-.3-.1-.5s.1-.3.1-.5h-28.2v1z"/><path d="m1607 200.6v140h.9v-140z"/><path d="m1607.9 170.2h-.9v29.4h.9z"/><path d="m1607 199.6v1h.9v-1z"/><path d="m1655.8 138.6v-1h-.9v1z"/><path d="m1781.2 241.9v-219.7h-.9v219.7z"/><path d="m1780.3 258.3h.9v-15.1h-.9z"/><path d="m1780.3 268.7v31h-43.7c0 .2.1.3.1.5s-.1.3-.1.4h44.6v-31.9z"/><path d="m1781.2 3.8h-.9v17h.9z"/><path d="m1650.7 299.7v.9h3.1v-.9z"/><path d="m1645.5 305.4h-.5v35.2h1v-35.2z"/><path d="m1692.9 299.7a.9.9 0 0 1 .1.5.6.6 0 0 1 -.1.4h27.9v-.9z"/><path d="m1682.6 299.7h-27.4v.9h27.4c0-.1-.1-.3-.1-.4s.1-.3.1-.5z"/><path d="m1726.3 299.7h-4.2v.9h4.2a.6.6 0 0 1 -.1-.4.9.9 0 0 1 .1-.5z"/><path d="m1692.9 226.4a.9.9 0 0 1 .1.5 1.1 1.1 0 0 1 -.1.5h27.9v-1z"/><path d="m1687.3 232.1v62.9h.9v-62.9z"/><path d="m1687.8 305.4h-.5v35.2h.9v-35.2z"/><path d="m1741.8 227.4a1.1 1.1 0 0 1 -.1-.5.9.9 0 0 1 .1-.5h-19.7v1z"/><path d="m1747.4 221.7v-185.5h-.9v185.5z"/><path d="m1786 263.1v.9h13.9v-.9z"/><path d="m1809.9 263.1h-8.7v.9h9.6v-20.8h-.9z"/><path d="m1809.9 189.3v52.6h.9v-52.6z"/><path d="m1731.4 305.4h-.4v35.2h.9v-35.2z"/><path d="m1731 295h.9v-31h43.7c0-.2-.1-.3-.1-.5s.1-.3.1-.4h-44.6z"/><path d="m1810.8 86.9h-.9v101.5h.9z"/><path d="m1839 137.2a4.3 4.3 0 0 0 -.1-.5c0-.2.1-.3.1-.5h-14.1v-136.2h-.9v137.2z"/><path d="m1849.4 137.2h8.4v100h.9v-101h-9.3z"/><path d="m1858.3 247.6h-.5v93h.9v-93z"/><path d="m1844.6 141.9h-.9v100h.9z"/><path d="m1863.5 242.4v.5h36.6v97.7h.9v-98.7h-37.5z"/><path d="m1844.6 131.5v-116.5h-.9v116.5z"/><path d="m1824 189.3v52.6h.9v-53.5h-14.1v.9z"/><path d="m1824 243.2v97.4h.9v-97.4z"/><path d="m1802.9 189.3h7v-.9h-7z"/><path d="m1798.1 183.6v-141.8h-.9v141.8z"/><path d="m1810.8 189.3v-.9h-.9v.9z"/><path d="m1891.6 198.2c0 .2.1.3.1.5s-.1.3-.1.5h28.4v-1z"/><path d="m1886.9 193.5v-119.3h-.9v119.3z"/><path d="m1622.5 200.6v33.2h.9v-33.2z"/><path d="m1622.5 235.1v105.5h.9v-105.5z"/><path d="m1715 20.8v-20.8h-.9v20.8z"/><path d="m1714.5 168.1h.5v-46.5h-.9v46.5z"/><path d="m1623.4 173.8h26.8c0-.2-.1-.3-.1-.5s.1-.3.1-.4h-27.7v26.7h.9z"/><path d="m1709.3 172.9h-48.8a.6.6 0 0 1 .1.4.9.9 0 0 1 -.1.5h48.8z"/><path d="m1715 22.2h-.9v98h.9z"/><path d="m1622.5 199.6v1h.9v-1z"/><path d="m1886 193.5a5.3 5.3 0 0 0 -4.8 5.2 5.2 5.2 0 0 0 5.2 5.2 5.1 5.1 0 0 0 5.2-4.7h-5.6z"/><path d="m1891.6 198.2a5.1 5.1 0 0 0 -4.7-4.7v4.7z"/><path d="m1891.6 198.2h-4.7v-4.7h-.9v5.7h5.6c0-.2.1-.3.1-.5s-.1-.3-.1-.5z"/><path d="m1802.9 188.4a5.8 5.8 0 0 0 -1.7-3.4v3.4z"/><path d="m1802.9 189.3h-1.7v3.4a6.1 6.1 0 0 0 1.7-3.4z"/><path d="m1798.1 188.4h1.8v-4.3a5.3 5.3 0 0 0 -1.8-.5z"/><path d="m1797.2 189.3v-5.7a5.3 5.3 0 0 0 .5 10.5 5.4 5.4 0 0 0 2.2-.5v-4.3z"/><path d="m1798.1 183.6h-.9v5.7h2.7v-.9h-1.8z"/><path d="m1801.2 189.3h1.7v-.9h-1.7z"/><path d="m1849.4 136.2a5.2 5.2 0 0 0 -4.8-4.7v4.7z"/><path d="m1839 137.2a5.2 5.2 0 0 0 4.7 4.7v-4.7z"/><path d="m1849.4 137.2h-4.8v4.7a5.3 5.3 0 0 0 4.8-4.7z"/><path d="m1843.7 131.5a5.1 5.1 0 0 0 -4.7 4.7h4.7z"/><path d="m1839 137.2h4.7v-1h-4.7c0 .2-.1.3-.1.5a4.3 4.3 0 0 1 .1.5z"/><path d="m1844.6 137.2h4.8v-1h-4.8z"/><path d="m1844.6 141.9v-4.7h-.9v4.7z"/><path d="m1844.6 136.2v-4.7h-.9v4.7z"/><path d="m1844.6 136.2h-.9v1h.9z"/><path d="m1709.3 173.8a5.3 5.3 0 1 0 5.7-5.7v5.7z"/><path d="m1714.1 168.1a5.4 5.4 0 0 0 -4.8 4.8h4.8z"/><path d="m1714.1 168.1v4.8h-4.8v.9h5.7v-5.7z"/><path d="m1863.5 241.9a5.3 5.3 0 0 0 -4.8-4.7v4.7z"/><path d="m1856 242.9v4.2l1.8.5v-4.7z"/><path d="m1853.1 243.2a4.8 4.8 0 0 0 1.5 2.9v-2.9z"/><path d="m1853.1 241.9h4.7v-4.7a5.1 5.1 0 0 0 -4.7 4.7z"/><path d="m1858.7 247.6a5.4 5.4 0 0 0 4.8-4.7h-4.8z"/><path d="m1857.8 242.9v4.7h.9v-4.7z"/><path d="m1857.8 237.2v4.7h.9v-4.7z"/><path d="m1858.7 242.9h4.8v-1h-4.8z"/><path d="m1856 242.9h1.8v-1h-1.8z"/><path d="m1858.7 242.9v-1h-.9v1z"/><path d="m1746.5 221.7a5.1 5.1 0 0 0 -4.7 4.7h4.7z"/><path d="m1741.8 227.4a5.1 5.1 0 0 0 5.1 4.7 5.2 5.2 0 0 0 .5-10.4v5.7z"/><path d="m1741.8 227.4h5.6v-5.7h-.9v4.7h-4.7a.9.9 0 0 0 -.1.5 1.1 1.1 0 0 0 .1.5z"/><path d="m1781.2 258.3v4.8h4.8a5.4 5.4 0 0 0 -4.8-4.8z"/><path d="m1780.3 268.7v-4.7h-4.7a5.1 5.1 0 0 0 4.7 4.7z"/><path d="m1781.2 268.7a5.3 5.3 0 0 0 4.8-4.7h-4.8z"/><path d="m1775.6 263.1h4.7v-4.8a5.2 5.2 0 0 0 -4.7 4.8z"/><path d="m1780.3 264v4.7h.9v-4.7z"/><path d="m1780.8 258.3h-.5v4.8h.9v-4.8z"/><path d="m1786 263.1h-4.8v.9h4.8z"/><path d="m1775.6 263.1c0 .1-.1.3-.1.4s.1.3.1.5h4.7v-.9z"/><path d="m1780.3 264h.9v-.9h-.9z"/><path d="m1654.9 178.5v-4.7h-4.7a5.1 5.1 0 0 0 4.7 4.7z"/><path d="m1655.8 178.5a5.1 5.1 0 0 0 4.7-4.7h-4.7z"/><path d="m1654.9 168.1a5.2 5.2 0 0 0 -4.7 4.8h4.7z"/><path d="m1660.5 172.9a5.2 5.2 0 0 0 -4.7-4.8v4.8z"/><path d="m1654.9 173.8v4.7h.9v-4.7z"/><path d="m1655.8 172.9v-4.8h-.9v4.8z"/><path d="m1660.5 172.9h-4.7v.9h4.7a.9.9 0 0 0 .1-.5.6.6 0 0 0 -.1-.4z"/><path d="m1650.2 173.8h4.7v-.9h-4.7c0 .1-.1.3-.1.4s.1.3.1.5z"/><path d="m1654.9 173.8h.9v-.9h-.9z"/><path d="m1609.2 138.6h-1.3v4.7l1.3-.3z"/><path d="m1612.6 137.6a5.3 5.3 0 0 0 -2-3.7v3.7z"/><path d="m1609.2 137.6v-4.4a4.8 4.8 0 0 0 -1.8-.3 5.2 5.2 0 0 0 -5.2 5.2 5.3 5.3 0 0 0 4.8 5.2v-5.7z"/><path d="m1612.6 138.6h-2v3.7a5.3 5.3 0 0 0 2-3.7z"/><path d="m1607.9 143.3v-4.7h1.3v-1h-2.2v5.7z"/><path d="m1610.6 138.6h2c0-.2.1-.3.1-.5s-.1-.3-.1-.5h-2z"/><path d="m1588.7 199.6a5.3 5.3 0 0 0 -5.2-4.7 5.2 5.2 0 0 0 -5.2 5.2 5.2 5.2 0 0 0 4.7 5.2v-5.7z"/><path d="m1584 205.3a5.2 5.2 0 0 0 4.7-4.7h-4.7z"/><path d="m1588.7 199.6h-5.7v5.7h1v-4.7h4.7z"/><path d="m1689.2 143.3a5.2 5.2 0 0 0 5.2-5.2 5.3 5.3 0 0 0 -4.8-5.2v5.7h-5.6a5.1 5.1 0 0 0 5.2 4.7z"/><path d="m1688.7 132.9a5.1 5.1 0 0 0 -4.7 4.7h4.7z"/><path d="m1684 138.6h5.6v-5.7h-.9v4.7h-4.7c0 .2-.1.3-.1.5s.1.3.1.5z"/><path d="m1646 305.4a5.4 5.4 0 0 0 4.7-4.8h-4.7z"/><path d="m1650.7 299.7a5.2 5.2 0 1 0 -5.7 5.7v-5.7z"/><path d="m1650.7 299.7h-5.7v5.7h1v-4.8h4.7z"/><path d="m1682.6 299.7h4.7v-4.7a5.1 5.1 0 0 0 -4.7 4.7z"/><path d="m1688.2 305.4a5.3 5.3 0 0 0 4.7-4.8h-4.7z"/><path d="m1682.6 300.6a5.3 5.3 0 0 0 4.7 4.8v-4.8z"/><path d="m1688.2 295v4.7h4.7a5.1 5.1 0 0 0 -4.7-4.7z"/><path d="m1692.9 299.7h-4.7v.9h4.7a.6.6 0 0 0 .1-.4.9.9 0 0 0 -.1-.5z"/><path d="m1687.3 299.7h-4.7c0 .2-.1.3-.1.5s.1.3.1.4h4.7z"/><path d="m1687.8 294.9h-.5v4.7h.9v-4.6z"/><path d="m1687.3 300.6v4.8h.9v-4.8z"/><path d="m1687.3 300.6h.9v-.9h-.9z"/><path d="m1726.3 300.6a5.3 5.3 0 0 0 4.7 4.8v-4.8z"/><path d="m1731.9 295v4.7h4.7a5.1 5.1 0 0 0 -4.7-4.7z"/><path d="m1726.3 299.7h4.7v-4.7a5.1 5.1 0 0 0 -4.7 4.7z"/><path d="m1731.9 305.4a5.3 5.3 0 0 0 4.7-4.8h-4.7z"/><path d="m1731 299.7h-4.7a.9.9 0 0 0 -.1.5.6.6 0 0 0 .1.4h4.7z"/><path d="m1736.6 299.7h-4.7v.9h4.7c0-.1.1-.3.1-.4s-.1-.3-.1-.5z"/><path d="m1731.4 294.9h-.4v4.7h.9v-4.6z"/><path d="m1731 300.6v4.8h.9v-4.8z"/><path d="m1731 300.6h.9v-.9h-.9z"/><path d="m1692.9 226.4a5 5 0 0 0 -5.1-4.7 5.2 5.2 0 0 0 -.5 10.4v-5.7z"/><path d="m1688.2 232.1a5.2 5.2 0 0 0 4.7-4.7h-4.7z"/><path d="m1692.9 226.4h-5.6v5.7h.9v-4.7h4.7a1.1 1.1 0 0 0 .1-.5.9.9 0 0 0 -.1-.5z"/><path d="m1886.9 69v5.2a5.2 5.2 0 0 0 4.8-5.2 5.3 5.3 0 0 0 -10.5 0 5.2 5.2 0 0 0 4.8 5.2v-5.2z"/><path d="m1886.9 74.2v-5.2h-.9v5.2z"/><path d="m1844.6 9.8v5.2a5.2 5.2 0 0 0 4.8-5.2 5.2 5.2 0 0 0 -5.2-5.2 5.3 5.3 0 0 0 -5.3 5.2 5.2 5.2 0 0 0 4.8 5.2v-5.2z"/><path d="m1844.6 15v-5.2h-.9v5.2z"/><path d="m1810.8 81.7v5.2a5.2 5.2 0 0 0 4.8-5.2 5.3 5.3 0 0 0 -10.5 0 5.2 5.2 0 0 0 4.8 5.2v-5.2z"/><path d="m1810.8 86.9v-5.2h-.9v5.2z"/><path d="m1802.9 36.6a5.2 5.2 0 0 0 -1.7-3.8v7.7a5.6 5.6 0 0 0 1.7-3.9z"/><path d="m1792.4 36.6a5.2 5.2 0 0 0 4.8 5.2v-5.2h.9v5.2a5.3 5.3 0 0 0 1.8-.4v-9.5a5.4 5.4 0 0 0 -2.2-.5 5.2 5.2 0 0 0 -5.3 5.2z"/><path d="m1798.1 41.8v-5.2h-.9v5.2z"/><path d="m1780.3 3.8v-3.8h-4.5a5.1 5.1 0 0 0 4.5 3.8z"/><path d="m1781.2 3.8a5.4 5.4 0 0 0 4.6-3.8h-4.6z"/><path d="m1781.2 3.8v-3.8h-.9v3.8z"/><path d="m1747.4 31v5.2a5.2 5.2 0 0 0 -.5-10.4 5.2 5.2 0 0 0 -5.2 5.2 5.3 5.3 0 0 0 4.8 5.2v-5.2z"/><path d="m1747.4 36.2v-5.2h-.9v5.2z"/><path d="m1511.4 257.6 14.9-8.8v-7.7l-14.9 8.8z"/><path d="m1511.4 271.3 14.9-8.8v-7.6l-14.9 8.8z"/><path d="m1511.4 285.1 14.9-8.8v-7.6l-14.9 8.8z"/><path d="m1511.4 298.9 14.9-8.8v-7.7l-14.9 8.8z"/><path d="m1511.4 312.6 14.9-8.8v-7.6l-14.9 8.8z"/><path d="m1511.4 326.4 14.9-8.8v-7.6l-14.9 8.8z"/><path d="m1729.8 85.5 4.8-2.9v-2.5l-4.8 2.9z"/><path d="m1734.6 84.6-4.8 2.9v2.4l4.8-2.8z"/><path d="m1734.6 89.1-4.8 2.8v2.5l4.8-2.9z"/><path d="m1734.6 93.5-4.8 2.9v2.5l4.8-2.9z"/><path d="m1729.8 103.4 4.8-2.9v-2.5l-4.8 2.9z"/><path d="m1729.8 107.8 4.8-2.8v-2.5l-4.8 2.9z"/><path d="m1631.5 71.2-1.6-2.9-1.7-3-1.7 3-1.8 2.9h3.5z"/><path d="m1631.5 64.5-1.6-3-1.7-2.9-1.7 2.9-1.8 3h3.5z"/><path d="m1631.5 57.7-1.6-2.9-1.7-3-1.7 3-1.8 2.9h3.5z"/><path d="m1912.5 165.3-1.7-3-1.7-2.9-1.7 2.9-1.7 3h3.4z"/><path d="m1912.5 158.5-1.7-3-1.7-2.9-1.7 2.9-1.7 3h3.4z"/><path d="m1912.5 151.7-1.7-2.9-1.7-3-1.7 3-1.7 2.9h3.4z"/><path d="m1768.8 198.6-1.7-3-1.7-2.9-1.7 2.9-1.7 3h3.4z"/><path d="m1768.8 191.8-1.7-3-1.7-2.9-1.7 2.9-1.7 3h3.4z"/><path d="m1768.8 185-1.7-2.9-1.7-3-1.7 3-1.7 2.9h3.4z"/><path d="m1582.9 79.4h2v1.7h3.1l-2.1-3.5-2-3.6-2 3.6-2 3.5h3z"/><path d="m1582.9 81.1v48.3h2v-48.3h-1z"/><path d="m1582.9 79.4v1.7h1 1v-1.7z"/><path d="m1591.2 87.8h5.7v2.37h-5.7z"/><path d="m1591.2 92.3h5.7v2.37h-5.7z"/><path d="m1591.2 96.8h5.7v2.36h-5.7z"/><path d="m1591.2 101.3h5.7v2.37h-5.7z"/><path d="m1591.2 105.8h5.7v2.37h-5.7z"/><path d="m1591.2 110.3h5.7v2.37h-5.7z"/><path d="m1591.2 114.8h5.7v2.37h-5.7z"/><path d="m1591.2 119.3h5.7v2.36h-5.7z"/><path d="m1591.2 123.8h5.7v2.37h-5.7z"/><path d="m1000.9 267.6v73h1.3v-73z"/><path d="m1009 122.2a2 2 0 0 1 .1.7 1.7 1.7 0 0 1 -.1.7h24.3v-1.4z"/><path d="m1104.3 91.9v30.3h1.3v-30.3z"/><path d="m1001.5 130.4h-.6v135.8h1.3v-135.8z"/><path d="m1105 76.8h.6v-36.1l-1.3.4v35.8z"/><path d="m1105.6 26.7v-26.7h-1.3v26.3z"/><path d="m1037.1 122.2v1.4h20.5v-1.4z"/><path d="m1059 122.2v1.4h3.3v-1.4z"/><path d="m1079.9 122.2h-15.8v1.4h15.8z"/><path d="m1104.3 122.2h-.7v1.4h2v-1.4z"/><path d="m1081.2 122.2v1.4h21v-1.4z"/><path d="m1034.6 122.2h-1.3v1.4h2v-1.4z"/><path d="m1102.2 122.2v1.4h1.4v-1.4z"/><path d="m1000.9 266.2v1.4h1.3v-1.4z"/><path d="m1079.9 122.2v1.4h1.3v-1.4z"/><path d="m1104.3 41.1 1.3-.4v-6.4h-1.3z"/><path d="m1105.6 33v-6.3l-1.3-.4v6.7z"/><path d="m1154.3 10h-1.3v7.7l1.3 2.4z"/><path d="m1154.3 7.1v-7.1h-1.3v4.8z"/><path d="m1110.4 34.3h8.7v-1.3h-8.7z"/><path d="m1143.8 34.3.8-1.3h-23.7v1.3z"/><path d="m1154.3 26.2v-3.2h-1.3v3.2z"/><path d="m1095.4 34.3c0-.2-.1-.4-.1-.6s.1-.5.1-.7h-31.3v1.3z"/><path d="m1043.5 33.7v.6h18.8v-1.3h-18.8z"/><path d="m1104.3 33h-.7v1.3h.7z"/><path d="m1105.6 34.3h4.8v-1.3h-4.8z"/><path d="m1095.4 34.3h8.2v-1.3h-8.2c0 .2-.1.4-.1.7s.1.4.1.6z"/><path d="m1105.6 34.3v-1.3h-1.3v1.3z"/><path d="m1653.8 300.6v40h1.4v-40z"/><path d="m1609.2 170.2v29.4h1.4v-29.4z"/><path d="m1610.6 233.8v-33.2h-1.4v34.5h13.3v-1.3z"/><path d="m1610.6 133.9v-133.9h-1.4v133.2a6.1 6.1 0 0 1 1.4.7z"/><path d="m1610.6 142.3a6.1 6.1 0 0 1 -1.4.7v25.9h1.4z"/><path d="m1655.2 233.8h-31.8v1.3h30.4v64.6h1.4z"/><path d="m1610.6 199.6h-1.4v1h1.4z"/><path d="m1653.8 299.7v.9h1.4v-.9z"/><path d="m1622.5 233.8v1.3h.9v-1.3z"/><path d="m1610.6 137.6v-3.7a6.1 6.1 0 0 0 -1.4-.7v4.4z"/><path d="m1610.6 142.3v-3.7h-1.4v4.4a6.1 6.1 0 0 0 1.4-.7z"/><path d="m1610.6 137.6h-1.4v1h1.4z"/><path d="m1643 137.6v-137.6h-1.3v137.6z"/><path d="m1609.2 168.9h-1.3v1.3h1.3z"/><path d="m1610.6 168.9v1.3h32.4v-31.6h-1.3v30.3z"/><path d="m1576.9 168.9v1.3h30.1v-1.3z"/><path d="m1561.9 170.2a1.3 1.3 0 0 1 -.1-.6 1.5 1.5 0 0 1 .1-.7h-23.6v171.7h1.3v-170.4z"/><path d="m1643 138.6v-1h-1.3v1z"/><path d="m1607.9 168.9h-.9v1.3h.9z"/><path d="m1609.2 168.9v1.3h1.4v-1.3z"/><path d="m1285.4 206.6h.7v-115.5h-1.3v115.6z"/><path d="m1144.1 266.2h-6.1v1.4h6.1z"/><path d="m1286.1 89.3v-89.3h-1.3v89.3z"/><path d="m1285.4 221.7h-.6v8.1h1.3v-8.1z"/><path d="m1103.6 266.2v1.4h33.1v-1.4z"/><path d="m1090.8 274.4h-.7v66.2h1.3v-66.2z"/><path d="m1098.3 266.2v1.4h3.9v-1.4z"/><path d="m1284.8 266.2h-62.8v1.4h64.1v-36h-1.3z"/><path d="m1207 266.2h-47.9v1.4h47.9a1.7 1.7 0 0 1 -.1-.7 2 2 0 0 1 .1-.7z"/><path d="m1136.7 266.2v1.4h1.3v-1.4z"/><path d="m1102.2 266.2v1.4h1.4v-1.4z"/><path d="m1159.1 162.1h54.5v-.7h-54.5z"/><path d="m1229.3 162.1c0-.2-.1-.4-.1-.7s.1-.4.1-.6h-13.9v1.3z"/><path d="m1151.6 169h-.7v60.9h1.4v-61z"/><path d="m1236.8 153.9h.6v-62.8h-1.3v62.8z"/><path d="m1150.9 259.4h1.4v-27.8h-1.4z"/><path d="m1151.6 274.4h-.7v66.2h1.4v-66.2z"/><path d="m1237.4 89.3v-89.3h-1.3v89.3z"/><path d="m1293 214.2a2 2 0 0 1 -.1.7h4.4v-1.4h-4.4a1.5 1.5 0 0 1 .1.7z"/><path d="m1277.9 213.5h-62.5v1.4h62.5z"/><path d="m1328.7 106v-106h-1.3v106z"/><path d="m1328.7 214.9v-107.5h-1.3v106.1h-28.3v1.4z"/><path d="m1369.2 31.6v-.6h-7.9v1.3h7.9z"/><path d="m1396.3 39.8v136.5h1.4v-136.5z"/><path d="m1384.2 32.3h12.1v5.7h1.4v-7h-13.5z"/><path d="m1349 31v-31h-1.4v32.3h11.9v-1.3z"/><path d="m1397 191.3h-.7v149.3h1.4v-149.3z"/><path d="m1799.9 235.1h1.3v-42.4l-1.3.9z"/><path d="m1800.5 250.1h-.6v13h1.3v-13z"/><path d="m1799.9 184.1a3.8 3.8 0 0 1 1.3.9v-144.5l-1.3.9z"/><path d="m1748.4 22.2v-1.4h-33.4v1.4z"/><path d="m1763.4 22.2h16.9v-1.4h-16.9c0 .2.1.5.1.7s-.1.4-.1.7z"/><path d="m1799.9 264v76.6h1.3v-76.6z"/><path d="m1793 22.2v-1.4h-11.8v1.4z"/><path d="m1799.9 29v2.9a3.8 3.8 0 0 1 1.3.9v-3.8z"/><path d="m1710.7 20.8v1.4h3.4v-1.4z"/><path d="m1703.2 14h.7v-14h-1.4v14z"/><path d="m1781.2 22.2v-1.4h-.9v1.4z"/><path d="m1799.9 263.1v.9h1.3v-.9z"/><path d="m1715 20.8h-.9v1.4h.9z"/><path d="m1799.9 188.4h1.3v-3.4a3.8 3.8 0 0 0 -1.3-.9z"/><path d="m1799.9 193.6 1.3-.9v-3.4h-1.3z"/><path d="m1801.2 189.3v-.9h-1.3v.9z"/><path d="m1799.9 41.4 1.3-.9v-7.7a3.8 3.8 0 0 0 -1.3-.9z"/><path d="m1854.6 246.1v94.5h1.4v-93.5a7.1 7.1 0 0 1 -1.4-1z"/><path d="m1810.8 241.9v1.3h13.2v-1.3z"/><path d="m1756.6 241.9v-212.9h-1.4v214.2h25.1v-1.3z"/><path d="m1843.7 242.9v-1h-18.8v1.3h28.2v-.3z"/><path d="m1793 241.9h-11.8v1.3h11.8z"/><path d="m1808.1 242.6a1.3 1.3 0 0 1 -.1.6h1.9v-1.3h-1.9a1.5 1.5 0 0 1 .1.7z"/><path d="m1755.9 14h.7v-14h-1.4v14z"/><path d="m1780.3 241.9v1.3h.9v-1.3z"/><path d="m1809.9 241.9v1.3h.9v-1.3z"/><path d="m1853.1 242.9a4.3 4.3 0 0 0 -.1-.5c0-.2.1-.3.1-.5h-9.4v1z"/><path d="m1824 241.9v1.3h.9v-1.3z"/><path d="m1853.1 242.9v.3h1.5v2.9a7.1 7.1 0 0 0 1.4 1v-4.2z"/><path d="m1853.1 241.9c0 .2-.1.3-.1.5a4.3 4.3 0 0 1 .1.5h2.9v-1z"/><path d="m1423.4 183.1v1.3h27.9v-1.3z"/><path d="m1389.5 183.1h-12.1v-143.3h-1.4v144.6h13.5c0-.2-.1-.4-.1-.7s.1-.4.1-.6z"/><path d="m1404.5 183.1v1.3h17.1v-1.3z"/><path d="m1376.7 24.1h.7v-24.1h-1.4v24.1z"/><path d="m1453.1 183.1v1.3h4v156.2h1.4v-157.5z"/><path d="m1347.6 231.6v109h1.4v-109z"/><path d="m1347.6 107.4v122.4h1.4v-123.8h-20.3v1.4z"/><path d="m1309.8 99.1h.7v-99.1h-1.4v99.2z"/><path d="m1317.3 106v1.4h10.1v-1.4z"/><path d="m1327.4 107.4h1.3v-1.4h-1.3z"/><path d="m1438.2 38v-38h-1.3v38z"/><path d="m1499.7 128.4v212.2h1.4v-212.2z"/><path d="m1437.5 113.3h.7v-73.5h-1.3v73.6z"/><path d="m1492.9 120.2h-39.8v1.4h39.8z"/><path d="m1445.1 120.9a2 2 0 0 1 -.1.7h6.3v-1.4h-6.3a1.5 1.5 0 0 1 .1.7z"/><path d="m1569.4 177.1h-.7v163.5h1.3v-163.5z"/><path d="m1570 162.1v-155.4h-1.3v155.4z"/><path d="m1057.6 123.6v217h1.4v-217z"/><path d="m1057.6 85v37.2h1.4v-37.2z"/><path d="m1176.2 85a11.3 11.3 0 0 1 1-1.3h-56.3v1.3z"/><path d="m1190.1 76.8h.7v-76.8h-1.3v76.9z"/><path d="m1097.5 85a1.3 1.3 0 0 1 -.1-.6 1.5 1.5 0 0 1 .1-.7h-16.3v1.3z"/><path d="m1112.5 84.4v.6h6.6v-1.3h-6.6z"/><path d="m1057.6 83.7v1.3h4.7v-1.3z"/><path d="m1081.2 83.7h-17.1v1.3h17.1z"/><path d="m1057.6 122.2v1.4h1.4v-1.4z"/><path d="m1714.1 121.6v-1.4h-24.5v1.4z"/><path d="m1680.3 120.2v1.4h8.4v-1.4z"/><path d="m1672.8 113.3h.7v-113.3h-1.4v113.4z"/><path d="m1720.8 226.4h1.3v-106.2h-7.1v1.4h5.8z"/><path d="m1720.8 300.6v40h1.3v-40z"/><path d="m1720.8 227.4v72.3h1.3v-72.3z"/><path d="m1689.6 120.2h-.9v1.4h.9z"/><path d="m1720.8 299.7v.9h1.3v-.9z"/><path d="m1720.8 227.4h1.3v-1h-1.3z"/><path d="m1715 121.6v-1.4h-.9v1.4z"/><path d="m1672.1 113.4a7.5 7.5 0 1 0 8.2 8.2h-8.2z"/><path d="m1680.3 120.2a7.5 7.5 0 0 0 -6.8-6.8v6.8z"/><path d="m1680.3 120.2h-6.8v-6.8h-1.4v8.2h8.2z"/><path d="m1710.7 20.8a7.5 7.5 0 0 0 -6.8-6.8v6.8z"/><path d="m1702.5 14a7.5 7.5 0 0 0 -6.8 7.5 7.4 7.4 0 0 0 7.5 7.5 7.5 7.5 0 0 0 7.5-6.8h-8.2z"/><path d="m1710.7 20.8h-6.8v-6.8h-1.4v8.2h8.2z"/><path d="m1570 162.1v6.8h6.9a7.6 7.6 0 0 0 -6.9-6.8z"/><path d="m1561.9 170.2a7.6 7.6 0 0 0 6.8 6.9v-6.9z"/><path d="m1570 177.1a7.8 7.8 0 0 0 6.9-6.9h-6.9z"/><path d="m1568.7 162.1a7.5 7.5 0 0 0 -6.8 6.8h6.8z"/><path d="m1576.9 168.9h-6.9v1.3h6.9z"/><path d="m1561.9 170.2h6.8v-1.3h-6.8a1.5 1.5 0 0 0 -.1.7 1.3 1.3 0 0 0 .1.6z"/><path d="m1570 168.9v-6.8h-1.3v6.8z"/><path d="m1568.7 170.2v6.9h1.3v-6.9z"/><path d="m1570 168.9h-1.3v1.3h1.3z"/><path d="m1445 120.2a7.5 7.5 0 0 0 -6.8-6.8v6.8z"/><path d="m1436.9 113.4a7.4 7.4 0 0 0 -6.9 7.5 7.6 7.6 0 0 0 7.5 7.5 7.4 7.4 0 0 0 7.5-6.8h-8.1z"/><path d="m1436.9 113.4v8.2h8.1a2 2 0 0 0 .1-.7 1.5 1.5 0 0 0 -.1-.7h-6.8v-6.8z"/><path d="m1317.3 106a7.5 7.5 0 0 0 -6.8-6.8v6.8z"/><path d="m1309.1 99.2a7.5 7.5 0 1 0 8.2 8.2h-8.2z"/><path d="m1317.3 106h-6.8v-6.8h-1.4v8.2h8.2z"/><path d="m1384.2 32.3h-6.8v5.7h3.3a7.6 7.6 0 0 0 3.5-5.7z"/><path d="m1376 24.1a7.6 7.6 0 0 0 -6.8 6.9h6.8z"/><path d="m1384.2 31a7.6 7.6 0 0 0 -6.8-6.9v6.9z"/><path d="m1376 32.3h-6.8a7.6 7.6 0 0 0 3.5 5.7h3.3z"/><path d="m1369.2 32.3h6.8v-1.3h-6.8z"/><path d="m1377.4 32.3h6.8v-1.3h-6.8z"/><path d="m1376 32.3v5.7h1.4v-5.7z"/><path d="m1377.4 31v-6.9h-1.4v6.9z"/><path d="m1377.4 31h-1.4v1.3h1.4z"/><path d="m1508.5 6.7a7.5 7.5 0 0 0 7.5-6.7h-15a7.5 7.5 0 0 0 7.5 6.7z"/><path d="m1763.4 22.2h-6.8v6.8a7.5 7.5 0 0 0 6.8-6.8z"/><path d="m1763.4 20.8a7.5 7.5 0 0 0 -6.8-6.8v6.8z"/><path d="m1755.2 14a7.5 7.5 0 0 0 -6.8 6.8h6.8z"/><path d="m1755.2 29v-6.8h-6.8a7.5 7.5 0 0 0 6.8 6.8z"/><path d="m1748.4 22.2h6.8v-1.4h-6.8z"/><path d="m1756.6 22.2h6.8c0-.3.1-.5.1-.7s-.1-.5-.1-.7h-6.8z"/><path d="m1755.9 29h.7v-6.8h-1.4v6.8z"/><path d="m1756.6 20.8v-6.8h-1.4v6.8z"/><path d="m1756.6 20.8h-1.4v1.4h1.4z"/><path d="m1801.2 29a7.5 7.5 0 1 0 -8.2-8.2h8.2z"/><path d="m1799.9 29v-6.8h-6.9a7.6 7.6 0 0 0 6.9 6.8z"/><path d="m1793 22.2h6.9v6.8h1.3v-8.2h-8.2z"/><path d="m1808 241.9a7.5 7.5 0 0 0 -6.8-6.8v6.8z"/><path d="m1799.9 235.1a7.6 7.6 0 0 0 -6.9 6.8h6.9z"/><path d="m1801.2 250.1a7.6 7.6 0 0 0 6.8-6.9h-6.8z"/><path d="m1793 243.2a7.7 7.7 0 0 0 6.9 6.9v-6.9z"/><path d="m1799.9 235.1v6.8h1.3v-6.8z"/><path d="m1799.9 243.2v6.9h1.3v-6.9z"/><path d="m1799.9 241.9h-6.9v1.3h6.9z"/><path d="m1801.2 243.2h6.8a1.3 1.3 0 0 0 .1-.6 1.5 1.5 0 0 0 -.1-.7h-6.8z"/><path d="m1801.2 243.2v-1.3h-1.3v1.3z"/><path d="m1492.9 120.2h4.3v-6.1a7.3 7.3 0 0 0 -4.3 6.1z"/><path d="m1492.9 121.6a7.3 7.3 0 0 0 4.3 6.1v-6.1z"/><path d="m1499.7 128.4v-6.8h-.7v6.7z"/><path d="m1501.1 120.2v8.2a7.6 7.6 0 0 0 -.7-15.1l-1.4.2v6.7z"/><path d="m1499 120.2v1.4h.7v6.8h1.4v-8.2z"/><path d="m1492.9 120.9v.7h4.3v-1.4h-4.3z"/><path d="m1189.5 81.4v-4.5a7 7 0 0 0 -3.8 1.4v2a10.4 10.4 0 0 1 3.8 1.1z"/><path d="m1194.8 89.3h1a7.6 7.6 0 0 0 1.9-4.9 7.5 7.5 0 0 0 -6.9-7.5v5.3a10.3 10.3 0 0 1 4 7.1z"/><path d="m1190.8 82.2v-5.3h-1.3v4.5z"/><path d="m1561.9 0a7.5 7.5 0 0 0 6.8 6.7v-6.7z"/><path d="m1576.8 0h-6.8v6.7a7.4 7.4 0 0 0 6.8-6.7z"/><path d="m1570 6.7v-6.7h-1.3v6.7z"/><path d="m1397.7 191.3a7.7 7.7 0 0 0 6.8-6.9h-6.8z"/><path d="m1389.5 183.1h6.8v-6.8a7.5 7.5 0 0 0 -6.8 6.8z"/><path d="m1389.5 184.4a7.7 7.7 0 0 0 6.8 6.9v-6.9z"/><path d="m1397.7 176.3v6.8h6.8a7.5 7.5 0 0 0 -6.8-6.8z"/><path d="m1397.7 191.3v-6.9h-1.4v6.9z"/><path d="m1397.7 176.3h-1.4v6.8h1.4z"/><path d="m1396.3 183.1h-6.8c0 .2-.1.4-.1.6s.1.5.1.7h6.8z"/><path d="m1404.5 183.1h-6.8v1.3h6.8z"/><path d="m1396.3 183.1v1.3h1.4v-1.3z"/><path d="m1229.3 162.1a7.4 7.4 0 0 0 7.5 6.9 7.6 7.6 0 0 0 .6-15.1v8.2z"/><path d="m1236.1 153.9a7.6 7.6 0 0 0 -6.8 6.9h6.8z"/><path d="m1229.3 162.1h8.1v-8.2h-1.3v6.9h-6.8c0 .2-.1.4-.1.6s.1.5.1.7z"/><path d="m1277.9 214.9a7.6 7.6 0 0 0 6.9 6.8v-6.8z"/><path d="m1286.1 221.7a7.5 7.5 0 0 0 6.8-6.8h-6.8z"/><path d="m1284.8 206.7a7.6 7.6 0 0 0 -6.9 6.8h6.9z"/><path d="m1292.9 213.5a7.5 7.5 0 0 0 -6.8-6.8v6.8z"/><path d="m1286.1 213.5v-6.8h-1.3v6.8z"/><path d="m1284.8 214.9v6.8h1.3v-6.8z"/><path d="m1292.9 213.5h-6.8v1.4h6.8a2 2 0 0 0 .1-.7 1.5 1.5 0 0 0 -.1-.7z"/><path d="m1284.8 213.5h-6.9v1.4h6.9z"/><path d="m1284.8 214.9h1.3v-1.4h-1.3z"/><path d="m1104.3 76.9h-.7v6.7h.7z"/><path d="m1102.2 91.4v-6.4h-4.7a7.4 7.4 0 0 0 4.7 6.4z"/><path d="m1102.2 77.4a7.3 7.3 0 0 0 -4.7 6.3h4.7z"/><path d="m1112.5 83.7a7.6 7.6 0 0 0 -6.9-6.8v6.8z"/><path d="m1105.6 91.9a7.7 7.7 0 0 0 6.9-6.9h-6.9z"/><path d="m1103.6 91.8h.7v-6.8h-.7z"/><path d="m1103.6 91.8v-6.8h-1.4v6.4z"/><path d="m1103.6 83.7v-6.7l-1.4.4v6.3z"/><path d="m1104.3 76.9v6.8h1.3v-6.8z"/><path d="m1104.3 85v6.9h1.3v-6.9z"/><path d="m1105.6 85h6.9v-1.3h-6.9z"/><path d="m1104.3 85v-1.3h-.7v1.3z"/><path d="m1097.5 85h4.7v-1.3h-4.7a1.5 1.5 0 0 0 -.1.7 1.3 1.3 0 0 0 .1.6z"/><path d="m1103.6 83.7h-1.4v1.3h1.4z"/><path d="m1105.6 85v-1.3h-1.3v1.3z"/><path d="m1037.1 26.2v6.8h6.4a7.5 7.5 0 0 0 -6.4-6.8z"/><path d="m1043.5 34.3h-6.4v6.8a7.5 7.5 0 0 0 6.4-6.8z"/><path d="m1033.3 26.7a7.6 7.6 0 0 0 -4.8 6.3h4.8z"/><path d="m1033.3 40.7v-6.4h-4.8a7.9 7.9 0 0 0 4.8 6.4z"/><path d="m1035.3 33v-6.8h-.7v6.8z"/><path d="m1035.3 34.3h-.7v6.8h.7z"/><path d="m1034.6 33v-6.7l-1.3.4v6.3z"/><path d="m1034.6 41.1v-6.8h-1.3v6.4z"/><path d="m1028.5 34.3h4.8v-1.3h-4.8z"/><path d="m1035.3 34.3v-1.3h-.7v1.3z"/><path d="m1034.6 33h-1.3v1.3h1.3z"/><path d="m1043.5 34.3v-1.3h-6.4v1.3z"/><path d="m1002.2 130.4a7.5 7.5 0 0 0 6.8-6.8h-6.8z"/><path d="m997.5 116.5a7.5 7.5 0 0 0 -2.4 2.6h2.4z"/><path d="m1009 122.2a7.4 7.4 0 0 0 -7.5-6.8 8.3 8.3 0 0 0 -2.2.3v5.2h-5a6.4 6.4 0 0 0 -.3 2 7.5 7.5 0 0 0 6.9 7.5v-8.2z"/><path d="m1009 122.2h-8.1v8.2h1.3v-6.8h6.8a1.7 1.7 0 0 0 .1-.7 2 2 0 0 0 -.1-.7z"/><path d="m1153 30.7v-4.5a5.6 5.6 0 0 0 -2.3.5l2 3.6z"/><path d="m1156 35.9h-9.6a7.6 7.6 0 0 0 14.8-2.2 7.5 7.5 0 0 0 -6.9-7.5v6.8z"/><path d="m1154.3 33v-6.8h-1.3v4.5z"/><path d="m1098.3 266.2a7.6 7.6 0 1 0 -8.2 8.2v-8.2z"/><path d="m1091.4 274.4a7.6 7.6 0 0 0 6.9-6.8h-6.9z"/><path d="m1098.3 266.2h-8.2v8.2h1.3v-6.8h6.9z"/><path d="m1152.3 274.4a7.5 7.5 0 0 0 6.8-6.8h-6.8z"/><path d="m1152.3 259.4v6.8h6.8a7.5 7.5 0 0 0 -6.8-6.8z"/><path d="m1144.1 267.6a7.5 7.5 0 0 0 6.8 6.8v-6.8z"/><path d="m1144.1 266.2h6.8v-6.8a7.5 7.5 0 0 0 -6.8 6.8z"/><path d="m1150.9 266.2h-6.8v1.4h6.8z"/><path d="m1159.1 266.2h-6.8v1.4h6.8z"/><path d="m1150.9 267.6v6.8h1.4v-6.8z"/><path d="m1151.6 259.4h-.7v6.8h1.4v-6.8z"/><path d="m1150.9 267.6h1.4v-1.4h-1.4z"/><path d="m1215.4 259.4v6.8h6.6a7.7 7.7 0 0 0 -6.6-6.8z"/><path d="m1215.4 274.4a7.7 7.7 0 0 0 6.6-6.8h-6.6z"/><path d="m1207 266.2h6.6v-6.8a7.6 7.6 0 0 0 -6.6 6.8z"/><path d="m1207 267.6a7.6 7.6 0 0 0 6.6 6.8v-6.8z"/><path d="m1213.6 266.2h-6.6a2 2 0 0 0 -.1.7 1.7 1.7 0 0 0 .1.7h6.6z"/><path d="m1222 266.2h-6.6v1.4h6.6z"/><path d="m1152.3 168.9a7.5 7.5 0 0 0 6.8-6.8h-6.8z"/><path d="m1150.9 168.9v-7.5h-6.8a7.4 7.4 0 0 0 6.8 7.5z"/><path d="m1151.6 153.9a7.5 7.5 0 0 0 -7.3 5.7h14.6a7.5 7.5 0 0 0 -7.3-5.7z"/><path d="m1151.6 169h.7v-6.8h6.8v-.7h-8.2v7.5z"/><path d="m944 190.3 13.5-7.9v-6.9l-13.5 7.9z"/><path d="m957.5 187.9-13.5 7.9v6.9l13.5-8z"/><path d="m957.5 200.3-13.5 7.9v6.8l13.5-7.9z"/><path d="m957.5 212.7-13.5 7.9v6.8l13.5-7.9z"/><path d="m944 239.8 13.5-7.9v-6.9l-13.5 7.9z"/><path d="m944 252.2 13.5-7.9v-6.9l-13.5 7.9z"/><path d="m1530.2 99.1 7-4.1v-3.5l-7 4.1z"/><path d="m1530.2 105.6 7-4.1v-3.6l-7 4.1z"/><path d="m1530.2 112 7-4.1v-3.6l-7 4.2z"/><path d="m1530.2 118.5 7-4.2v-3.5l-7 4.1z"/><path d="m1530.2 124.9 7-4.1v-3.6l-7 4.1z"/><path d="m1530.2 131.3 7-4.1v-3.5l-7 4.1z"/><path d="m1703.3 58.1-6.9 4.1v3.6l6.9-4.1z"/><path d="m1703.3 64.5-6.9 4.1v3.6l6.9-4.1z"/><path d="m1703.3 71-6.9 4.1v3.5l6.9-4.1z"/><path d="m1703.3 77.4-6.9 4.1v3.6l6.9-4.1z"/><path d="m1703.3 83.8-6.9 4.2v3.5l6.9-4.1z"/><path d="m1703.3 90.3-6.9 4.1v3.6l6.9-4.2z"/><path d="m1870.9 29.2-15.2 8.9v7.7l15.2-8.9z"/><path d="m1870.9 50.9v-7.7l-15.2 8.9v7.7z"/><path d="m1870.9 57.1-15.2 9v7.7l15.2-8.9z"/><path d="m1870.9 78.8v-7.7l-15.2 8.9v7.8z"/><path d="m1870.9 85.1-15.2 8.9v7.7l15.2-8.9z"/><path d="m1870.9 99.1-15.2 8.9v7.7l15.2-8.9z"/><path d="m1470.1 64.3-2.4 4.2-2.4 4.2h4.8 4.9l-2.4-4.2z"/><path d="m1470.1 54.5-2.4 4.3-2.4 4.2h4.8 4.9l-2.4-4.2z"/><path d="m1470.1 44.8-2.4 4.2-2.4 4.3h4.8 4.9l-2.4-4.3z"/><path d="m1268.2 120.7-2.5-4.3-2.4-4.2-2.5 4.2-2.4 4.3h4.9z"/><path d="m1268.2 110.9-2.5-4.2-2.4-4.2-2.5 4.2-2.4 4.2h4.9z"/><path d="m1268.2 101.2-2.5-4.2-2.4-4.3-2.5 4.3-2.4 4.2h4.9z"/><path d="m1361.3 31v-31h-1.8v31z"/><path d="m1421.6 39.8v-1.8h-23.9v1.8z"/><path d="m1498.1 48.9h-.9v65.2a6.4 6.4 0 0 1 1.8-.6v-64.6z"/><path d="m1497.2 127.7v212.9h1.8v-212.3a6.4 6.4 0 0 1 -1.8-.6z"/><path d="m1436.9 39.8v-1.8h-13.5v1.8z"/><path d="m1372.7 38h-11.4v-5.7h-1.8v7.5h16.5v-.7a7.6 7.6 0 0 1 -3.3-1.1z"/><path d="m1396.3 38h-15.6a7.6 7.6 0 0 1 -3.3 1.1v.7h18.9z"/><path d="m1451.3 39.8v-1.8h-13.1v1.8z"/><path d="m1488.1 39.8v-1.8h-35v1.8z"/><path d="m1396.3 39.8h1.4v-1.8h-1.4z"/><path d="m1361.3 31h-1.8v1.3h1.8z"/><path d="m1377.4 39.1h-1.4v.7h1.4z"/><path d="m1438.2 39.8v-1.8h-1.3v1.8z"/><path d="m1372.7 38a7.6 7.6 0 0 0 3.3 1.1v-1.1z"/><path d="m1377.4 38v1.1a7.6 7.6 0 0 0 3.3-1.1z"/><path d="m1376 38v1.1h1.4v-1.1z"/><path d="m1497.2 127.7a6.4 6.4 0 0 0 1.8.6v-6.7h-1.8z"/><path d="m1497.2 120.2h1.8v-6.7a6.4 6.4 0 0 0 -1.8.6z"/><path d="m1499 121.6v-1.4h-1.8v1.4z"/><path d="m1451.3 183.1h1.8v-61.5h-1.8z"/><path d="m1453.1 38v-38h-1.8v38z"/><path d="m1453.1 120.2v-80.4h-1.8v80.4z"/><path d="m1451.3 184.4v156.2h1.8v-156.2z"/><path d="m1451.3 184.4h1.8v-1.3h-1.8z"/><path d="m1451.3 120.2v1.4h1.8v-1.4z"/><path d="m1451.3 39.8h1.8v-1.8h-1.8z"/><path d="m637.8 188.4v-1.8h-10.4v154h1.8v-152.2z"/><path d="m688.7 100.1v-100.1h-1.8v100.1z"/><path d="m688.7 183.1v-61.5h-1.8v61.5z"/><path d="m686.9 186.6h-5.2v1.8h7v-4h-1.8z"/><path d="m688.7 101.9h-1.8v18.3h1.8z"/><path d="m639.2 186.6v1.8h41.2v-1.8z"/><path d="m680.4 186.6v1.8h1.3v-1.8z"/><path d="m686.9 183.1v1.3h1.8v-1.3z"/><path d="m688.7 121.6v-1.4h-1.8v1.4z"/><path d="m639.2 188.4v-1.8h-1.4v1.8z"/><path d="m731.8 101.9v-1.8h-29.8v1.8z"/><path d="m700.7 100.1h-12v1.8h12z"/><path d="m645.4 100.1v-100.1h-1.8v101.9h43.3v-1.8z"/><path d="m762.9 101.9h18.5v238.7h1.8v-240.5h-20.3z"/><path d="m751.8 101v.9h9.7v-1.8h-9.7z"/><path d="m761.5 101.9h1.4v-1.8h-1.4z"/><path d="m702 101.9v-1.8h-1.3v1.8z"/><path d="m688.7 100.1h-1.8v1.8h1.8z"/><path d="m1138 229.8v1.8h12.9v-1.8z"/><path d="m1120.9 33v-33h-1.8v33z"/><path d="m1378.4 240.7v99.9h1.8v-99.9z"/><path d="m1288.2 229.8h-2.1v1.8h2.1z"/><path d="m1369.3 231.6c0-.3-.1-.6-.1-.9s.1-.6.1-.9h-20.3v1.8z"/><path d="m1308.2 229.8c0 .3.1.6.1.9s-.1.6-.1.9h39.4v-1.8z"/><path d="m1204.5 229.8h-52.2v1.8h52.2z"/><path d="m1120.9 229.8v-59.3h-1.8v61.1h17.6v-1.8z"/><path d="m1120.9 122.2v-37.2h-1.8v37.2z"/><path d="m1120.9 150.5v-26.9h-1.8v26.9z"/><path d="m1119.1 83.7h1.8v-49.4h-1.8z"/><path d="m1224.5 230.7v.9h60.3v-1.8h-60.3z"/><path d="m1120.9 122.2h-1.8v1.4h1.8z"/><path d="m1136.7 229.8v1.8h1.3v-1.8z"/><path d="m1120.9 34.3v-1.3h-1.8v1.3z"/><path d="m1284.8 229.8v1.8h1.3v-1.8z"/><path d="m1150.9 229.8v1.8h1.4v-1.8z"/><path d="m1347.6 231.6h1.4v-1.8h-1.4z"/><path d="m1119.1 85h1.8v-1.3h-1.8z"/><path d="m1185.7 78.3v-78.3h-1.8v80.2a6.6 6.6 0 0 1 1.8-1.9z"/><path d="m1284.8 91.1v-1.8h-47.4v1.8z"/><path d="m1194.8 91.1h41.3v-1.8h-40.3a4.7 4.7 0 0 1 -1 1z"/><path d="m1298.2 240.8h-.9v99.9h1.8v-100z"/><path d="m1298.2 220.7h.9v-5.8h-1.8v5.8z"/><path d="m1297.3 100.2v113.3h1.8v-113.3z"/><path d="m1288.2 91.1v-1.8h-2.1v1.8z"/><path d="m1286.1 91.1v-1.8h-1.3v1.8z"/><path d="m1237.4 91.1v-1.8h-1.3v1.8z"/><path d="m1297.3 214.9h1.8v-1.4h-1.8z"/><path d="m1184.8 80.2h.9v-2a6.6 6.6 0 0 0 -1.8 1.9h.9z"/><path d="m1194.8 90.2a4.7 4.7 0 0 0 1-1h-1z"/><path d="m1213.6 220.7h.2v-7.2h1.6v-51.4h-1.8z"/><path d="m1064.1 83.7v-49.4h-1.8v49.4z"/><path d="m1081.2 159.6v1.8h21v-1.8z"/><path d="m1215.4 160.8v-1.2h-56.5a5 5 0 0 1 .2 1.2z"/><path d="m1064.1 16.4v-16.4h-1.8v16.4z"/><path d="m1213.6 274.4v66.2h.2v-66.2z"/><path d="m1215.1 274.4v66.2h.3v-66.2z"/><path d="m1130 160.5a2.8 2.8 0 0 1 -.1.9h6.8v-1.8h-6.8a2.8 2.8 0 0 1 .1.9z"/><path d="m1109.9 160.5a2.8 2.8 0 0 1 .1-.9h-6.4v1.8h6.4a2.8 2.8 0 0 1 -.1-.9z"/><path d="m1062.3 33h1.8v-14.8h-1.8z"/><path d="m1062.3 85v37.2h1.8v-37.2z"/><path d="m1213.6 240.7v18.7h.2v-18.7z"/><path d="m1064.1 159.6v-36h-1.8v37.8h17.6v-1.8z"/><path d="m1215.1 259.4h.3v-18.7h-.3z"/><path d="m1215.1 220.7h.3v-5.8h-.3z"/><path d="m1144.1 161.4a11 11 0 0 1 .2-1.8h-6.3v1.8z"/><path d="m1136.7 161.4h1.3v-1.8h-1.3z"/><path d="m1103.6 159.6h-1.4v1.8h1.4z"/><path d="m1079.9 159.6v1.8h1.3v-1.8z"/><path d="m1064.1 122.2h-1.8v1.4h1.8z"/><path d="m1062.3 34.3h1.8v-1.3h-1.8z"/><path d="m1159.1 161.4h54.5v.7h1.8v-1.3h-56.3z"/><path d="m1214.5 274.4h-.7v66.2h1.3v-66.2z"/><path d="m1214.5 240.8h-.7v18.7h1.3v-18.8z"/><path d="m1213.8 213.5v7.2h1.3v-5.8h.3v-1.4z"/><path d="m1062.3 83.7v1.3h1.8v-1.3z"/><path d="m1213.8 259.4h-.2v6.8h.2z"/><path d="m1215.1 267.6v6.8h.3v-6.8z"/><path d="m1213.6 267.6v6.8h.2v-6.8z"/><path d="m1215.1 259.4v6.8h.3v-6.8z"/><path d="m1213.6 266.2v1.4h.2v-1.4z"/><path d="m1215.1 267.6h.3v-1.4h-.3z"/><path d="m1213.8 259.4v6.8h1.3v-6.8z"/><path d="m1213.8 267.6v6.8h1.3v-6.8z"/><path d="m1213.8 266.2v1.4h1.3v-1.4z"/><path d="m1150.9 161.4v-.6h8.2a5 5 0 0 0 -.2-1.2h-14.6a11 11 0 0 0 -.2 1.8z"/><path d="m1159.1 160.8h-8.2v.6h8.2z"/><path d="m970.5 267.6v73h1.8v-73z"/><path d="m972.3 110v-25h-1.8v25z"/><path d="m970.5 129.9v30.9h1.8v-30.9z"/><path d="m972.3 83.7v-83.7h-1.8v83.7z"/><path d="m970.5 162.1v104.1h1.8v-104.1z"/><path d="m970.5 266.2v1.4h1.8v-1.4z"/><path d="m970.5 162.1h1.8v-1.3h-1.8z"/><path d="m972.3 83.7h-1.8v1.3h1.8z"/><path d="m432.9 79.9 1.9 1.1v-2.9l-1.9-1.1z"/><path d="m432.9 92.8 1.9 1v-2.8l-1.9-1.1z"/><path d="m432.9 208.3v18.1h1.9v-18.1z"/><path d="m434.8 14v-14h-1.9v14.5z"/><path d="m432.9 120.2h1.9v-22.8l-1.9-1.1z"/><path d="m433.9 188.3h.9v-14.5h-1.9v14.5z"/><path d="m434.8 172.9v-51.3h-1.9v51.3z"/><path d="m432.9 227.4v72.3h1.9v-72.3z"/><path d="m432.9 86.3 1.9 1.1v-2.9l-1.9-1z"/><path d="m432.9 60.6 1.9 1v-32.6l-1.9-.5z"/><path d="m432.9 67 1.9 1.1v-2.9l-1.9-1z"/><path d="m432.9 300.6v40h1.9v-40z"/><path d="m432.9 73.5 1.9 1v-2.8l-1.9-1.1z"/><path d="m432.9 299.7v.9h1.9v-.9z"/><path d="m432.9 227.4h1.9v-1h-1.9z"/><path d="m434.8 173.8v-.9h-1.9v.9z"/><path d="m432.9 121.6h1.9v-1.4h-1.9z"/><path d="m432.9 22.2v6.3l1.9.5v-6.8z"/><path d="m434.8 20.8v-6.8l-1.9.5v6.3z"/><path d="m434.8 20.8h-1.9v1.4h1.9z"/><path d="m432.9 64.2 1.9 1v-3.6l-1.9-1z"/><path d="m432.9 70.6 1.9 1.1v-3.6l-1.9-1.1z"/><path d="m432.9 77 1.9 1.1v-3.6l-1.9-1z"/><path d="m432.9 83.5 1.9 1v-3.5l-1.9-1.1z"/><path d="m432.9 89.9 1.9 1.1v-3.6l-1.9-1.1z"/><path d="m432.9 96.3 1.9 1.1v-3.6l-1.9-1z"/><path d="m360 300.6v40h1.8v-40z"/><path d="m361.8 199.2h20.5v-1.8h-6l.6 1.1h-6.8l.7-1.1h-10.8v44.5h1.8z"/><path d="m416.8 199.2v-1.8h-24.4v1.8z"/><path d="m423.8 198.3a2.8 2.8 0 0 1 .1-.9h-5.8v1.8h5.8a2.8 2.8 0 0 1 -.1-.9z"/><path d="m360 268.4v31.3h1.8v-32.5a5.7 5.7 0 0 1 -1.8 1.2z"/><path d="m484 197.4v1.8h10.2v-25.4h-1.8v23.6z"/><path d="m494.2 137.6v-137.6h-1.8v137.6z"/><path d="m443.8 197.4a4.1 4.1 0 0 1 0 1.8h39.3v-1.8z"/><path d="m360 258.7a4.2 4.2 0 0 1 1.8 1.1v-16.6h-1.8z"/><path d="m383.6 197.4v1.8h7.9v-1.8z"/><path d="m494.2 172.9v-34.3h-1.8v34.3z"/><path d="m484 197.4h-.9v1.8h.9z"/><path d="m494.2 138.6v-1h-1.8v1z"/><path d="m360 299.7v.9h1.8v-.9z"/><path d="m392.4 197.4h-.9v1.8h.9z"/><path d="m492.4 173.8h1.8v-.9h-1.8z"/><path d="m360 263.1h1.8v-3.3a4.2 4.2 0 0 0 -1.8-1.1z"/><path d="m360 264v4.4a5.7 5.7 0 0 0 1.8-1.2v-3.2z"/><path d="m361.8 263.1h-1.8v.9h1.8z"/><path d="m373.5 198.5h3.4l-.6-1.1h-5.5l-.7 1.1z"/><path d="m382.3 197.4v1.8h1.3v-1.8z"/><path d="m360 241.9v1.3h1.8v-1.3z"/><path d="m418.1 199.2v-1.8h-1.3v1.8z"/><path d="m889.5 213.5h1.8v-92.6h10.1v-1.8h-11.9z"/><path d="m889.5 267.6v73h1.8v-73z"/><path d="m999.3 115.7v-30.7h-1.8v31.5z"/><path d="m999.3 33v-33h-1.8v33z"/><path d="m889.5 214.9v51.3h1.8v-51.3z"/><path d="m981.4 119.1v1.8h12.9a4.9 4.9 0 0 1 .8-1.8z"/><path d="m999.3 34.3h-1.8v49.4h1.8z"/><path d="m961.4 120.9v-1.8h-58.6v1.8z"/><path d="m999.3 33h-1.8v1.3h1.8z"/><path d="m889.5 266.2v1.4h1.8v-1.4z"/><path d="m901.4 120.9h1.4v-1.8h-1.4z"/><path d="m889.5 214.9h1.8v-1.4h-1.8z"/><path d="m999.3 85v-1.3h-1.8v1.3z"/><path d="m999.3 115.7-1.8.8v2.6h-2.4a4.9 4.9 0 0 0 -.8 1.8h5z"/><path d="m1035.3 267.6v73z"/><path d="m1087.5 7.3h.9v-7.3h-1.8v7.3z"/><path d="m1035.3 122.2v-30.4z"/><path d="m1036.7 267.6v73h.4v-73z"/><path d="m1036.7 91.4v30.8h.4v-31z"/><path d="m1077.6 18.2a2.8 2.8 0 0 1 -.1-.9 2.8 2.8 0 0 1 .1-.9h-13.5v1.8z"/><path d="m1037.1 26.2v-8h25.2v-1.8h-27v9.8z"/><path d="m1035.3 41.2v35.8z"/><path d="m1035.3 123.6v142.6z"/><path d="m1036.7 77.4h.4v-36.3h-.4z"/><path d="m1036.7 266.2h.4v-142.6h-.4z"/><path d="m1036.7 267.6h.4v-1.4h-.4z"/><path d="m1035.3 266.2v1.4z"/><path d="m1035.3 83.7v-6.7z"/><path d="m1036.7 83.7h.4v-6.2h-.4z"/><path d="m1036.7 85v6.4l.4-.2v-6.2z"/><path d="m1035.3 85v6.8z"/><path d="m1035.3 83.7v1.3z"/><path d="m1036.7 85h.4v-1.3h-.4z"/><path d="m1036.7 122.2v1.4h.4v-1.4z"/><path d="m1035.3 123.6v-1.4z"/><path d="m1035.3 91.8v30.4h1.4v-30.8z"/><path d="m1036.7 77.4v-36.2h-1.4v35.8z"/><path d="m1035.3 266.2h1.4v-142.6h-1.4z"/><path d="m1035.3 267.6v73h1.4v-73z"/><path d="m1035.3 266.2v1.4h1.4v-1.4z"/><path d="m1035.3 85v6.8l1.4-.4v-6.4z"/><path d="m1035.3 83.7h1.4v-6.3l-1.4-.4z"/><path d="m1035.3 83.7v1.3h1.4v-1.3z"/><path d="m1035.3 123.6h1.4v-1.4h-1.4z"/><path d="m1035.3 33h1.8v-6.8h-1.8z"/><path d="m1037.1 41.1v-6.8h-.4v6.9z"/><path d="m1035.3 41.2v-6.9z"/><path d="m1035.3 34.3v-1.3z"/><path d="m1036 41.2h.7v-6.9h-1.4v6.9z"/><path d="m1036.7 34.3h.4v-1.3h-1.8v1.3z"/><path d="m1064.1 18.2v-1.8h-1.8v1.8z"/><path d="m832.7 214.9v125.7h1.8v-125.7z"/><path d="m901.4 37.1v-1.8h-47.3v1.8z"/><path d="m843.6 37.1h9.2v-1.8h-9.2c0 .3.1.6.1.9s-.1.6-.1.9z"/><path d="m832.7 113.3v100.2h1.8v-101.6a8.6 8.6 0 0 1 -1.8 1.4z"/><path d="m834.5 101.5v-55.3h-1.8v53.9a4.9 4.9 0 0 1 1.8 1.4z"/><path d="m917.4 26.2h.9v-26.2h-1.8v26.2z"/><path d="m907.4 37.1a4.1 4.1 0 0 1 0-1.8h-4.6v1.8z"/><path d="m854.1 37.1v-1.8h-1.3v1.8z"/><path d="m902.8 37.1v-1.8h-1.4v1.8z"/><path d="m832.7 213.5v1.4h1.8v-1.4z"/><path d="m834.5 101.5a4.9 4.9 0 0 0 -1.8-1.4v13.2a8.6 8.6 0 0 0 1.8-1.4z"/><path d="m740.9 191.2v149.4h.3v-149.3z"/><path d="m742.6 176.3h.1v-65.3h-.1z"/><path d="m741.2 111.1h-.3v65.3h.3z"/><path d="m742.7 32.3h-.1v58.8h.1z"/><path d="m741.2 91v-60h1.5v-31h-1.8v91.1z"/><path d="m742.6 191.3v149.3h.1v-149.4a.1.1 0 0 0 -.1.1z"/><path d="m741.9 191.3h-.7v149.3h1.4v-149.3z"/><path d="m742.6 91.1v-58.8h.1v-1.3h-1.5v60h1.4z"/><path d="m741.8 111.1h-.6v65.2h1.4v-65.3z"/><path d="m742.6 176.3v6.8h.1v-6.8z"/><path d="m742.6 184.4v6.9a.1.1 0 0 1 .1-.1v-6.8z"/><path d="m741.2 176.3h-.3v6.8h.3z"/><path d="m740.9 184.4v6.8h.3v-6.9z"/><path d="m741.2 184.4v6.9h1.4v-6.9z"/><path d="m741.2 176.3v6.8h1.4v-6.8z"/><path d="m742.6 184.4h.1v-1.3h-.1z"/><path d="m740.9 183.1v1.3h.3v-1.3z"/><path d="m741.2 183.1v1.3h1.4v-1.3z"/><path d="m1423.4 38v-38h-1.8v38z"/><path d="m1421.6 39.8v143.3h1.8v-143.3z"/><path d="m1421.6 184.4v156.2h1.8v-156.2z"/><path d="m1421.6 183.1v1.3h1.8v-1.3z"/><path d="m1423.4 39.8v-1.8h-1.8v1.8z"/><path d="m538.3 200.6v140h1.8v-140z"/><path d="m538.3 168.9h1.8v-131.8h28.8v-1.8h-30.6z"/><path d="m603.1 26.2h1.8v-26.2h-1.8z"/><path d="m594 35.3h-23.8v1.8h23.8z"/><path d="m538.3 199.6h1.8v-29.4h-1.8z"/><path d="m538.3 200.6h1.8v-1h-1.8z"/><path d="m538.3 168.9v1.3h1.8v-1.3z"/><path d="m568.9 35.3v1.8h1.3v-1.8z"/><path d="m594 35.3h9.1v-9.1a10.1 10.1 0 0 0 -9.1 9.1z"/><path d="m594 37.1a10.1 10.1 0 1 0 10.9-10.9v10.9z"/><path d="m603.1 26.2v9.1h-9.1v1.8h10.9v-10.9z"/><path d="m731.8 101.9a10 10 0 0 0 9.1 9.1v-9.1z"/><path d="m751.8 100.1a10 10 0 0 0 -9.1-9v9z"/><path d="m742.7 111a10 10 0 0 0 9.1-9.1h-9.1z"/><path d="m740.9 91.1a9.9 9.9 0 0 0 -9.1 9h9.1z"/><path d="m731.8 101.9h9.1v-1.8h-9.1z"/><path d="m742.7 101.9h9.1v-1.8h-9.1z"/><path d="m742.7 91.1h-.1v9h.1z"/><path d="m742.6 101.9v9.1h.1v-9.1z"/><path d="m741.2 101.9h-.3v9.1h.3z"/><path d="m741.2 100.1v-9.1h-.3v9z"/><path d="m742.6 100.1v-9h-1.4v9.1z"/><path d="m742.6 111v-9.1h-1.4v9.2h1.4z"/><path d="m741.2 100.1h-.3v1.8h.3z"/><path d="m742.7 101.9v-1.8h-.1v1.8z"/><path d="m742.6 101.9v-1.8h-1.4v1.8z"/><path d="m916.5 26.2a10 10 0 0 0 -9.1 9.1h9.1z"/><path d="m907.4 37.1a10 10 0 0 0 20-.9 10.1 10.1 0 0 0 -9.1-10v10.9z"/><path d="m907.4 37.1h10.9v-10.9h-1.8v9.1h-9.1a4.1 4.1 0 0 0 0 1.8z"/><path d="m1086.6 7.3a9.9 9.9 0 0 0 -9 9.1h9z"/><path d="m1077.6 18.2a9.9 9.9 0 0 0 9.9 9.1 10 10 0 0 0 .9-20v10.9z"/><path d="m1077.6 18.2h10.8v-10.9h-1.8v9.1h-9a2.8 2.8 0 0 0 -.1.9 2.8 2.8 0 0 0 .1.9z"/><path d="m432.9 208.3v-9.1h-9a9.9 9.9 0 0 0 9 9.1z"/><path d="m423.9 197.4h9v-9.1a9.9 9.9 0 0 0 -9 9.1z"/><path d="m434.8 188.3v9.1h9a9.9 9.9 0 0 0 -9-9.1z"/><path d="m434.8 208.3a9.9 9.9 0 0 0 9-9.1h-9z"/><path d="m433.9 188.3h-1v9.1h1.9v-9.1z"/><path d="m432.9 199.2v9.1h1.9v-9.1z"/><path d="m423.9 197.4a4.1 4.1 0 0 0 0 1.8h9v-1.8z"/><path d="m443.8 197.4h-9v1.8h9a4.1 4.1 0 0 0 0-1.8z"/><path d="m432.9 199.2h1.9v-1.8h-1.9z"/><path d="m843.6 37.1h-9.1v9.1a10 10 0 0 0 9.1-9.1z"/><path d="m823.6 36.2a10.1 10.1 0 0 0 4.8 8.6v-17.2a10.1 10.1 0 0 0 -4.8 8.6z"/><path d="m832.7 46.2v-10.9h10.9a10.1 10.1 0 0 0 -13.8-8.4v18.6a9.5 9.5 0 0 0 2.9.7z"/><path d="m829.8 26.9-1.4.7v17.2l1.4.7z"/><path d="m832.7 46.2h1.8v-9.1h9.1c0-.3.1-.6.1-.9s-.1-.6-.1-.9h-10.9z"/><path d="m970.5 129.9v-9h-9.1a9.9 9.9 0 0 0 9.1 9z"/><path d="m970.5 110a10 10 0 0 0 -9.1 9.1h9.1z"/><path d="m972.3 110v9.1h9.1a10 10 0 0 0 -9.1-9.1z"/><path d="m972.3 129.9a10 10 0 0 0 9.1-9h-9.1z"/><path d="m972.3 119.1v-9.1h-1.8v9.1z"/><path d="m971.4 130h.9v-9h-1.8v9z"/><path d="m961.4 120.9h9.1v-1.8h-9.1z"/><path d="m981.4 120.9v-1.8h-9.1v1.8z"/><path d="m972.3 119.1h-1.8v1.8h1.8z"/><path d="m1183.8 80.3a9.7 9.7 0 0 0 -6.6 3.4h5.4a7.7 7.7 0 0 1 1.2-3.4z"/><path d="m1184.8 100.3a10.1 10.1 0 0 0 10-9.2h-1.4a7.2 7.2 0 0 1 -6.6 0h-2.9v-2.5a7.8 7.8 0 0 1 -1.3-3.6h-6.4a10.5 10.5 0 0 0 -1.5 5.2 10.1 10.1 0 0 0 10.1 10.1z"/><path d="m1182.6 85v-1.3h-5.4a11.3 11.3 0 0 0 -1 1.3z"/><path d="m1183.9 83.7v-3.4h-.1a7.7 7.7 0 0 0 -1.2 3.4z"/><path d="m1183.9 85h-1.3a7.8 7.8 0 0 0 1.3 3.6z"/><path d="m1185.7 85v4.3h9.1a10.3 10.3 0 0 0 -4-7.1v2.8z"/><path d="m1190.1 91.9a7.3 7.3 0 0 0 3.3-.8h-6.6a7.3 7.3 0 0 0 3.3.8z"/><path d="m1189.5 83.7v-2.3a10.4 10.4 0 0 0 -3.8-1.1v3.4z"/><path d="m1183.9 83.7h-1.3v1.3h1.3z"/><path d="m1185.7 83.7v1.3h5.1v-2.8l-1.3-.8v2.3z"/><path d="m1183.9 88.6v2.5h2.9a6.4 6.4 0 0 1 -2.9-2.5z"/><path d="m1194.8 91.1v-.8l-1.4.8z"/><path d="m1185.7 85h-1.8v3.6a6.4 6.4 0 0 0 2.9 2.5h6.6l1.4-.8v-.9h-9.1z"/><path d="m1185.7 80.3h-1.8v3.4h1.8z"/><path d="m1185.7 85v-1.3h-1.8v1.3z"/><path d="m1110 161.4a10 10 0 0 0 9.1 9.1v-9.1z"/><path d="m1120.9 150.5v9.1h9a9.9 9.9 0 0 0 -9-9.1z"/><path d="m1129.9 161.4h-9v9.1a10 10 0 0 0 9-9.1z"/><path d="m1119.1 150.5a10 10 0 0 0 -9.1 9.1h9.1z"/><path d="m1120.9 170.5v-9.1h-1.8v9.1z"/><path d="m1120.9 159.6v-9.1h-1.8v9.1z"/><path d="m1119.1 159.6h-9.1a4.1 4.1 0 0 0 0 1.8h9.1z"/><path d="m1130 160.5a2.8 2.8 0 0 0 -.1-.9h-9v1.8h9a2.8 2.8 0 0 0 .1-.9z"/><path d="m1119.1 159.6v1.8h1.8v-1.8z"/><path d="m1488.1 39.8a10.1 10.1 0 0 0 9.1 9.1v-9.1z"/><path d="m1499 48.9a10 10 0 1 0 -10.9-10.9h10.9z"/><path d="m1488.1 39.8h9.1v9.1h1.8v-10.9h-10.9z"/><path d="m1378.4 240.7v-9.1h-9.1a10 10 0 0 0 9.1 9.1z"/><path d="m1379.3 220.7a9.9 9.9 0 0 0 -10 9.1h10.9v10.9a10 10 0 0 0 -.9-20z"/><path d="m1369.3 229.8c0 .3-.1.6-.1.9s.1.6.1.9h9.1v9.1h1.8v-10.9z"/><path d="m1299.1 240.7a10 10 0 0 0 9.1-9.1h-9.1z"/><path d="m1288.2 231.6a10.1 10.1 0 0 0 9.1 9.1v-9.1z"/><path d="m1288.2 229.8h9.1v-9.1a10.2 10.2 0 0 0 -9.1 9.1z"/><path d="m1299.1 220.7v9.1h9.1a10 10 0 0 0 -9.1-9.1z"/><path d="m1308.2 229.8h-9.1v1.8h9.1c0-.3.1-.6.1-.9s-.1-.6-.1-.9z"/><path d="m1297.3 229.8h-9.1v1.8h9.1z"/><path d="m1297.3 231.6v9.1h1.8v-9.1z"/><path d="m1298.2 220.7h-.9v9.1h1.8v-9.1z"/><path d="m1297.3 231.6h1.8v-1.8h-1.8z"/><path d="m1215.4 240.7a10 10 0 0 0 9.1-9.1h-9.1z"/><path d="m1204.5 231.6a10 10 0 0 0 9.1 9.1v-9.1z"/><path d="m1224.5 229.8a10.1 10.1 0 0 0 -9.1-9.1v9.1z"/><path d="m1204.5 229.8h9.1v-9.1a10.1 10.1 0 0 0 -9.1 9.1z"/><path d="m1215.4 231.6h9.1v-1.8h-9.1z"/><path d="m1213.6 229.8h-9.1v1.8h9.1z"/><path d="m1213.6 229.8h.2v-9.1h-.2z"/><path d="m1215.1 231.6v9.1h.3v-9.1z"/><path d="m1215.1 229.8h.3v-9.1h-.3z"/><path d="m1213.8 231.6h-.2v9.1h.2z"/><path d="m1215.1 229.8v-9.1h-1.3v9.1z"/><path d="m1213.8 240.7h1.3v-9.1h-1.3z"/><path d="m1215.4 231.6v-1.8h-.3v1.8z"/><path d="m1213.6 229.8v1.8h.2v-1.8z"/><path d="m1213.8 231.6h1.3v-1.8h-1.3z"/><path d="m1297.3 100.2v-9.1h-9.1a10 10 0 0 0 9.1 9.1z"/><path d="m1299.1 100.2a10 10 0 0 0 -.9-20 10.1 10.1 0 0 0 -10 9.1h10.9z"/><path d="m1288.2 91.1h9.1v9.1h1.8v-10.9h-10.9z"/><path d="m784.6 45.1 9.3 5.5v-4.8l-9.3-5.4z"/><path d="m784.6 48.9v4.8l9.3 5.5v-4.8z"/><path d="m793.9 63-9.3-5.5v4.8l9.3 5.4z"/><path d="m793.9 71.6-9.3-5.5v4.7l9.3 5.5z"/><path d="m784.6 79.4 9.3 5.5v-4.8l-9.3-5.4z"/><path d="m793.9 88.7-9.3-5.5v4.8l9.3 5.5z"/><path d="m1150.7 26.7-1.3-2.1-3.2 5.7-1.6 2.7h1.5a7.8 7.8 0 0 1 4.6-6.3z"/><path d="m1143.8 34.3-.9 1.6h3.5l-.3-1.6z"/><path d="m1146.1 34.3v-1.3h-1.5l-.8 1.3z"/><path d="m1156 35.9-1.7-2.9v1.3h-8.2l.3 1.6z"/><path d="m1146.1 33h6.9v-2.3l-.3-.4-2-3.6a7.8 7.8 0 0 0 -4.6 6.3z"/><path d="m1154.3 33-1.3-2.3v2.3h-6.9v1.3h8.2z"/><path d="m1156 23-1.7-2.9v2.9z"/><path d="m1152.7 17.3-3.3-5.6-3.2 5.6-3.3 5.7h10.1v-5.3z"/><path d="m1154.3 20.1-1.3-2.4v5.3h1.3z"/><path d="m1142.9 10h10.1v-5.2l-.3-.4-2.5-4.4h-1.5l-2.5 4.4z"/><path d="m1156 10-1.7-2.9v2.9z"/><path d="m1154.3 7.1-1.3-2.3v5.2h1.3z"/></g><path d="m358.6-1.4h-.9v1.4h.9z"/><path d="m570.2-.1h6.8a2 2 0 0 0 .1-.7 1.7 1.7 0 0 0 -.1-.7h-8.1v1.5h1.3z"/><path d="m1781.2-1.4h-.9v1.4h.9z"/><path d="m1561.9-.1h8.1v-1.4h-8.1a1.7 1.7 0 0 0 -.1.7 2 2 0 0 0 .1.7z"/><path d="m1361.3-2.4h-1.8v2.4h1.8z"/><path d="m1149.4-1.3-.7 1.3h1.5z"/></svg>