<svg xmlns="http://www.w3.org/2000/svg" viewBox="0 0 1000 249"><path d="M0,126.5A41.46,41.46,0,0,1,2.8,111,37.3,37.3,0,0,1,22.5,90.2a35.78,35.78,0,0,1,14.7-3,34,34,0,0,1,17.5,4.5,28.9,28.9,0,0,1,11.5,12.7l-3,1A28,28,0,0,0,52.3,94.2a30.7,30.7,0,0,0-15.5-4.1,30.34,30.34,0,0,0-13.2,2.8,35.64,35.64,0,0,0-10.7,7.7,34.43,34.43,0,0,0-7.2,11.6,39.89,39.89,0,0,0-2.6,14.3,38.41,38.41,0,0,0,2.7,14.4A37,37,0,0,0,24,161a29.28,29.28,0,0,0,13.1,3,31.11,31.11,0,0,0,9-1.3,36.53,36.53,0,0,0,8.3-3.6,28,28,0,0,0,6.5-5.2,15.58,15.58,0,0,0,3.6-6.1l3,.9a21.94,21.94,0,0,1-4.2,7.2,28,28,0,0,1-6.9,5.8,40,40,0,0,1-8.9,3.9,36.43,36.43,0,0,1-9.9,1.4,33.68,33.68,0,0,1-14.4-3.2,36.59,36.59,0,0,1-11.9-8.7,40.62,40.62,0,0,1-8-12.9A36.89,36.89,0,0,1,0,126.5Z" fill="#11294b"/><path d="M98.6,195.6c1.7,0,3.1-.1,4.4-.2a3.45,3.45,0,0,0,2.6-1.3,7.52,7.52,0,0,0,1-1.7c.4-.8,1-2.3,1.9-4.3s2.1-4.9,3.7-8.5,3.7-8.4,6.2-14.2L82.7,88.2H86l34.1,73.5,32.3-73.5h3.3l-46,104.9c-1.2,2.6-2.8,4.2-4.9,4.8a24.83,24.83,0,0,1-6.1.7v-3Z" fill="#11294b"/><path d="M212.4,166.9a30.15,30.15,0,0,1-9-1.3,36.29,36.29,0,0,1-8.3-3.7,39.35,39.35,0,0,1-7.3-5.6,33.23,33.23,0,0,1-5.6-6.9v16.1h-3V56.8h3v49.4a57.94,57.94,0,0,1,13.7-13.8A30.44,30.44,0,0,1,213.7,87a31.6,31.6,0,0,1,15.2,3.6,35.08,35.08,0,0,1,11.2,9.3,42.37,42.37,0,0,1,7,12.9,44.86,44.86,0,0,1,2.5,14.3,40.49,40.49,0,0,1-2.8,15.1,40,40,0,0,1-19.7,21.5A34.69,34.69,0,0,1,212.4,166.9Zm0-3a30.76,30.76,0,0,0,13.8-3.2,35.79,35.79,0,0,0,10.9-8.4,40.36,40.36,0,0,0,7.1-11.8,37.11,37.11,0,0,0,2.5-13.5,40.07,40.07,0,0,0-2.4-13.8,35.41,35.41,0,0,0-6.8-11.8,35,35,0,0,0-10.4-8.3A28.33,28.33,0,0,0,213.8,90a27,27,0,0,0-10.3,1.9,33.36,33.36,0,0,0-8.8,5,47.66,47.66,0,0,0-7.1,7.1,50.78,50.78,0,0,0-5.4,8.5v28.1a17.1,17.1,0,0,0,3.3,9A31,31,0,0,0,193,157a42.73,42.73,0,0,0,9.7,5.1A29.92,29.92,0,0,0,212.4,163.9Z" fill="#11294b"/><path d="M307.9,166.9a34,34,0,0,1-14.4-3.2,36.49,36.49,0,0,1-11.8-8.8,42.78,42.78,0,0,1-11-28.6,40.42,40.42,0,0,1,10.6-27.8,35.59,35.59,0,0,1,11.6-8.4,35.29,35.29,0,0,1,28.7.1,38.25,38.25,0,0,1,11.8,8.5,43,43,0,0,1,8,12.6,40.88,40.88,0,0,1,3,15.6v1.6H273.7a42.43,42.43,0,0,0,3.5,13.9,36.68,36.68,0,0,0,7.5,11.2,34.11,34.11,0,0,0,10.6,7.5,30.92,30.92,0,0,0,12.7,2.8,31.51,31.51,0,0,0,8.7-1.2,37.44,37.44,0,0,0,8-3.3,27.05,27.05,0,0,0,11-11.6l2.8.7a26.47,26.47,0,0,1-4.7,7.4,31,31,0,0,1-7.1,5.8,42.08,42.08,0,0,1-8.9,3.9A40.72,40.72,0,0,1,307.9,166.9Zm33.3-41.3a41.59,41.59,0,0,0-3.3-14.3,35.27,35.27,0,0,0-7.4-11.2A33.87,33.87,0,0,0,320,92.7a31.69,31.69,0,0,0-25.6,0,33.87,33.87,0,0,0-10.5,7.4,36.41,36.41,0,0,0-7.2,11.3,43.88,43.88,0,0,0-3.1,14.1h67.6Z" fill="#11294b"/><path d="M402.5,91.2a31,31,0,0,0-19,7.1q-8,6.75-11.1,18.3v48.8h-3V88.2h3v19.9a38.91,38.91,0,0,1,10.8-13.5,28.77,28.77,0,0,1,14.4-6.2c1-.1,1.9-.2,2.8-.2s1.6-.1,2.2-.1v3.1Z" fill="#11294b"/><path d="M776.3,150.1c-9.8,10.7-21.1,16.1-33.8,16.1a42.34,42.34,0,0,1-19.7-4.6,51.53,51.53,0,0,1-15.6-12.2,56.65,56.65,0,0,1-10.3-17.2,53.77,53.77,0,0,1-3.7-19.7,57.32,57.32,0,0,1,3.6-20.2,54.76,54.76,0,0,1,10.1-17,50.25,50.25,0,0,1,15.5-11.8A44.37,44.37,0,0,1,742,59.1a56.17,56.17,0,0,1,14.1,1.7,39.7,39.7,0,0,1,11.3,4.8,39.71,39.71,0,0,1,14.9,16.6l-8,5.4c-3.5-6.5-8-11.4-13.5-14.4a38.33,38.33,0,0,0-18.9-4.6,32.9,32.9,0,0,0-15.8,3.7,38.36,38.36,0,0,0-12,9.9,45.82,45.82,0,0,0-7.7,14.1,50.8,50.8,0,0,0-2.7,16.4,48.28,48.28,0,0,0,3,17,44.39,44.39,0,0,0,8.4,14.1,42.2,42.2,0,0,0,12.6,9.6,34.51,34.51,0,0,0,15.7,3.6,37.74,37.74,0,0,0,17.3-4.2c5.5-2.8,10.7-7.3,15.8-13.3V121.8H753.1v-8h32.3v51.9h-8.9V150.1Z" fill="#f26a3f"/><path d="M814.7,165.4V59.8h44.5a27.81,27.81,0,0,1,12.6,2.9,32.74,32.74,0,0,1,10,7.6,36,36,0,0,1,6.5,10.6,34,34,0,0,1,2.3,12,36.83,36.83,0,0,1-1.7,11.1,34,34,0,0,1-4.8,9.5,31.12,31.12,0,0,1-7.4,7.1,26.76,26.76,0,0,1-9.7,3.9l26,40.8H881.2l-25-39H825v39H814.7Zm10.2-48.2h34.7a18,18,0,0,0,8.4-2,19.79,19.79,0,0,0,6.5-5.4A26.9,26.9,0,0,0,880.2,93a25.35,25.35,0,0,0-1.7-9.1,25.83,25.83,0,0,0-4.6-7.7,21.64,21.64,0,0,0-6.8-5.2,18.36,18.36,0,0,0-8.3-1.9H825v48.1Z" fill="#f26a3f"/><path d="M919.2,59.8l34.7,46.1,34.7-46.1h11.5l-40.6,53.5,39.4,52.1H987.4l-33.5-44.6-33.5,44.6H908.8l39.4-52.1L907.6,59.8Z" fill="#f26a3f"/><path d="M653,58.1C619.5,39.5,587.2,19.6,553.6,1c-2.5-1.2-6.2-1.2-9.9,0-32.3,18.6-65.8,38.5-98.1,57.1a9.36,9.36,0,0,0-6.2,8.7V182.3a10.62,10.62,0,0,0,5,8.7c33.5,18.6,65.8,37.3,99.4,57.1,2.5,1.2,6.2,1.2,9.9,0,33.5-18.6,65.8-38.5,99.4-57.1,2.5-1.2,5-5,5-8.7V66.8C658,63,656.7,60.5,653,58.1ZM579.7,86a6.9,6.9,0,0,1,2.5.4l15.1-15.1a7.6,7.6,0,0,1,1.7-7.7,7.42,7.42,0,1,1,2.8,12.2L586.7,91a6.9,6.9,0,0,1,.4,2.5,7.38,7.38,0,0,1-7.4,7.4,7.45,7.45,0,1,1,0-14.9ZM470,131.9a7.4,7.4,0,1,1,6.6-10.6H498a7,7,0,0,1,1.5-2,7.3,7.3,0,0,1,10.4,0,7.42,7.42,0,0,1,0,10.5,7.3,7.3,0,0,1-10.4,0,9.51,9.51,0,0,1-1.5-2H476.6A7.4,7.4,0,0,1,470,131.9ZM517.6,163a10.05,10.05,0,0,1-2.5-.4L500,177.7a7.6,7.6,0,0,1-1.7,7.7,7.42,7.42,0,1,1-2.8-12.2l15.1-15.1a6.9,6.9,0,0,1-.4-2.5,7.38,7.38,0,0,1,7.4-7.4,7.62,7.62,0,0,1,7.5,7.5A7.51,7.51,0,0,1,517.6,163Zm-.1-62.2a7.51,7.51,0,0,1-7.4-7.4,10.05,10.05,0,0,1,.4-2.5L495.4,75.8a7.6,7.6,0,0,1-7.7-1.7,7.42,7.42,0,1,1,12.2-2.8L515,86.4a6.9,6.9,0,0,1,2.5-.4,7.4,7.4,0,0,1,0,14.8Zm38.6,102.4a7.4,7.4,0,1,1-10.6-6.6V175.2a7,7,0,0,1-2-1.5,7.3,7.3,0,0,1,0-10.4,7.42,7.42,0,0,1,10.5,0,7.3,7.3,0,0,1,0,10.4,9.51,9.51,0,0,1-2,1.5v21.4A7.18,7.18,0,0,1,556.1,203.2ZM553.9,85.8a7.42,7.42,0,0,1-10.5,0,7.3,7.3,0,0,1,0-10.4,9.51,9.51,0,0,1,2-1.5V52.5a7.4,7.4,0,1,1,6.4,0V73.9a7,7,0,0,1,2,1.5A7.22,7.22,0,0,1,553.9,85.8Zm55.6,99.6a7.39,7.39,0,0,1-12.2-7.7l-15.1-15.1a6.9,6.9,0,0,1-2.5.4,7.38,7.38,0,0,1-7.4-7.4,7.45,7.45,0,0,1,14.9-.1,6.9,6.9,0,0,1-.4,2.5l15.1,15.1a7.39,7.39,0,0,1,7.6,12.3Zm17.8-53.5a7.32,7.32,0,0,1-6.6-4.2H599.3a7,7,0,0,1-1.5,2,7.3,7.3,0,0,1-10.4,0,7.42,7.42,0,0,1,0-10.5,7.3,7.3,0,0,1,10.4,0,9.51,9.51,0,0,1,1.5,2h21.4a7.36,7.36,0,0,1,14,3.2A7.41,7.41,0,0,1,627.3,131.9Z" fill="#11294b"/><path d="M551.9,73.9V52.5a7.4,7.4,0,1,0-6.4,0V73.9a7,7,0,0,0-2,1.5,7.3,7.3,0,0,0,0,10.4,7.42,7.42,0,0,0,10.5,0,7.3,7.3,0,0,0,0-10.4A9.12,9.12,0,0,0,551.9,73.9Z" fill="#fff"/><path d="M553.9,173.7a7.3,7.3,0,0,0,0-10.4,7.42,7.42,0,0,0-10.5,0,7.3,7.3,0,0,0,0,10.4,9.51,9.51,0,0,0,2,1.5v21.4a7.4,7.4,0,1,0,6.4,0V175.2A8,8,0,0,0,553.9,173.7Z" fill="#fff"/><path d="M627.3,117.1a7.32,7.32,0,0,0-6.6,4.2H599.3a7,7,0,0,0-1.5-2,7.3,7.3,0,0,0-10.4,0,7.42,7.42,0,0,0,0,10.5,7.3,7.3,0,0,0,10.4,0,9.51,9.51,0,0,0,1.5-2h21.4a7.36,7.36,0,0,0,14-3.2A7.41,7.41,0,0,0,627.3,117.1Z" fill="#fff"/><path d="M499.5,129.8a7.3,7.3,0,0,0,10.4,0,7.42,7.42,0,0,0,0-10.5,7.3,7.3,0,0,0-10.4,0,9.51,9.51,0,0,0-1.5,2H476.6a7.4,7.4,0,1,0,0,6.4H498A8,8,0,0,0,499.5,129.8Z" fill="#fff"/><path d="M601.9,173.2,586.7,158a6.9,6.9,0,0,0,.4-2.5,7.38,7.38,0,0,0-7.4-7.4,7.62,7.62,0,0,0-7.5,7.5,7.51,7.51,0,0,0,7.4,7.4,10.05,10.05,0,0,0,2.5-.4l15.1,15.1a7.6,7.6,0,0,0,1.7,7.7,7.42,7.42,0,0,0,10.5-10.5A7,7,0,0,0,601.9,173.2Z" fill="#f26a3f"/><path d="M517.6,86a6.9,6.9,0,0,0-2.5.4L500,71.3a7.6,7.6,0,0,0-1.7-7.7,7.42,7.42,0,1,0-2.8,12.2L510.6,91a6.9,6.9,0,0,0-.4,2.5,7.38,7.38,0,0,0,7.4,7.4,7.45,7.45,0,1,0,0-14.9Z" fill="#f26a3f"/><path d="M579.8,100.8a7.51,7.51,0,0,0,7.4-7.4,10.05,10.05,0,0,0-.4-2.5l15.1-15.1a7.6,7.6,0,0,0,7.7-1.7,7.42,7.42,0,1,0-12.2-2.8L582.3,86.4a6.9,6.9,0,0,0-2.5-.4,7.4,7.4,0,1,0,0,14.8Z" fill="#f26a3f"/><path d="M517.5,148.2a7.51,7.51,0,0,0-7.4,7.4,6.9,6.9,0,0,0,.4,2.5l-15.1,15.1a7.6,7.6,0,0,0-7.7,1.7,7.42,7.42,0,1,0,12.2,2.8L515,162.6a6.9,6.9,0,0,0,2.5.4,7.4,7.4,0,0,0,0-14.8Z" fill="#f26a3f"/></svg>