<?xml version="1.0" encoding="utf-8"?>
<!-- Generator: Adobe Illustrator 21.1.0, SVG Export Plug-In . SVG Version: 6.00 Build 0)  -->
<svg version="1.1" id="Layer_1" xmlns="http://www.w3.org/2000/svg" xmlns:xlink="http://www.w3.org/1999/xlink" x="0px" y="0px"
	 viewBox="0 0 100 100" style="enable-background:new 0 0 100 100;" xml:space="preserve">
<path d="M38.2,0C17.1,0,0,17.2,0,38.4s17.1,38.4,38.2,38.4c21.1,0,38.2-17.2,38.2-38.4S59.3,0,38.2,0z M38.2,72.2
	c-18.6,0-33.6-15.1-33.6-33.8c0-18.7,15.1-33.8,33.6-33.8c18.6,0,33.6,15.1,33.6,33.8C71.9,57.1,56.8,72.2,38.2,72.2z"/>
<path d="M96.3,99.5L71.4,74.8c-0.7-0.7-0.7-1.8,0-2.5l0.7-0.7c0.7-0.7,1.8-0.7,2.5,0l24.9,24.7c0.7,0.7,0.7,1.8,0,2.5l-0.7,0.7
	C98.1,100.2,97,100.2,96.3,99.5z"/>
</svg>
