<?xml version="1.0" encoding="utf-8"?>
<!-- Generator: Adobe Illustrator 21.1.0, SVG Export Plug-In . SVG Version: 6.00 Build 0)  -->
<svg version="1.1" id="Layer_1" xmlns="http://www.w3.org/2000/svg" xmlns:xlink="http://www.w3.org/1999/xlink" x="0px" y="0px"
	 viewBox="0 0 100 100" style="enable-background:new 0 0 100 100;" xml:space="preserve">
<style type="text/css">
	.st0{fill:none;}
</style>
<rect x="31" y="47" class="st0" width="5" height="6"/>
<rect x="31" y="31" class="st0" width="5" height="6"/>
<rect x="31" y="39" class="st0" width="5" height="6"/>
<rect x="31" y="62" class="st0" width="5" height="6"/>
<rect x="31" y="55" class="st0" width="5" height="5"/>
<rect x="31" y="24" class="st0" width="5" height="5"/>
<rect x="22" y="24" class="st0" width="5" height="5"/>
<rect x="66" y="61" class="st0" width="3" height="6"/>
<rect x="66" y="53" class="st0" width="3" height="6"/>
<rect x="66" y="44" class="st0" width="3" height="6"/>
<rect x="73" y="44" class="st0" width="6" height="6"/>
<rect x="22" y="62" class="st0" width="5" height="6"/>
<rect x="22" y="31" class="st0" width="5" height="6"/>
<rect x="73" y="61" class="st0" width="6" height="6"/>
<rect x="73" y="53" class="st0" width="6" height="6"/>
<rect x="22" y="47" class="st0" width="5" height="6"/>
<rect x="22" y="39" class="st0" width="5" height="6"/>
<rect x="73" y="70" class="st0" width="6" height="6"/>
<rect x="22" y="55" class="st0" width="5" height="5"/>
<path d="M90,91.3V35.1H70V4.2H33.8v7.4H10v79.7H0v4.8h100v-4.8H90z M66.2,42.5H70h3.7V50H70h-3.7V42.5z M66.2,53.7H70h3.7v7.4H70
	h-3.7V53.7z M66.2,63.6H70h3.7V71H70h-3.7V63.6z M26.3,17.8h6.2V24h-6.2V17.8z M26.3,26.4h6.2v7.4h-6.2V26.4z M26.3,36.3h6.2v7.4
	h-6.2V36.3z M26.3,46.2h6.2v7.4h-6.2V46.2z M26.3,56.2h6.2v6.2h-6.2V56.2z M26.3,64.8h6.2v7.4h-6.2V64.8z M15,17.8h6.2V24H15V17.8z
	 M15,26.4h6.2v7.4H15V26.4z M15,36.3h6.2v7.4H15V36.3z M15,46.2h6.2v7.4H15V46.2z M15,56.2h6.2v6.2H15V56.2z M15,64.8h6.2v7.4H15
	V64.8z M38.8,91.3H20V77.2h13.7h5V91.3z M45,72.2h-7.5v-7.4H45V72.2z M45,62.3h-7.5v-6.2H45V62.3z M45,53.7h-7.5v-7.4H45V53.7z
	 M45,43.8h-7.5v-7.4H45V43.8z M45,33.9h-7.5v-7.4H45V33.9z M45,24h-7.5v-6.2H45V24z M61.2,82.1h-7.5v-7.4h7.5V82.1z M61.2,71h-7.5
	v-7.4h7.5V71z M61.2,61.1h-7.5v-7.4h7.5V61.1z M61.2,50h-7.5v-7.4h7.5V50z M75,91.3H65V74.7h1.3H70h3.5H75V91.3z M86.2,82.1h-7.5
	v-7.4h7.5V82.1z M86.2,71h-7.5v-7.4h7.5V71z M86.2,61.1h-7.5v-7.4h7.5V61.1z M86.2,50h-7.5v-7.4h7.5V50z"/>
</svg>
